<svg xmlns="http://www.w3.org/2000/svg" xmlns:xlink="http://www.w3.org/1999/xlink" style="margin:auto;background:#f0e1fb;display:block;z-index:1;position:relative" width="1440" height="782" preserveAspectRatio="xMidYMid" viewBox="0 0 1440 782">
<g transform="translate(720,391) scale(1,1) translate(-720,-391)"><path id="path0" d="M 547.877136983259 570.5294695916522
c 0 30.148028311819306 -7.376645225232383 8.659540047011928 -16.03618527224431 8.659540047011928
S 515.8047664387703 600.6774979034715 515.8047664387703 570.5294695916522
s 7.376645225232383 -8.659540047011928 16.03618527224431 -8.659540047011928
S 547.877136983259 540.3814412798329 547.877136983259 570.5294695916522
z" fill="none" stroke="none"></path>
<circle cx="0" cy="0" r="6.877926012525574" fill="#fab0fa" opacity="0.9">
  <animateMotion begin="-0.8005761429054714s" dur="10s" repeatCount="indefinite">
    <mpath xlink:href="#path0"></mpath>
  </animateMotion>
</circle><path id="path1" d="M 1182.3083544297924 371.202670028207
c 0 21.645589929878 -5.296261365821212 6.217350299007511 -11.513611664828723 6.217350299007511
S 1159.281131100135 392.848259958085 1159.281131100135 371.202670028207
s 5.296261365821212 -6.217350299007511 11.513611664828723 -6.217350299007511
S 1182.3083544297924 349.55708009832904 1182.3083544297924 371.202670028207
z" fill="none" stroke="none"></path>
<circle cx="0" cy="0" r="4.7597260777374135" fill="#da70dc" opacity="0.9">
  <animateMotion begin="-1.4289457224406132s" dur="10s" repeatCount="indefinite">
    <mpath xlink:href="#path1"></mpath>
  </animateMotion>
</circle><path id="path2" d="M 1299.8366862658106 475.1128034593014
c 0 30.793110502887988 -7.534484484749187 8.844829612531656 -16.379314097280844 8.844829612531656
S 1267.0780580712487 505.9059139621894 1267.0780580712487 475.1128034593014
s 7.534484484749187 -8.844829612531656 16.379314097280844 -8.844829612531656
S 1299.8366862658106 444.3196929564134 1299.8366862658106 475.1128034593014
z" fill="none" stroke="none"></path>
<circle cx="0" cy="0" r="5.272410884596129" fill="#a53faa" opacity="0.9">
  <animateMotion begin="-4.183645817289627s" dur="10s" repeatCount="indefinite">
    <mpath xlink:href="#path2"></mpath>
  </animateMotion>
</circle><path id="path3" d="M 691.3341977629004 129.28653858094998
c 0 23.815294525773254 -5.827146532901966 6.840563321232744 -12.66770985413471 6.840563321232744
S 665.998778054631 153.10183310672323 665.998778054631 129.28653858094998
s 5.827146532901966 -6.840563321232744 12.66770985413471 -6.840563321232744
S 691.3341977629004 105.47124405517673 691.3341977629004 129.28653858094998
z" fill="none" stroke="none"></path>
<circle cx="0" cy="0" r="7.503002669250654" fill="#fab0fa" opacity="0.9">
  <animateMotion begin="-9.033285041632297s" dur="10s" repeatCount="indefinite">
    <mpath xlink:href="#path3"></mpath>
  </animateMotion>
</circle><path id="path4" d="M 1185.9578005667402 437.3709396948329
c 0 32.77378330395086 -8.019117191392231 9.413746268156098 -17.43286345954833 9.413746268156098
S 1151.0920736476435 470.1447229987837 1151.0920736476435 437.3709396948329
s 8.019117191392231 -9.413746268156098 17.43286345954833 -9.413746268156098
S 1185.9578005667402 404.59715639088205 1185.9578005667402 437.3709396948329
z" fill="none" stroke="none"></path>
<circle cx="0" cy="0" r="5.228211196521108" fill="#fab0fa" opacity="0.9">
  <animateMotion begin="-7.944757436963599s" dur="10s" repeatCount="indefinite">
    <mpath xlink:href="#path4"></mpath>
  </animateMotion>
</circle><path id="path5" d="M 230.51030184249166 239.04109371133305
c 0 35.70414535562186 -8.736120672120242 10.255446006402023 -18.991566678522265 10.255446006402023
S 192.5271684854471 274.7452390669549 192.5271684854471 239.04109371133305
s 8.736120672120242 -10.255446006402023 18.991566678522265 -10.255446006402023
S 230.51030184249166 203.33694835571117 230.51030184249166 239.04109371133305
z" fill="none" stroke="none"></path>
<circle cx="0" cy="0" r="6.3428819611072536" fill="#74007a" opacity="0.9">
  <animateMotion begin="-1.441599490456562s" dur="10s" repeatCount="indefinite">
    <mpath xlink:href="#path5"></mpath>
  </animateMotion>
</circle><path id="path6" d="M 273.4683656414237 58.41905611451711
c 0 24.82399373375074 -6.073955913577308 7.130296072460319 -13.204251986037628 7.130296072460319
S 247.05986166934846 83.24304984826784 247.05986166934846 58.41905611451711
s 6.073955913577308 -7.130296072460319 13.204251986037628 -7.130296072460319
S 273.4683656414237 33.59506238076637 273.4683656414237 58.41905611451711
z" fill="none" stroke="none"></path>
<circle cx="0" cy="0" r="4.014301756851364" fill="#74007a" opacity="0.9">
  <animateMotion begin="-2.26641181019829s" dur="10s" repeatCount="indefinite">
    <mpath xlink:href="#path6"></mpath>
  </animateMotion>
</circle><path id="path7" d="M 47.62383363970132 60.843821148616605
c 0 35.854196199766065 -8.772835240368291 10.298545716954083 -19.071380957322372 10.298545716954083
S 9.481071725056577 96.69801734838268 9.481071725056577 60.843821148616605
s 8.772835240368291 -10.298545716954083 19.071380957322372 -10.298545716954083
S 47.62383363970132 24.98962494885054 47.62383363970132 60.843821148616605
z" fill="none" stroke="none"></path>
<circle cx="0" cy="0" r="4.734248382158122" fill="#a53faa" opacity="0.9">
  <animateMotion begin="-2.0420350254131603s" dur="10s" repeatCount="indefinite">
    <mpath xlink:href="#path7"></mpath>
  </animateMotion>
</circle><path id="path8" d="M 659.283922709849 41.02257638275563
c 0 20.276775489237796 -4.961338683536907 5.824180193717239 -10.785518877254145 5.824180193717239
S 637.7128849553407 61.29935187199342 637.7128849553407 41.02257638275563
s 4.961338683536907 -5.824180193717239 10.785518877254145 -5.824180193717239
S 659.283922709849 20.745800893517835 659.283922709849 41.02257638275563
z" fill="none" stroke="none"></path>
<circle cx="0" cy="0" r="7.913025463420701" fill="#a53faa" opacity="0.9">
  <animateMotion begin="-7.335099894314563s" dur="10s" repeatCount="indefinite">
    <mpath xlink:href="#path8"></mpath>
  </animateMotion>
</circle><path id="path9" d="M 526.3512140399612 616.7489895462928
c 0 22.388325421292446 -5.4779945179758105 6.430689216754213 -11.908683734730023 6.430689216754213
S 502.5338465705011 639.1373149675852 502.5338465705011 616.7489895462928
s 5.4779945179758105 -6.430689216754213 11.908683734730023 -6.430689216754213
S 526.3512140399612 594.3606641250004 526.3512140399612 616.7489895462928
z" fill="none" stroke="none"></path>
<circle cx="0" cy="0" r="7.89158284035709" fill="#fab0fa" opacity="0.9">
  <animateMotion begin="-4.955446639757524s" dur="10s" repeatCount="indefinite">
    <mpath xlink:href="#path9"></mpath>
  </animateMotion>
</circle><path id="path10" d="M 338.0210686106297 113.05558288186096
c 0 35.99992302316307 -8.8084918035399 10.34040342154684 -19.14889522508674 10.34040342154684
S 299.72327816045623 149.05550590502403 299.72327816045623 113.05558288186096
s 8.8084918035399 -10.34040342154684 19.14889522508674 -10.34040342154684
S 338.0210686106297 77.05565985869788 338.0210686106297 113.05558288186096
z" fill="none" stroke="none"></path>
<circle cx="0" cy="0" r="4.166523222813933" fill="#da70dc" opacity="0.9">
  <animateMotion begin="-0.4386831422888915s" dur="10s" repeatCount="indefinite">
    <mpath xlink:href="#path10"></mpath>
  </animateMotion>
</circle><path id="path11" d="M 146.08045849922507 429.0232372183778
c 0 21.54515391393334 -5.271686595962413 6.18850165612979 -11.460188252092202 6.18850165612979
S 123.16008199504068 450.56839113231115 123.16008199504068 429.0232372183778
s 5.271686595962413 -6.18850165612979 11.460188252092202 -6.18850165612979
S 146.08045849922507 407.47808330444445 146.08045849922507 429.0232372183778
z" fill="none" stroke="none"></path>
<circle cx="0" cy="0" r="4.246760647046975" fill="#da70dc" opacity="0.9">
  <animateMotion begin="-0.4234070381007027s" dur="10s" repeatCount="indefinite">
    <mpath xlink:href="#path11"></mpath>
  </animateMotion>
</circle><path id="path12" d="M 1108.6306787971516 750.5964315751742
c 0 23.282182644860526 -5.696704264168001 6.687435440545046 -12.384139704713046 6.687435440545046
S 1083.8623993877254 773.8786142200347 1083.8623993877254 750.5964315751742
s 5.696704264168001 -6.687435440545046 12.384139704713046 -6.687435440545046
S 1108.6306787971516 727.3142489303136 1108.6306787971516 750.5964315751742
z" fill="none" stroke="none"></path>
<circle cx="0" cy="0" r="5.217462018743172" fill="#da70dc" opacity="0.9">
  <animateMotion begin="-0.6707646186319316s" dur="10s" repeatCount="indefinite">
    <mpath xlink:href="#path12"></mpath>
  </animateMotion>
</circle><path id="path13" d="M 510.83898266167324 327.7379687569457
c 0 34.98377161106184 -8.559859011217258 10.04853014360287 -18.608389154820127 10.04853014360287
S 473.62220435203295 362.72174036800754 473.62220435203295 327.7379687569457
s 8.559859011217258 -10.04853014360287 18.608389154820127 -10.04853014360287
S 510.83898266167324 292.75419714588384 510.83898266167324 327.7379687569457
z" fill="none" stroke="none"></path>
<circle cx="0" cy="0" r="5.227134341267247" fill="#fab0fa" opacity="0.9">
  <animateMotion begin="-3.1495325853130196s" dur="10s" repeatCount="indefinite">
    <mpath xlink:href="#path13"></mpath>
  </animateMotion>
</circle><path id="path14" d="M 1193.8855676949738 477.4465126855512
c 0 25.871188350713663 -6.330184383685257 7.4310860156305205 -13.761270399315777 7.4310860156305205
S 1166.363026896342 503.3177010362649 1166.363026896342 477.4465126855512
s 6.330184383685257 -7.4310860156305205 13.761270399315777 -7.4310860156305205
S 1193.8855676949738 451.57532433483755 1193.8855676949738 477.4465126855512
z" fill="none" stroke="none"></path>
<circle cx="0" cy="0" r="6.18504377821249" fill="#a53faa" opacity="0.9">
  <animateMotion begin="-4.08674377420253s" dur="10s" repeatCount="indefinite">
    <mpath xlink:href="#path14"></mpath>
  </animateMotion>
</circle><path id="path15" d="M 1136.6592889338401 28.999134647094714
c 0 33.6702687435771 -8.23847001172631 9.671247405070018 -17.909717416796326 9.671247405070018
S 1100.8398541002473 62.66940339067181 1100.8398541002473 28.999134647094714
s 8.23847001172631 -9.671247405070018 17.909717416796326 -9.671247405070018
S 1136.6592889338401 -4.671134096482383 1136.6592889338401 28.999134647094714
z" fill="none" stroke="none"></path>
<circle cx="0" cy="0" r="5.254655098546113" fill="#da70dc" opacity="0.9">
  <animateMotion begin="-7.2825044156168754s" dur="10s" repeatCount="indefinite">
    <mpath xlink:href="#path15"></mpath>
  </animateMotion>
</circle><path id="path16" d="M 1399.626095613325 622.347780576742
c 0 30.890785818536305 -7.558383764109946 8.872885288302982 -16.431269052412926 8.872885288302982
S 1366.7635575084992 653.2385663952783 1366.7635575084992 622.347780576742
s 7.558383764109946 -8.872885288302982 16.431269052412926 -8.872885288302982
S 1399.626095613325 591.4569947582057 1399.626095613325 622.347780576742
z" fill="none" stroke="none"></path>
<circle cx="0" cy="0" r="4.645944331663453" fill="#a53faa" opacity="0.9">
  <animateMotion begin="-0.6386925761404005s" dur="10s" repeatCount="indefinite">
    <mpath xlink:href="#path16"></mpath>
  </animateMotion>
</circle><path id="path17" d="M 746.0833802925091 654.7344742090534
c 0 19.163316758729206 -4.6888966537316135 5.504356941337112 -10.193253595068725 5.504356941337112
S 725.6968731023716 673.8977909677826 725.6968731023716 654.7344742090534
s 4.6888966537316135 -5.504356941337112 10.193253595068725 -5.504356941337112
S 746.0833802925091 635.5711574503241 746.0833802925091 654.7344742090534
z" fill="none" stroke="none"></path>
<circle cx="0" cy="0" r="4.801018542626248" fill="#da70dc" opacity="0.9">
  <animateMotion begin="-2.903272062029756s" dur="10s" repeatCount="indefinite">
    <mpath xlink:href="#path17"></mpath>
  </animateMotion>
</circle><path id="path18" d="M 1378.8585175262824 87.86503006277364
c 0 27.512161759379527 -6.731699153890735 7.902429441523907 -14.63412859541464 7.902429441523907
S 1349.590260335453 115.37719182215316 1349.590260335453 87.86503006277364
s 6.731699153890735 -7.902429441523907 14.63412859541464 -7.902429441523907
S 1378.8585175262824 60.35286830339412 1378.8585175262824 87.86503006277364
z" fill="none" stroke="none"></path>
<circle cx="0" cy="0" r="5.796491572888598" fill="#74007a" opacity="0.9">
  <animateMotion begin="-6.731450876165372s" dur="10s" repeatCount="indefinite">
    <mpath xlink:href="#path18"></mpath>
  </animateMotion>
</circle><path id="path19" d="M 597.7830110365342 263.15755710388476
c 0 27.481256967128797 -6.724137343020875 7.893552533111463 -14.617689876132339 7.893552533111463
S 568.5476312842695 290.63881407101354 568.5476312842695 263.15755710388476
s 6.724137343020875 -7.893552533111463 14.617689876132339 -7.893552533111463
S 597.7830110365342 235.67630013675597 597.7830110365342 263.15755710388476
z" fill="none" stroke="none"></path>
<circle cx="0" cy="0" r="5.7087531446888375" fill="#ffe9ff" opacity="0.9">
  <animateMotion begin="-5.59390275640498s" dur="10s" repeatCount="indefinite">
    <mpath xlink:href="#path19"></mpath>
  </animateMotion>
</circle><path id="path20" d="M 1132.160868847914 488.0410717964878
c 0 21.955046851480464 -5.371979548766496 6.306236861595452 -11.678216410361948 6.306236861595452
S 1108.80443602719 509.9961186479683 1108.80443602719 488.0410717964878
s 5.371979548766496 -6.306236861595452 11.678216410361948 -6.306236861595452
S 1132.160868847914 466.08602494500735 1132.160868847914 488.0410717964878
z" fill="none" stroke="none"></path>
<circle cx="0" cy="0" r="4.9791415772889325" fill="#74007a" opacity="0.9">
  <animateMotion begin="-9.31632821396131s" dur="10s" repeatCount="indefinite">
    <mpath xlink:href="#path20"></mpath>
  </animateMotion>
</circle><path id="path21" d="M 968.3664252322912 32.80142270111671
c 0 21.087497082083953 -5.159706732850329 6.0570470342156035 -11.216753767065931 6.0570470342156035
S 945.9329176981594 53.88891978320066 945.9329176981594 32.80142270111671
s 5.159706732850329 -6.0570470342156035 11.216753767065931 -6.0570470342156035
S 968.3664252322912 11.713925619032754 968.3664252322912 32.80142270111671
z" fill="none" stroke="none"></path>
<circle cx="0" cy="0" r="5.096607382802643" fill="#a53faa" opacity="0.9">
  <animateMotion begin="-1.446322827893518s" dur="10s" repeatCount="indefinite">
    <mpath xlink:href="#path21"></mpath>
  </animateMotion>
</circle><path id="path22" d="M 1349.6630368652584 554.7834533049291
c 0 26.281881007273387 -6.430673012417955 7.54905092762108 -13.979723940039035 7.54905092762108
S 1321.7035889851802 581.0653343122025 1321.7035889851802 554.7834533049291
s 6.430673012417955 -7.54905092762108 13.979723940039035 -7.54905092762108
S 1349.6630368652584 528.5015722976558 1349.6630368652584 554.7834533049291
z" fill="none" stroke="none"></path>
<circle cx="0" cy="0" r="7.250648492681072" fill="#fab0fa" opacity="0.9">
  <animateMotion begin="-7.702180878787058s" dur="10s" repeatCount="indefinite">
    <mpath xlink:href="#path22"></mpath>
  </animateMotion>
</circle><path id="path23" d="M 675.056352483744 285.9869708549559
c 0 22.119791466413332 -5.412289401356452 6.353557123331489 -11.765846524687941 6.353557123331489
S 651.5246594343681 308.1067623213693 651.5246594343681 285.9869708549559
s 5.412289401356452 -6.353557123331489 11.765846524687941 -6.353557123331489
S 675.056352483744 263.8671793885426 675.056352483744 285.9869708549559
z" fill="none" stroke="none"></path>
<circle cx="0" cy="0" r="6.208976328432053" fill="#da70dc" opacity="0.9">
  <animateMotion begin="-5.424015084848524s" dur="10s" repeatCount="indefinite">
    <mpath xlink:href="#path23"></mpath>
  </animateMotion>
</circle><path id="path24" d="M 1352.089384068645 748.4817600904595
c 0 20.75888064044233 -5.07930058223589 5.962657205233436 -11.041957787469325 5.962657205233436
S 1330.0054684937063 769.2406407309019 1330.0054684937063 748.4817600904595
s 5.07930058223589 -5.962657205233436 11.041957787469325 -5.962657205233436
S 1352.089384068645 727.7228794500171 1352.089384068645 748.4817600904595
z" fill="none" stroke="none"></path>
<circle cx="0" cy="0" r="4.946372708830506" fill="#a53faa" opacity="0.9">
  <animateMotion begin="-9.45943226811526s" dur="10s" repeatCount="indefinite">
    <mpath xlink:href="#path24"></mpath>
  </animateMotion>
</circle><path id="path25" d="M 564.903453258931 389.00372507362414
c 0 34.18401661368255 -8.364174277815943 9.8188132826535 -18.182987560469442 9.8188132826535
S 528.5374781379921 423.1877416873067 528.5374781379921 389.00372507362414
s 8.364174277815943 -9.8188132826535 18.182987560469442 -9.8188132826535
S 564.903453258931 354.8197084599416 564.903453258931 389.00372507362414
z" fill="none" stroke="none"></path>
<circle cx="0" cy="0" r="6.361792054042285" fill="#74007a" opacity="0.9">
  <animateMotion begin="-5.221874239223199s" dur="10s" repeatCount="indefinite">
    <mpath xlink:href="#path25"></mpath>
  </animateMotion>
</circle><path id="path26" d="M 370.029071915617 429.7736143188879
c 0 34.73932604412105 -8.500047861859404 9.97831705522626 -18.478364917085663 9.97831705522626
S 333.07234208144564 464.51294036300897 333.07234208144564 429.7736143188879
s 8.500047861859404 -9.97831705522626 18.478364917085663 -9.97831705522626
S 370.029071915617 395.0342882747668 370.029071915617 429.7736143188879
z" fill="none" stroke="none"></path>
<circle cx="0" cy="0" r="4.147754164535079" fill="#a53faa" opacity="0.9">
  <animateMotion begin="-4.159748371294986s" dur="10s" repeatCount="indefinite">
    <mpath xlink:href="#path26"></mpath>
  </animateMotion>
</circle><path id="path27" d="M 1252.874110538144 719.2844476972328
c 0 26.25663573376238 -6.4244959774099435 7.541799625655152 -13.966295603065095 7.541799625655152
S 1224.9415193320135 745.5410834309953 1224.9415193320135 719.2844476972328
s 6.4244959774099435 -7.541799625655152 13.966295603065095 -7.541799625655152
S 1252.874110538144 693.0278119634704 1252.874110538144 719.2844476972328
z" fill="none" stroke="none"></path>
<circle cx="0" cy="0" r="6.249667226516708" fill="#fab0fa" opacity="0.9">
  <animateMotion begin="-1.711045633814512s" dur="10s" repeatCount="indefinite">
    <mpath xlink:href="#path27"></mpath>
  </animateMotion>
</circle><path id="path28" d="M 616.2038167141179 611.317307383558
c 0 19.38580265180982 -4.743334691400275 5.568262463817714 -10.311597155217989 5.568262463817714
S 595.5806224036819 630.7031100353679 595.5806224036819 611.317307383558
s 4.743334691400275 -5.568262463817714 10.311597155217989 -5.568262463817714
S 616.2038167141179 591.9315047317482 616.2038167141179 611.317307383558
z" fill="none" stroke="none"></path>
<circle cx="0" cy="0" r="7.737521238482746" fill="#da70dc" opacity="0.9">
  <animateMotion begin="-1.3448959613611389s" dur="10s" repeatCount="indefinite">
    <mpath xlink:href="#path28"></mpath>
  </animateMotion>
</circle><path id="path29" d="M 44.17496030235486 333.52941851691753
c 0 19.345445151749818 -4.7334599839387845 5.5566704159281395 -10.290130399866923 5.5566704159281395
S 23.594699502621012 352.87486366866733 23.594699502621012 333.52941851691753
s 4.7334599839387845 -5.5566704159281395 10.290130399866923 -5.5566704159281395
S 44.17496030235486 314.18397336516773 44.17496030235486 333.52941851691753
z" fill="none" stroke="none"></path>
<circle cx="0" cy="0" r="7.795666432117216" fill="#74007a" opacity="0.9">
  <animateMotion begin="-0.023764860351613848s" dur="10s" repeatCount="indefinite">
    <mpath xlink:href="#path29"></mpath>
  </animateMotion>
</circle><path id="path30" d="M 905.3727476988499 466.6973348625169
c 0 20.107038130358475 -4.919807202108988 5.77542584595403 -10.695233048063017 5.77542584595403
S 883.9822816027238 486.8043729928754 883.9822816027238 466.6973348625169
s 4.919807202108988 -5.77542584595403 10.695233048063017 -5.77542584595403
S 905.3727476988499 446.59029673215844 905.3727476988499 466.6973348625169
z" fill="none" stroke="none"></path>
<circle cx="0" cy="0" r="4.545863700156947" fill="#a53faa" opacity="0.9">
  <animateMotion begin="-5.759800174879864s" dur="10s" repeatCount="indefinite">
    <mpath xlink:href="#path30"></mpath>
  </animateMotion>
</circle><path id="path31" d="M 444.6912471545229 340.4120034247985
c 0 27.75322661694196 -6.790683108400691 7.971671475079074 -14.762354583479764 7.971671475079074
S 415.1665379875634 368.1652300417405 415.1665379875634 340.4120034247985
s 6.790683108400691 -7.971671475079074 14.762354583479764 -7.971671475079074
S 444.6912471545229 312.65877680785655 444.6912471545229 340.4120034247985
z" fill="none" stroke="none"></path>
<circle cx="0" cy="0" r="5.9406219413063726" fill="#74007a" opacity="0.9">
  <animateMotion begin="-7.55412326334612s" dur="10s" repeatCount="indefinite">
    <mpath xlink:href="#path31"></mpath>
  </animateMotion>
</circle><path id="path32" d="M 1012.7122375024493 306.2739705326299
c 0 20.59404843534543 -5.038969298010052 5.915311784620497 -10.954281082630548 5.915311784620497
S 990.8036753371881 326.86801896797533 990.8036753371881 306.2739705326299
s 5.038969298010052 -5.915311784620497 10.954281082630548 -5.915311784620497
S 1012.7122375024493 285.6799220972845 1012.7122375024493 306.2739705326299
z" fill="none" stroke="none"></path>
<circle cx="0" cy="0" r="4.245491202357855" fill="#da70dc" opacity="0.9">
  <animateMotion begin="-4.598270226887681s" dur="10s" repeatCount="indefinite">
    <mpath xlink:href="#path32"></mpath>
  </animateMotion>
</circle><path id="path33" d="M 723.8795919800228 262.56612707268744
c 0 35.296432561440284 -8.636361158650281 10.138337012328593 -18.774698170978873 10.138337012328593
S 686.330195638065 297.8625596341277 686.330195638065 262.56612707268744
s 8.636361158650281 -10.138337012328593 18.774698170978873 -10.138337012328593
S 723.8795919800228 227.26969451124717 723.8795919800228 262.56612707268744
z" fill="none" stroke="none"></path>
<circle cx="0" cy="0" r="4.947479589096368" fill="#74007a" opacity="0.9">
  <animateMotion begin="-6.02806293606434s" dur="10s" repeatCount="indefinite">
    <mpath xlink:href="#path33"></mpath>
  </animateMotion>
</circle><path id="path34" d="M 1243.9549602807192 262.43748778131896
c 0 28.297261492258222 -6.923798024701479 8.127936811606085 -15.051734836307563 8.127936811606085
S 1213.851490608104 290.73474927357717 1213.851490608104 262.43748778131896
s 6.923798024701479 -8.127936811606085 15.051734836307563 -8.127936811606085
S 1243.9549602807192 234.14022628906073 1243.9549602807192 262.43748778131896
z" fill="none" stroke="none"></path>
<circle cx="0" cy="0" r="6.643088043995968" fill="#fab0fa" opacity="0.9">
  <animateMotion begin="-4.307987077452662s" dur="10s" repeatCount="indefinite">
    <mpath xlink:href="#path34"></mpath>
  </animateMotion>
</circle><path id="path35" d="M 658.1760268689967 102.95829251329975
c 0 36.91827862543201 -9.0331958338823 10.604186413687918 -19.637382247570216 10.604186413687918
S 618.9012623738562 139.87657113873178 618.9012623738562 102.95829251329975
s 9.0331958338823 -10.604186413687918 19.637382247570216 -10.604186413687918
S 658.1760268689967 66.04001388786774 658.1760268689967 102.95829251329975
z" fill="none" stroke="none"></path>
<circle cx="0" cy="0" r="5.902828820160945" fill="#fab0fa" opacity="0.9">
  <animateMotion begin="-4.495020072012437s" dur="10s" repeatCount="indefinite">
    <mpath xlink:href="#path35"></mpath>
  </animateMotion>
</circle><path id="path36" d="M 400.2520819019871 223.6566968572162
c 0 37.09333166522592 -9.076027960640383 10.654467605969147 -19.73049556660953 10.654467605969147
S 360.791090768768 260.7500285224421 360.791090768768 223.6566968572162
s 9.076027960640383 -10.654467605969147 19.73049556660953 -10.654467605969147
S 400.2520819019871 186.56336519199027 400.2520819019871 223.6566968572162
z" fill="none" stroke="none"></path>
<circle cx="0" cy="0" r="4.777680121893966" fill="#a53faa" opacity="0.9">
  <animateMotion begin="-9.150043584109643s" dur="10s" repeatCount="indefinite">
    <mpath xlink:href="#path36"></mpath>
  </animateMotion>
</circle><path id="path37" d="M 353.1399275147749 660.7035469359957
c 0 27.23199049500787 -6.6631466104806485 7.821954716651198 -14.485101327131847 7.821954716651198
S 324.16972486051117 687.9355374310036 324.16972486051117 660.7035469359957
s 6.6631466104806485 -7.821954716651198 14.485101327131847 -7.821954716651198
S 353.1399275147749 633.4715564409879 353.1399275147749 660.7035469359957
z" fill="none" stroke="none"></path>
<circle cx="0" cy="0" r="7.5936237655051" fill="#ffe9ff" opacity="0.9">
  <animateMotion begin="-1.4971158240730098s" dur="10s" repeatCount="indefinite">
    <mpath xlink:href="#path37"></mpath>
  </animateMotion>
</circle><path id="path38" d="M 266.516411251349 420.5848817613597
c 0 35.834538985048205 -8.768025496341581 10.292899495705337 -19.060924992046917 10.292899495705337
S 228.39456126725514 456.4194207464079 228.39456126725514 420.5848817613597
s 8.768025496341581 -10.292899495705337 19.060924992046917 -10.292899495705337
S 266.516411251349 384.7503427763115 266.516411251349 420.5848817613597
z" fill="none" stroke="none"></path>
<circle cx="0" cy="0" r="6.589861475672471" fill="#a53faa" opacity="0.9">
  <animateMotion begin="-4.4457576569644885s" dur="10s" repeatCount="indefinite">
    <mpath xlink:href="#path38"></mpath>
  </animateMotion>
</circle><path id="path39" d="M 981.1805789858198 82.10028460144797
c 0 21.05649507413344 -5.152121135160309 6.048142202144712 -11.20026333730502 6.048142202144712
S 958.7800523112097 103.1567796755814 958.7800523112097 82.10028460144797
s 5.152121135160309 -6.048142202144712 11.20026333730502 -6.048142202144712
S 981.1805789858198 61.04378952731453 981.1805789858198 82.10028460144797
z" fill="none" stroke="none"></path>
<circle cx="0" cy="0" r="7.9040395050115615" fill="#a53faa" opacity="0.9">
  <animateMotion begin="-9.829184187213077s" dur="10s" repeatCount="indefinite">
    <mpath xlink:href="#path39"></mpath>
  </animateMotion>
</circle><path id="path40" d="M 1106.4142573233903 617.237808703585
c 0 26.242018771441682 -6.420919486629347 7.537601136477931 -13.958520623107278 7.537601136477931
S 1078.4972160771758 643.4798274750267 1078.4972160771758 617.237808703585
s 6.420919486629347 -7.537601136477931 13.958520623107278 -7.537601136477931
S 1106.4142573233903 590.9957899321432 1106.4142573233903 617.237808703585
z" fill="none" stroke="none"></path>
<circle cx="0" cy="0" r="6.663036131851818" fill="#fab0fa" opacity="0.9">
  <animateMotion begin="-0.018398808116961707s" dur="10s" repeatCount="indefinite">
    <mpath xlink:href="#path40"></mpath>
  </animateMotion>
</circle><path id="path41" d="M 1097.8168838144593 445.40062994398716
c 0 31.354384161344395 -7.67181740118001 9.006046514428709 -16.677863915608718 9.006046514428709
S 1064.461155983242 476.75501410533155 1064.461155983242 445.40062994398716
s 7.67181740118001 -9.006046514428709 16.677863915608718 -9.006046514428709
S 1097.8168838144593 414.04624578264276 1097.8168838144593 445.40062994398716
z" fill="none" stroke="none"></path>
<circle cx="0" cy="0" r="4.5523442737166375" fill="#a53faa" opacity="0.9">
  <animateMotion begin="-5.404267128359179s" dur="10s" repeatCount="indefinite">
    <mpath xlink:href="#path41"></mpath>
  </animateMotion>
</circle><path id="path42" d="M 1069.0429866287423 81.6556617368929
c 0 29.119431702963997 -7.124967331576296 8.364092084893914 -15.48905941647021 8.364092084893914
S 1038.064867795802 110.77509343985689 1038.064867795802 81.6556617368929
s 7.124967331576296 -8.364092084893914 15.48905941647021 -8.364092084893914
S 1069.0429866287423 52.5362300339289 1069.0429866287423 81.6556617368929
z" fill="none" stroke="none"></path>
<circle cx="0" cy="0" r="5.9633606444486995" fill="#fab0fa" opacity="0.9">
  <animateMotion begin="-5.624058456653122s" dur="10s" repeatCount="indefinite">
    <mpath xlink:href="#path42"></mpath>
  </animateMotion>
</circle><path id="path43" d="M 1221.9118085649907 293.579571144217
c 0 36.210436468244765 -8.860000412442867 10.400870049389455 -19.260870461832322 10.400870049389455
S 1183.390067641326 329.7900076124618 1183.390067641326 293.579571144217
s 8.860000412442867 -10.400870049389455 19.260870461832322 -10.400870049389455
S 1221.9118085649907 257.36913467597225 1221.9118085649907 293.579571144217
z" fill="none" stroke="none"></path>
<circle cx="0" cy="0" r="4.463955088887605" fill="#ffe9ff" opacity="0.9">
  <animateMotion begin="-0.9321303582483487s" dur="10s" repeatCount="indefinite">
    <mpath xlink:href="#path43"></mpath>
  </animateMotion>
</circle><path id="path44" d="M 88.77022474929086 590.4792014782424
c 0 23.092482797524916 -5.650288344075245 6.632947186523115 -12.28323553059836 6.632947186523115
S 64.20375368809414 613.5716842757673 64.20375368809414 590.4792014782424
s 5.650288344075245 -6.632947186523115 12.28323553059836 -6.632947186523115
S 88.77022474929086 567.3867186807175 88.77022474929086 590.4792014782424
z" fill="none" stroke="none"></path>
<circle cx="0" cy="0" r="7.674047843922011" fill="#da70dc" opacity="0.9">
  <animateMotion begin="-4.650596053381014s" dur="10s" repeatCount="indefinite">
    <mpath xlink:href="#path44"></mpath>
  </animateMotion>
</circle><path id="path45" d="M 663.7469547234632 137.02464451633503
c 0 19.682172791919214 -4.815850789512147 5.653390057253392 -10.46924084676554 5.653390057253392
S 642.8084730299322 156.70681730825424 642.8084730299322 137.02464451633503
s 4.815850789512147 -5.653390057253392 10.46924084676554 -5.653390057253392
S 663.7469547234632 117.34247172441582 663.7469547234632 137.02464451633503
z" fill="none" stroke="none"></path>
<circle cx="0" cy="0" r="7.927575835793854" fill="#ffe9ff" opacity="0.9">
  <animateMotion begin="-2.410635215148489s" dur="10s" repeatCount="indefinite">
    <mpath xlink:href="#path45"></mpath>
  </animateMotion>
</circle><path id="path46" d="M 1428.6243338114716 251.3272786942742
c 0 22.80018245088297 -5.578768046492641 6.548988576317449 -12.127756622810091 6.548988576317449
S 1404.3688205658516 274.1274611451572 1404.3688205658516 251.3272786942742
s 5.578768046492641 -6.548988576317449 12.127756622810091 -6.548988576317449
S 1428.6243338114716 228.52709624339124 1428.6243338114716 251.3272786942742
z" fill="none" stroke="none"></path>
<circle cx="0" cy="0" r="5.982589013632543" fill="#da70dc" opacity="0.9">
  <animateMotion begin="-8.468083690442318s" dur="10s" repeatCount="indefinite">
    <mpath xlink:href="#path46"></mpath>
  </animateMotion>
</circle><path id="path47" d="M 100.56767149025333 505.98946676672443
c 0 33.53683821355441 -8.20582211608246 9.632921614531586 -17.838743730614045 9.632921614531586
S 64.89018402902525 539.5263049802788 64.89018402902525 505.98946676672443
s 8.20582211608246 -9.632921614531586 17.838743730614045 -9.632921614531586
S 100.56767149025333 472.45262855317003 100.56767149025333 505.98946676672443
z" fill="none" stroke="none"></path>
<circle cx="0" cy="0" r="4.803950527298637" fill="#ffe9ff" opacity="0.9">
  <animateMotion begin="-7.796642093283177s" dur="10s" repeatCount="indefinite">
    <mpath xlink:href="#path47"></mpath>
  </animateMotion>
</circle><path id="path48" d="M 358.1964827255769 617.5924257082961
c 0 26.667107459267275 -6.52493054854412 7.659701078725706 -14.184631627269827 7.659701078725706
S 329.82721947103727 644.2595331675634 329.82721947103727 617.5924257082961
s 6.52493054854412 -7.659701078725706 14.184631627269827 -7.659701078725706
S 358.1964827255769 590.9253182490288 358.1964827255769 617.5924257082961
z" fill="none" stroke="none"></path>
<circle cx="0" cy="0" r="7.7605184931895215" fill="#a53faa" opacity="0.9">
  <animateMotion begin="-3.9752835874919112s" dur="10s" repeatCount="indefinite">
    <mpath xlink:href="#path48"></mpath>
  </animateMotion>
</circle><path id="path49" d="M 761.6086284441151 390.740116706376
c 0 25.376921636959395 -6.2092467835113405 7.289115789339401 -13.498362572850741 7.289115789339401
S 734.6119032984136 416.11703834333537 734.6119032984136 390.740116706376
s 6.2092467835113405 -7.289115789339401 13.498362572850741 -7.289115789339401
S 761.6086284441151 365.36319506941663 761.6086284441151 390.740116706376
z" fill="none" stroke="none"></path>
<circle cx="0" cy="0" r="5.187837256111057" fill="#da70dc" opacity="0.9">
  <animateMotion begin="-0.9556757034090779s" dur="10s" repeatCount="indefinite">
    <mpath xlink:href="#path49"></mpath>
  </animateMotion>
</circle><path id="path50" d="M 263.7028327716756 534.857246093258
c 0 36.02150356126224 -8.81377214796842 10.34660208674554 -19.16037423471396 10.34660208674554
S 225.3820843022477 570.8787496545202 225.3820843022477 534.857246093258
s 8.81377214796842 -10.34660208674554 19.16037423471396 -10.34660208674554
S 263.7028327716756 498.8357425319958 263.7028327716756 534.857246093258
z" fill="none" stroke="none"></path>
<circle cx="0" cy="0" r="4.559553150610003" fill="#da70dc" opacity="0.9">
  <animateMotion begin="-6.4960922441557845s" dur="10s" repeatCount="indefinite">
    <mpath xlink:href="#path50"></mpath>
  </animateMotion>
</circle><path id="path51" d="M 851.6336691050433 451.97432052662833
c 0 37.48403170086778 -9.171624777871902 10.766689956632234 -19.938314734504136 10.766689956632234
S 811.757039636035 489.4583522274961 811.757039636035 451.97432052662833
s 9.171624777871902 -10.766689956632234 19.938314734504136 -10.766689956632234
S 851.6336691050433 414.49028882576056 851.6336691050433 451.97432052662833
z" fill="none" stroke="none"></path>
<circle cx="0" cy="0" r="7.3914812293262795" fill="#74007a" opacity="0.9">
  <animateMotion begin="-4.6983676779075285s" dur="10s" repeatCount="indefinite">
    <mpath xlink:href="#path51"></mpath>
  </animateMotion>
</circle><path id="path52" d="M 360.1492541567999 108.75893414094654
c 0 25.31435011340655 -6.193936729876071 7.271143117680605 -13.465079847556677 7.271143117680605
S 333.2190944616865 134.0732842543531 333.2190944616865 108.75893414094654
s 6.193936729876071 -7.271143117680605 13.465079847556677 -7.271143117680605
S 360.1492541567999 83.44458402753999 360.1492541567999 108.75893414094654
z" fill="none" stroke="none"></path>
<circle cx="0" cy="0" r="4.689992879441494" fill="#74007a" opacity="0.9">
  <animateMotion begin="-9.823521246189973s" dur="10s" repeatCount="indefinite">
    <mpath xlink:href="#path52"></mpath>
  </animateMotion>
</circle><path id="path53" d="M 390.8778854116901 216.2085009182714
c 0 22.84085753535519 -5.588720460778397 6.560671845261598 -12.149392306039994 6.560671845261598
S 366.5791007996101 239.04935845362658 366.5791007996101 216.2085009182714
s 5.588720460778397 -6.560671845261598 12.149392306039994 -6.560671845261598
S 390.8778854116901 193.3676433829162 390.8778854116901 216.2085009182714
z" fill="none" stroke="none"></path>
<circle cx="0" cy="0" r="6.063907072459059" fill="#da70dc" opacity="0.9">
  <animateMotion begin="-7.3473199976378645s" dur="10s" repeatCount="indefinite">
    <mpath xlink:href="#path53"></mpath>
  </animateMotion>
</circle><path id="path54" d="M 1243.9219506272984 654.38145671653
c 0 25.23700355853169 -6.175011509002434 7.248926554046337 -13.42393806304877 7.248926554046337
S 1217.0740745012008 679.6184602750617 1217.0740745012008 654.38145671653
s 6.175011509002434 -7.248926554046337 13.42393806304877 -7.248926554046337
S 1243.9219506272984 629.1444531579983 1243.9219506272984 654.38145671653
z" fill="none" stroke="none"></path>
<circle cx="0" cy="0" r="4.335692574080605" fill="#fab0fa" opacity="0.9">
  <animateMotion begin="-9.818590838209795s" dur="10s" repeatCount="indefinite">
    <mpath xlink:href="#path54"></mpath>
  </animateMotion>
</circle><path id="path55" d="M 460.95589388648096 438.9278781854231
c 0 36.57601080488289 -8.949449452258579 10.505875443955725 -19.455324896214304 10.505875443955725
S 422.0452440940524 475.503888990306 422.0452440940524 438.9278781854231
s 8.949449452258579 -10.505875443955725 19.455324896214304 -10.505875443955725
S 460.95589388648096 402.35186738054017 460.95589388648096 438.9278781854231
z" fill="none" stroke="none"></path>
<circle cx="0" cy="0" r="7.9810692847660345" fill="#fab0fa" opacity="0.9">
  <animateMotion begin="-2.776066786502469s" dur="10s" repeatCount="indefinite">
    <mpath xlink:href="#path55"></mpath>
  </animateMotion>
</circle><path id="path56" d="M 243.59569265661708 689.6649354778814
c 0 35.17133269273884 -8.605751616308437 10.102404071318603 -18.70815568762704 10.102404071318603
S 206.17938128136302 724.8362681706202 206.17938128136302 689.6649354778814
s 8.605751616308437 -10.102404071318603 18.70815568762704 -10.102404071318603
S 243.59569265661708 654.4936027851426 243.59569265661708 689.6649354778814
z" fill="none" stroke="none"></path>
<circle cx="0" cy="0" r="7.165256749991384" fill="#ffe9ff" opacity="0.9">
  <animateMotion begin="-4.962877908505671s" dur="10s" repeatCount="indefinite">
    <mpath xlink:href="#path56"></mpath>
  </animateMotion>
</circle><path id="path57" d="M 1340.5330641897858 305.27336123047525
c 0 34.468528061612375 -8.433788781032813 9.900534655995044 -18.33432343702786 9.900534655995044
S 1303.86441731573 339.74188929208765 1303.86441731573 305.27336123047525
s 8.433788781032813 -9.900534655995044 18.33432343702786 -9.900534655995044
S 1340.5330641897858 270.80483316886284 1340.5330641897858 305.27336123047525
z" fill="none" stroke="none"></path>
<circle cx="0" cy="0" r="5.04364314594251" fill="#fab0fa" opacity="0.9">
  <animateMotion begin="-3.1165978663378824s" dur="10s" repeatCount="indefinite">
    <mpath xlink:href="#path57"></mpath>
  </animateMotion>
</circle><path id="path58" d="M 316.14756976067775 753.712432478954
c 0 20.418644969633377 -4.99605142874008 5.864929938086183 -10.860981366826262 5.864929938086183
S 294.42560702702525 774.1310774485875 294.42560702702525 753.712432478954
s 4.99605142874008 -5.864929938086183 10.860981366826262 -5.864929938086183
S 316.14756976067775 733.2937875093206 316.14756976067775 753.712432478954
z" fill="none" stroke="none"></path>
<circle cx="0" cy="0" r="4.968592308266146" fill="#a53faa" opacity="0.9">
  <animateMotion begin="-7.823138263839599s" dur="10s" repeatCount="indefinite">
    <mpath xlink:href="#path58"></mpath>
  </animateMotion>
</circle><path id="path59" d="M 717.3082339985178 37.85571618336392
c 0 32.50095178023975 -7.952360541973556 9.33537976666461 -17.287740308638167 9.33537976666461
S 682.7327533812415 70.35666796360367 682.7327533812415 37.85571618336392
s 7.952360541973556 -9.33537976666461 17.287740308638167 -9.33537976666461
S 717.3082339985178 5.354764403124165 717.3082339985178 37.85571618336392
z" fill="none" stroke="none"></path>
<circle cx="0" cy="0" r="4.882300594039215" fill="#74007a" opacity="0.9">
  <animateMotion begin="-0.9470169932440076s" dur="10s" repeatCount="indefinite">
    <mpath xlink:href="#path59"></mpath>
  </animateMotion>
</circle><path id="path60" d="M 937.2643564506423 226.45411909839686
c 0 31.692996581782495 -7.754669376393588 9.103307528809866 -16.857976905203454 9.103307528809866
S 903.5484026402353 258.14711568017935 903.5484026402353 226.45411909839686
s 7.754669376393588 -9.103307528809866 16.857976905203454 -9.103307528809866
S 937.2643564506423 194.76112251661436 937.2643564506423 226.45411909839686
z" fill="none" stroke="none"></path>
<circle cx="0" cy="0" r="7.707219777867998" fill="#ffe9ff" opacity="0.9">
  <animateMotion begin="-5.016931804734643s" dur="10s" repeatCount="indefinite">
    <mpath xlink:href="#path60"></mpath>
  </animateMotion>
</circle><path id="path61" d="M 799.8962014603457 668.709325368613
c 0 32.610753976398385 -7.979227036778327 9.366918695348472 -17.3461457321268 9.366918695348472
S 765.203909996092 701.3200793450114 765.203909996092 668.709325368613
s 7.979227036778327 -9.366918695348472 17.3461457321268 -9.366918695348472
S 799.8962014603457 636.0985713922146 799.8962014603457 668.709325368613
z" fill="none" stroke="none"></path>
<circle cx="0" cy="0" r="6.945244197111756" fill="#74007a" opacity="0.9">
  <animateMotion begin="-2.1514754027847816s" dur="10s" repeatCount="indefinite">
    <mpath xlink:href="#path61"></mpath>
  </animateMotion>
</circle><path id="path62" d="M 1050.400434912902 461.5868653971189
c 0 34.537149092491696 -8.450579033269245 9.92024495209868 -18.370823985367924 9.92024495209868
S 1013.6587869421662 496.1240144896106 1013.6587869421662 461.5868653971189
s 8.450579033269245 -9.92024495209868 18.370823985367924 -9.92024495209868
S 1050.400434912902 427.0497163046272 1050.400434912902 461.5868653971189
z" fill="none" stroke="none"></path>
<circle cx="0" cy="0" r="6.7302404458272" fill="#a53faa" opacity="0.9">
  <animateMotion begin="-6.627177641970501s" dur="10s" repeatCount="indefinite">
    <mpath xlink:href="#path62"></mpath>
  </animateMotion>
</circle><path id="path63" d="M 1297.0722323430982 444.1244169983795
c 0 36.35096890368255 -8.894386008347857 10.441235748930096 -19.335621757277952 10.441235748930096
S 1258.4009888285423 480.47538590206204 1258.4009888285423 444.1244169983795
s 8.894386008347857 -10.441235748930096 19.335621757277952 -10.441235748930096
S 1297.0722323430982 407.77344809469696 1297.0722323430982 444.1244169983795
z" fill="none" stroke="none"></path>
<circle cx="0" cy="0" r="4.0694244936201605" fill="#a53faa" opacity="0.9">
  <animateMotion begin="-6.817687585386238s" dur="10s" repeatCount="indefinite">
    <mpath xlink:href="#path63"></mpath>
  </animateMotion>
</circle><path id="path64" d="M 450.56988880583424 722.6150873332182
c 0 28.76675693720048 -7.038674569740542 8.26279188621716 -15.301466455957701 8.26279188621716
S 419.9669558939188 751.3818442704187 419.9669558939188 722.6150873332182
s 7.038674569740542 -8.26279188621716 15.301466455957701 -8.26279188621716
S 450.56988880583424 693.8483303960177 450.56988880583424 722.6150873332182
z" fill="none" stroke="none"></path>
<circle cx="0" cy="0" r="7.758021587152146" fill="#fab0fa" opacity="0.9">
  <animateMotion begin="-3.5819232168342374s" dur="10s" repeatCount="indefinite">
    <mpath xlink:href="#path64"></mpath>
  </animateMotion>
</circle><path id="path65" d="M 630.2424472973003 525.4596738708796
c 0 19.726001730522324 -4.826574891510781 5.665979220469178 -10.49255411197996 5.665979220469178
S 609.2573390733403 545.1856756014018 609.2573390733403 525.4596738708796
s 4.826574891510781 -5.665979220469178 10.49255411197996 -5.665979220469178
S 630.2424472973003 505.7336721403572 630.2424472973003 525.4596738708796
z" fill="none" stroke="none"></path>
<circle cx="0" cy="0" r="4.675387898451937" fill="#ffe9ff" opacity="0.9">
  <animateMotion begin="-6.932811085021758s" dur="10s" repeatCount="indefinite">
    <mpath xlink:href="#path65"></mpath>
  </animateMotion>
</circle><path id="path66" d="M 1020.3541171382923 281.44166860002747
c 0 28.46204908402274 -6.96411839289918 8.175269417751213 -15.139387810650394 8.175269417751213
S 990.0753415169914 309.9037176840502 990.0753415169914 281.44166860002747
s 6.96411839289918 -8.175269417751213 15.139387810650394 -8.175269417751213
S 1020.3541171382923 252.97961951600473 1020.3541171382923 281.44166860002747
z" fill="none" stroke="none"></path>
<circle cx="0" cy="0" r="7.195513807049981" fill="#ffe9ff" opacity="0.9">
  <animateMotion begin="-5.19735574892203s" dur="10s" repeatCount="indefinite">
    <mpath xlink:href="#path66"></mpath>
  </animateMotion>
</circle><path id="path67" d="M 735.4261949446384 709.5516914565934
c 0 33.868872905968246 -8.287064647204994 9.728293281501518 -18.015357928706514 9.728293281501518
S 699.3954790872253 743.4205643625617 699.3954790872253 709.5516914565934
s 8.287064647204994 -9.728293281501518 18.015357928706514 -9.728293281501518
S 735.4261949446384 675.6828185506251 735.4261949446384 709.5516914565934
z" fill="none" stroke="none"></path>
<circle cx="0" cy="0" r="6.037119386748908" fill="#a53faa" opacity="0.9">
  <animateMotion begin="-0.9479851189599309s" dur="10s" repeatCount="indefinite">
    <mpath xlink:href="#path67"></mpath>
  </animateMotion>
</circle><path id="path68" d="M 109.90742037773298 266.24138010360997
c 0 27.474285395792247 -6.722431533012996 7.891550060493517 -14.613981593506512 7.891550060493517
S 80.67945719071996 293.71566549940223 80.67945719071996 266.24138010360997
s 6.722431533012996 -7.891550060493517 14.613981593506512 -7.891550060493517
S 109.90742037773298 238.76709470781773 109.90742037773298 266.24138010360997
z" fill="none" stroke="none"></path>
<circle cx="0" cy="0" r="6.806666962084025" fill="#a53faa" opacity="0.9">
  <animateMotion begin="-3.9319982992000457s" dur="10s" repeatCount="indefinite">
    <mpath xlink:href="#path68"></mpath>
  </animateMotion>
</circle><path id="path69" d="M 1327.2195237929536 251.07005442230422
c 0 22.13733563857709 -5.416582124332692 6.358596406825335 -11.775178531158026 6.358596406825335
S 1303.6691667306377 273.2073900608813 1303.6691667306377 251.07005442230422
s 5.416582124332692 -6.358596406825335 11.775178531158026 -6.358596406825335
S 1327.2195237929536 228.93271878372713 1327.2195237929536 251.07005442230422
z" fill="none" stroke="none"></path>
<circle cx="0" cy="0" r="5.352584586160213" fill="#fab0fa" opacity="0.9">
  <animateMotion begin="-1.995481887094488s" dur="10s" repeatCount="indefinite">
    <mpath xlink:href="#path69"></mpath>
  </animateMotion>
</circle><path id="path70" d="M 1210.6956104794042 541.8027918100237
c 0 36.46731799395025 -8.92285440277506 10.474655168475072 -19.397509571250133 10.474655168475072
S 1171.900591336904 578.2701098039739 1171.900591336904 541.8027918100237
s 8.92285440277506 -10.474655168475072 19.397509571250133 -10.474655168475072
S 1210.6956104794042 505.33547381607343 1210.6956104794042 541.8027918100237
z" fill="none" stroke="none"></path>
<circle cx="0" cy="0" r="7.0790168509143045" fill="#74007a" opacity="0.9">
  <animateMotion begin="-5.7424091819882195s" dur="10s" repeatCount="indefinite">
    <mpath xlink:href="#path70"></mpath>
  </animateMotion>
</circle><path id="path71" d="M 317.72318079475286 708.3803480249343
c 0 30.671465370395744 -7.5047202502032135 8.809888989368991 -16.314609239572203 8.809888989368991
S 285.0939623156085 739.05181339533 285.0939623156085 708.3803480249343
s 7.5047202502032135 -8.809888989368991 16.314609239572203 -8.809888989368991
S 317.72318079475286 677.7088826545386 317.72318079475286 708.3803480249343
z" fill="none" stroke="none"></path>
<circle cx="0" cy="0" r="5.097656102159492" fill="#fab0fa" opacity="0.9">
  <animateMotion begin="-2.143884797883684s" dur="10s" repeatCount="indefinite">
    <mpath xlink:href="#path71"></mpath>
  </animateMotion>
</circle><path id="path72" d="M 1368.3954827376297 101.47750829112286
c 0 27.906580124479735 -6.828205775138658 8.01571982298886 -14.84392559812752 8.01571982298886
S 1338.7076315413747 129.3840884156026 1338.7076315413747 101.47750829112286
s 6.828205775138658 -8.01571982298886 14.84392559812752 -8.01571982298886
S 1368.3954827376297 73.57092816664313 1368.3954827376297 101.47750829112286
z" fill="none" stroke="none"></path>
<circle cx="0" cy="0" r="7.101022646019039" fill="#fab0fa" opacity="0.9">
  <animateMotion begin="-5.968074158289111s" dur="10s" repeatCount="indefinite">
    <mpath xlink:href="#path72"></mpath>
  </animateMotion>
</circle><path id="path73" d="M 832.3135484832715 140.47057649154647
c 0 27.830050878830978 -6.809480534182047 7.993738018387622 -14.803218552569668 7.993738018387622
S 802.7071113781321 168.30062737037744 802.7071113781321 140.47057649154647
s 6.809480534182047 -7.993738018387622 14.803218552569668 -7.993738018387622
S 832.3135484832715 112.64052561271549 832.3135484832715 140.47057649154647
z" fill="none" stroke="none"></path>
<circle cx="0" cy="0" r="5.059418958470335" fill="#ffe9ff" opacity="0.9">
  <animateMotion begin="-2.5041568164065775s" dur="10s" repeatCount="indefinite">
    <mpath xlink:href="#path73"></mpath>
  </animateMotion>
</circle><path id="path74" d="M 1296.2885864525404 183.67650288710985
c 0 28.40112585592766 -6.94921164559932 8.157770192660072 -15.106981838259392 8.157770192660072
S 1266.0746227760217 212.0776287430375 1266.0746227760217 183.67650288710985
s 6.94921164559932 -8.157770192660072 15.106981838259392 -8.157770192660072
S 1296.2885864525404 155.2753770311822 1296.2885864525404 183.67650288710985
z" fill="none" stroke="none"></path>
<circle cx="0" cy="0" r="5.53438038350275" fill="#74007a" opacity="0.9">
  <animateMotion begin="-3.5157829787768202s" dur="10s" repeatCount="indefinite">
    <mpath xlink:href="#path74"></mpath>
  </animateMotion>
</circle><path id="path75" d="M 406.2557103929319 434.976761030844
c 0 25.84913053854102 -6.3247872594302486 7.424750261070293 -13.74953752050054 7.424750261070293
S 378.7566353519308 460.825891569385 378.7566353519308 434.976761030844
s 6.3247872594302486 -7.424750261070293 13.74953752050054 -7.424750261070293
S 406.2557103929319 409.12763049230296 406.2557103929319 434.976761030844
z" fill="none" stroke="none"></path>
<circle cx="0" cy="0" r="7.375822240197735" fill="#ffe9ff" opacity="0.9">
  <animateMotion begin="-6.803597685304168s" dur="10s" repeatCount="indefinite">
    <mpath xlink:href="#path75"></mpath>
  </animateMotion>
</circle><path id="path76" d="M 257.0369204359462 155.75879843228893
c 0 21.488041521845005 -5.257712287259948 6.172097032870374 -11.429809320130321 6.172097032870374
S 234.17730179568554 177.24683995413392 234.17730179568554 155.75879843228893
s 5.257712287259948 -6.172097032870374 11.429809320130321 -6.172097032870374
S 257.0369204359462 134.27075691044394 257.0369204359462 155.75879843228893
z" fill="none" stroke="none"></path>
<circle cx="0" cy="0" r="5.473851671844413" fill="#fab0fa" opacity="0.9">
  <animateMotion begin="-4.197904400472741s" dur="10s" repeatCount="indefinite">
    <mpath xlink:href="#path76"></mpath>
  </animateMotion>
</circle><path id="path77" d="M 1100.3035098972146 463.9376264909204
c 0 30.562435128991915 -7.47804263794483 8.778571792370018 -16.256614430314848 8.778571792370018
S 1067.790281036585 494.50006161991234 1067.790281036585 463.9376264909204
s 7.47804263794483 -8.778571792370018 16.256614430314848 -8.778571792370018
S 1100.3035098972146 433.3751913619285 1100.3035098972146 463.9376264909204
z" fill="none" stroke="none"></path>
<circle cx="0" cy="0" r="5.520758500739828" fill="#da70dc" opacity="0.9">
  <animateMotion begin="-2.8610230248568502s" dur="10s" repeatCount="indefinite">
    <mpath xlink:href="#path77"></mpath>
  </animateMotion>
</circle><path id="path78" d="M 931.7666056138728 565.9639987475757
c 0 23.277553334925273 -5.695571560673204 6.68610574513811 -12.381677305811314 6.68610574513811
S 907.0032510022502 589.241552082501 907.0032510022502 565.9639987475757
s 5.695571560673204 -6.68610574513811 12.381677305811314 -6.68610574513811
S 931.7666056138728 542.6864454126504 931.7666056138728 565.9639987475757
z" fill="none" stroke="none"></path>
<circle cx="0" cy="0" r="6.728804322911491" fill="#ffe9ff" opacity="0.9">
  <animateMotion begin="-4.644012969863525s" dur="10s" repeatCount="indefinite">
    <mpath xlink:href="#path78"></mpath>
  </animateMotion>
</circle><path id="path79" d="M 1074.5547186668057 654.6258490833787
c 0 20.941284285884546 -5.123931261439835 6.015049741690242 -11.138981003130077 6.015049741690242
S 1052.2767566605455 675.5671333692633 1052.2767566605455 654.6258490833787
s 5.123931261439835 -6.015049741690242 11.138981003130077 -6.015049741690242
S 1074.5547186668057 633.6845647974942 1074.5547186668057 654.6258490833787
z" fill="none" stroke="none"></path>
<circle cx="0" cy="0" r="4.081366436914395" fill="#da70dc" opacity="0.9">
  <animateMotion begin="-9.28441110995335s" dur="10s" repeatCount="indefinite">
    <mpath xlink:href="#path79"></mpath>
  </animateMotion>
</circle><path id="path80" d="M 130.2349513336771 441.39735311838626
c 0 19.426588129286372 -4.753314116740282 5.579977441390766 -10.333291558131048 5.579977441390766
S 109.56836821741499 460.8239412476726 109.56836821741499 441.39735311838626
s 4.753314116740282 -5.579977441390766 10.333291558131048 -5.579977441390766
S 130.2349513336771 421.9707649890999 130.2349513336771 441.39735311838626
z" fill="none" stroke="none"></path>
<circle cx="0" cy="0" r="7.483416409549984" fill="#fab0fa" opacity="0.9">
  <animateMotion begin="-5.530931993639239s" dur="10s" repeatCount="indefinite">
    <mpath xlink:href="#path80"></mpath>
  </animateMotion>
</circle><path id="path81" d="M 439.2704429117955 516.1669975249006
c 0 30.728440033431063 -7.51866085924377 8.826254052155731 -16.344914911399503 8.826254052155731
S 406.58061308899653 546.8954375583317 406.58061308899653 516.1669975249006
s 7.51866085924377 -8.826254052155731 16.344914911399503 -8.826254052155731
S 439.2704429117955 485.4385574914695 439.2704429117955 516.1669975249006
z" fill="none" stroke="none"></path>
<circle cx="0" cy="0" r="6.318253101473578" fill="#fab0fa" opacity="0.9">
  <animateMotion begin="-3.450017847637352s" dur="10s" repeatCount="indefinite">
    <mpath xlink:href="#path81"></mpath>
  </animateMotion>
</circle><path id="path82" d="M 1238.209574553437 540.6873776156584
c 0 37.202137279223805 -9.10265061087391 10.685720282330243 -19.788370893204153 10.685720282330243
S 1198.632832767029 577.8895148948823 1198.632832767029 540.6873776156584
s 9.10265061087391 -10.685720282330243 19.788370893204153 -10.685720282330243
S 1238.209574553437 503.48524033643463 1238.209574553437 540.6873776156584
z" fill="none" stroke="none"></path>
<circle cx="0" cy="0" r="7.415815779549429" fill="#da70dc" opacity="0.9">
  <animateMotion begin="-8.01550703717506s" dur="10s" repeatCount="indefinite">
    <mpath xlink:href="#path82"></mpath>
  </animateMotion>
</circle><path id="path83" d="M 219.46892101208783 182.5158808984639
c 0 34.002099698840446 -8.319662692269471 9.766560551794598 -18.08622324406407 9.766560551794598
S 183.29647452395972 216.51798059730436 183.29647452395972 182.5158808984639
s 8.319662692269471 -9.766560551794598 18.08622324406407 -9.766560551794598
S 219.46892101208783 148.51378119962345 219.46892101208783 182.5158808984639
z" fill="none" stroke="none"></path>
<circle cx="0" cy="0" r="4.855499432756379" fill="#ffe9ff" opacity="0.9">
  <animateMotion begin="-5.58014582411106s" dur="10s" repeatCount="indefinite">
    <mpath xlink:href="#path83"></mpath>
  </animateMotion>
</circle><path id="path84" d="M 171.01777724612032 163.12085825413797
c 0 30.646252706439117 -7.498551194128719 8.802647053977193 -16.301198248105912 8.802647053977193
S 138.41538074990848 193.7671109605771 138.41538074990848 163.12085825413797
s 7.498551194128719 -8.802647053977193 16.301198248105912 -8.802647053977193
S 171.01777724612032 132.47460554769884 171.01777724612032 163.12085825413797
z" fill="none" stroke="none"></path>
<circle cx="0" cy="0" r="5.223465180995158" fill="#fab0fa" opacity="0.9">
  <animateMotion begin="-0.4902090233048928s" dur="10s" repeatCount="indefinite">
    <mpath xlink:href="#path84"></mpath>
  </animateMotion>
</circle><path id="path85" d="M 476.5115473643055 217.5761883895571
c 0 36.60208781611962 -8.955829997561182 10.513365649310956 -19.469195646872137 10.513365649310956
S 437.5731560705612 254.17827620567672 437.5731560705612 217.5761883895571
s 8.955829997561182 -10.513365649310956 19.469195646872137 -10.513365649310956
S 476.5115473643055 180.97410057343748 476.5115473643055 217.5761883895571
z" fill="none" stroke="none"></path>
<circle cx="0" cy="0" r="5.111595868417786" fill="#74007a" opacity="0.9">
  <animateMotion begin="-9.413225531642507s" dur="10s" repeatCount="indefinite">
    <mpath xlink:href="#path85"></mpath>
  </animateMotion>
</circle><path id="path86" d="M 532.1408183231323 239.8816806539622
c 0 19.539049398849752 -4.780831235888768 5.6122801464781205 -10.39311138236689 5.6122801464781205
S 511.3545955583985 259.42073005281196 511.3545955583985 239.8816806539622
s 4.780831235888768 -5.6122801464781205 10.39311138236689 -5.6122801464781205
S 532.1408183231323 220.34263125511245 532.1408183231323 239.8816806539622
z" fill="none" stroke="none"></path>
<circle cx="0" cy="0" r="4.989468467501132" fill="#da70dc" opacity="0.9">
  <animateMotion begin="-2.191289856441012s" dur="10s" repeatCount="indefinite">
    <mpath xlink:href="#path86"></mpath>
  </animateMotion>
</circle><path id="path87" d="M 858.0644217914044 583.8927760666173
c 0 26.794938882705253 -6.556208450023624 7.6964186152451255 -14.25262706526875 7.6964186152451255
S 829.5591676608669 610.6877149493225 829.5591676608669 583.8927760666173
s 6.556208450023624 -7.6964186152451255 14.25262706526875 -7.6964186152451255
S 858.0644217914044 557.0978371839121 858.0644217914044 583.8927760666173
z" fill="none" stroke="none"></path>
<circle cx="0" cy="0" r="7.741672243715047" fill="#ffe9ff" opacity="0.9">
  <animateMotion begin="-8.677681125884762s" dur="10s" repeatCount="indefinite">
    <mpath xlink:href="#path87"></mpath>
  </animateMotion>
</circle><path id="path88" d="M 446.0643693248555 194.0040179997181
c 0 25.344877771739785 -6.201406263298032 7.279911700393343 -13.481317963691374 7.279911700393343
S 419.10173339747274 219.34889577145788 419.10173339747274 194.0040179997181
s 6.201406263298032 -7.279911700393343 13.481317963691374 -7.279911700393343
S 446.0643693248555 168.6591402279783 446.0643693248555 194.0040179997181
z" fill="none" stroke="none"></path>
<circle cx="0" cy="0" r="7.182984005471694" fill="#a53faa" opacity="0.9">
  <animateMotion begin="-1.8072430623197278s" dur="10s" repeatCount="indefinite">
    <mpath xlink:href="#path88"></mpath>
  </animateMotion>
</circle><path id="path89" d="M 804.2090661156001 165.98261929036568
c 0 21.1312248516108 -5.1704060807132795 6.069607138228633 -11.240013218941913 6.069607138228633
S 781.7290396777162 187.11384414197647 781.7290396777162 165.98261929036568
s 5.1704060807132795 -6.069607138228633 11.240013218941913 -6.069607138228633
S 804.2090661156001 144.85139443875488 804.2090661156001 165.98261929036568
z" fill="none" stroke="none"></path>
<circle cx="0" cy="0" r="5.870107393487475" fill="#a53faa" opacity="0.9">
  <animateMotion begin="-2.0811111358571455s" dur="10s" repeatCount="indefinite">
    <mpath xlink:href="#path89"></mpath>
  </animateMotion>
</circle><path id="path90" d="M 908.9648160861743 647.7290605100519
c 0 28.927155206298778 -7.077920954732679 8.308863729468799 -15.386784684201478 8.308863729468799
S 878.1912467177713 676.6562157163507 878.1912467177713 647.7290605100519
s 7.077920954732679 -8.308863729468799 15.386784684201478 -8.308863729468799
S 908.9648160861743 618.8019053037531 908.9648160861743 647.7290605100519
z" fill="none" stroke="none"></path>
<circle cx="0" cy="0" r="4.291601354186518" fill="#ffe9ff" opacity="0.9">
  <animateMotion begin="-8.404563203676316s" dur="10s" repeatCount="indefinite">
    <mpath xlink:href="#path90"></mpath>
  </animateMotion>
</circle><path id="path91" d="M 132.2192606539046 603.6510547969953
c 0 20.015759127829842 -4.897472978086024 5.749207409057508 -10.646680387143533 5.749207409057508
S 110.92589987961755 623.6668139248251 110.92589987961755 603.6510547969953
s 4.897472978086024 -5.749207409057508 10.646680387143533 -5.749207409057508
S 132.2192606539046 583.6352956691654 132.2192606539046 603.6510547969953
z" fill="none" stroke="none"></path>
<circle cx="0" cy="0" r="4.887898172347232" fill="#da70dc" opacity="0.9">
  <animateMotion begin="-2.6927060934173697s" dur="10s" repeatCount="indefinite">
    <mpath xlink:href="#path91"></mpath>
  </animateMotion>
</circle><path id="path92" d="M 699.198170300463 124.14953866817993
c 0 31.116003990926554 -7.613490338205433 8.937575614415074 -16.551065952620508 8.937575614415074
S 666.0960383952219 155.26554265910647 666.0960383952219 124.14953866817993
s 7.613490338205433 -8.937575614415074 16.551065952620508 -8.937575614415074
S 699.198170300463 93.03353467725337 699.198170300463 124.14953866817993
z" fill="none" stroke="none"></path>
<circle cx="0" cy="0" r="6.73559247017512" fill="#74007a" opacity="0.9">
  <animateMotion begin="-7.8299577075417215s" dur="10s" repeatCount="indefinite">
    <mpath xlink:href="#path92"></mpath>
  </animateMotion>
</circle><path id="path93" d="M 86.58191540222438 474.89048714290504
c 0 21.47664739407709 -5.254924362380564 6.1688242514902285 -11.423748613870792 6.1688242514902285
S 63.734418174482805 496.3671345369821 63.734418174482805 474.89048714290504
s 5.254924362380564 -6.1688242514902285 11.423748613870792 -6.1688242514902285
S 86.58191540222438 453.41383974882797 86.58191540222438 474.89048714290504
z" fill="none" stroke="none"></path>
<circle cx="0" cy="0" r="7.925420936763918" fill="#da70dc" opacity="0.9">
  <animateMotion begin="-2.823029571870841s" dur="10s" repeatCount="indefinite">
    <mpath xlink:href="#path93"></mpath>
  </animateMotion>
</circle><path id="path94" d="M 1417.3153554382409 226.71435015891083
c 0 30.769546786551746 -7.528718894581809 8.83806131103082 -16.36678020561263 8.83806131103082
S 1384.5817950270155 257.48389694546256 1384.5817950270155 226.71435015891083
s 7.528718894581809 -8.83806131103082 16.36678020561263 -8.83806131103082
S 1417.3153554382409 195.94480337235908 1417.3153554382409 226.71435015891083
z" fill="none" stroke="none"></path>
<circle cx="0" cy="0" r="5.427291374031538" fill="#da70dc" opacity="0.9">
  <animateMotion begin="-4.893288378530589s" dur="10s" repeatCount="indefinite">
    <mpath xlink:href="#path94"></mpath>
  </animateMotion>
</circle><path id="path95" d="M 1192.7129351048363 384.3142117670763
c 0 28.365907702818003 -6.940594437923553 8.147654340171128 -15.088248778094682 8.147654340171128
S 1162.5364375486467 412.6801194698943 1162.5364375486467 384.3142117670763
s 6.940594437923553 -8.147654340171128 15.088248778094682 -8.147654340171128
S 1192.7129351048363 355.9483040642583 1192.7129351048363 384.3142117670763
z" fill="none" stroke="none"></path>
<circle cx="0" cy="0" r="5.0361725858396245" fill="#da70dc" opacity="0.9">
  <animateMotion begin="-4.8868451325674345s" dur="10s" repeatCount="indefinite">
    <mpath xlink:href="#path95"></mpath>
  </animateMotion>
</circle><path id="path96" d="M 1385.4476042040562 540.7058765173556
c 0 36.20039532767815 -8.857543537623377 10.39798589199266 -19.255529429616036 10.39798589199266
S 1346.9365453448243 576.9062718450338 1346.9365453448243 540.7058765173556
s 8.857543537623377 -10.39798589199266 19.255529429616036 -10.39798589199266
S 1385.4476042040562 504.5054811896774 1385.4476042040562 540.7058765173556
z" fill="none" stroke="none"></path>
<circle cx="0" cy="0" r="7.8499336162769495" fill="#fab0fa" opacity="0.9">
  <animateMotion begin="-5.250611008603901s" dur="10s" repeatCount="indefinite">
    <mpath xlink:href="#path96"></mpath>
  </animateMotion>
</circle><path id="path97" d="M 1035.937557883877 151.620108510112
c 0 30.72801587781108 -7.518557076485689 8.826132220222332 -16.344689296708022 8.826132220222332
S 1003.2481792904609 182.3481243879231 1003.2481792904609 151.620108510112
s 7.518557076485689 -8.826132220222332 16.344689296708022 -8.826132220222332
S 1035.937557883877 120.89209263230092 1035.937557883877 151.620108510112
z" fill="none" stroke="none"></path>
<circle cx="0" cy="0" r="7.231456568262492" fill="#74007a" opacity="0.9">
  <animateMotion begin="-6.1949957695196245s" dur="10s" repeatCount="indefinite">
    <mpath xlink:href="#path97"></mpath>
  </animateMotion>
</circle><path id="path98" d="M 75.87334481503312 12.231845500886191
c 0 20.333414756685023 -4.975197227699526 5.840448919473357 -10.815646147172885 5.840448919473357
S 54.24205252068735 32.56526025757121 54.24205252068735 12.231845500886191
s 4.975197227699526 -5.840448919473357 10.815646147172885 -5.840448919473357
S 75.87334481503312 -8.101569255798832 75.87334481503312 12.231845500886191
z" fill="none" stroke="none"></path>
<circle cx="0" cy="0" r="7.250777448025169" fill="#ffe9ff" opacity="0.9">
  <animateMotion begin="-4.871296578093649s" dur="10s" repeatCount="indefinite">
    <mpath xlink:href="#path98"></mpath>
  </animateMotion>
</circle><path id="path99" d="M 637.3401152415311 668.8415033887923
c 0 31.813616006096524 -7.784182639789575 9.137953533666023 -16.9221361734556 9.137953533666023
S 603.49584289462 700.6551193948887 603.49584289462 668.8415033887923
s 7.784182639789575 -9.137953533666023 16.9221361734556 -9.137953533666023
S 637.3401152415311 637.0278873826958 637.3401152415311 668.8415033887923
z" fill="none" stroke="none"></path>
<circle cx="0" cy="0" r="7.900593789845359" fill="#da70dc" opacity="0.9">
  <animateMotion begin="-5.74092999207739s" dur="10s" repeatCount="indefinite">
    <mpath xlink:href="#path99"></mpath>
  </animateMotion>
</circle></g>
</svg>