<svg xmlns="http://www.w3.org/2000/svg" xmlns:xlink="http://www.w3.org/1999/xlink" style="margin:auto;background:#eeeeee;display:block;z-index:1;position:relative" width="800" height="800" preserveAspectRatio="xMidYMid" viewBox="0 0 800 800">
<g transform="translate(400,400) scale(1,1) translate(-400,-400)"><path id="path0" d="M 333.71445811090587 136.79215664881286
c 0 32.05387589963778 -7.842969635017753 9.206964354151276 -17.04993398916903 9.206964354151276
S 299.61459013256786 168.84603254845064 299.61459013256786 136.79215664881286
s 7.842969635017753 -9.206964354151276 17.04993398916903 -9.206964354151276
S 333.71445811090587 104.73828074917509 333.71445811090587 136.79215664881286
z" fill="none" stroke="none"></path>
<circle cx="0" cy="0" r="3.6941510721394697" fill="#d7d7d2" opacity="0.9">
  <animateMotion begin="-6.378190427217277s" dur="10s" repeatCount="indefinite">
    <mpath xlink:href="#path0"></mpath>
  </animateMotion>
</circle><path id="path1" d="M 508.03177918062374 503.21801277517545
c 0 32.69721425257086 -8.000382210735422 9.391753029993758 -17.392135240729182 9.391753029993758
S 473.24750869916534 535.9152270277464 473.24750869916534 503.21801277517545
s 8.000382210735422 -9.391753029993758 17.392135240729182 -9.391753029993758
S 508.03177918062374 470.5207985226046 508.03177918062374 503.21801277517545
z" fill="none" stroke="none"></path>
<circle cx="0" cy="0" r="5.034362233631557" fill="#454544" opacity="0.9">
  <animateMotion begin="-0.1923408766772905s" dur="10s" repeatCount="indefinite">
    <mpath xlink:href="#path1"></mpath>
  </animateMotion>
</circle><path id="path2" d="M 717.9059208133573 608.4453664914009
c 0 35.06959677896993 -8.580858786343706 10.073182053533918 -18.654040839877624 10.073182053533918
S 680.597839133602 643.5149632703709 680.597839133602 608.4453664914009
s 8.580858786343706 -10.073182053533918 18.654040839877624 -10.073182053533918
S 717.9059208133573 573.375769712431 717.9059208133573 608.4453664914009
z" fill="none" stroke="none"></path>
<circle cx="0" cy="0" r="3.9525791913428225" fill="#d7d7d2" opacity="0.9">
  <animateMotion begin="-0.2924157892526491s" dur="10s" repeatCount="indefinite">
    <mpath xlink:href="#path2"></mpath>
  </animateMotion>
</circle><path id="path3" d="M 612.494493013574 153.99768824859947
c 0 31.761534128505343 -7.771439201655562 9.122993845421748 -16.894433047077307 9.122993845421748
S 578.7056269194194 185.7592223771048 578.7056269194194 153.99768824859947
s 7.771439201655562 -9.122993845421748 16.894433047077307 -9.122993845421748
S 612.494493013574 122.23615412009413 612.494493013574 153.99768824859947
z" fill="none" stroke="none"></path>
<circle cx="0" cy="0" r="3.1657466348152488" fill="#717171" opacity="0.9">
  <animateMotion begin="-2.821674084071013s" dur="10s" repeatCount="indefinite">
    <mpath xlink:href="#path3"></mpath>
  </animateMotion>
</circle><path id="path4" d="M 762.492444809573 72.45390275580496
c 0 27.219029915956316 -6.659975404968034 7.818231997136389 -14.478207402104424 7.818231997136389
S 733.5360300053642 99.67293267176127 733.5360300053642 72.45390275580496
s 6.659975404968034 -7.818231997136389 14.478207402104424 -7.818231997136389
S 762.492444809573 45.23487283984865 762.492444809573 72.45390275580496
z" fill="none" stroke="none"></path>
<circle cx="0" cy="0" r="5.065458715787621" fill="#ffffff" opacity="0.9">
  <animateMotion begin="-8.717601570359058s" dur="10s" repeatCount="indefinite">
    <mpath xlink:href="#path4"></mpath>
  </animateMotion>
</circle><path id="path5" d="M 294.03168447951685 670.048307337095
c 0 30.593448162116577 -7.485630933283843 8.78747979124625 -16.273110724530092 8.78747979124625
S 261.48546303045663 700.6417554992116 261.48546303045663 670.048307337095
s 7.485630933283843 -8.78747979124625 16.273110724530092 -8.78747979124625
S 294.03168447951685 639.4548591749784 294.03168447951685 670.048307337095
z" fill="none" stroke="none"></path>
<circle cx="0" cy="0" r="4.869883811254069" fill="#717171" opacity="0.9">
  <animateMotion begin="-5.125789698898508s" dur="10s" repeatCount="indefinite">
    <mpath xlink:href="#path5"></mpath>
  </animateMotion>
</circle><path id="path6" d="M 711.2891465309042 409.4153622503206
c 0 20.338589669321532 -4.976463429727608 5.841935330549802 -10.818398760277411 5.841935330549802
S 689.6523490103493 429.75395191964213 689.6523490103493 409.4153622503206
s 4.976463429727608 -5.841935330549802 10.818398760277411 -5.841935330549802
S 711.2891465309042 389.07677258099903 711.2891465309042 409.4153622503206
z" fill="none" stroke="none"></path>
<circle cx="0" cy="0" r="4.5603734778039176" fill="#d7d7d2" opacity="0.9">
  <animateMotion begin="-9.835261821393747s" dur="10s" repeatCount="indefinite">
    <mpath xlink:href="#path6"></mpath>
  </animateMotion>
</circle><path id="path7" d="M 725.9805805761152 736.0306954594382
c 0 24.306610859156443 -5.947362231495725 6.981686097842808 -12.929048329338533 6.981686097842808
S 700.1224839174381 760.3373063185946 700.1224839174381 736.0306954594382
s 5.947362231495725 -6.981686097842808 12.929048329338533 -6.981686097842808
S 725.9805805761152 711.7240846002818 725.9805805761152 736.0306954594382
z" fill="none" stroke="none"></path>
<circle cx="0" cy="0" r="4.491524033418526" fill="#2d2d2d" opacity="0.9">
  <animateMotion begin="-4.794219076488124s" dur="10s" repeatCount="indefinite">
    <mpath xlink:href="#path7"></mpath>
  </animateMotion>
</circle><path id="path8" d="M 549.8418493333555 234.42400160947022
c 0 20.772302325056067 -5.082584611449888 5.966512369962913 -11.0490969814128 5.966512369962913
S 527.7436553705298 255.1963039345263 527.7436553705298 234.42400160947022
s 5.082584611449888 -5.966512369962913 11.0490969814128 -5.966512369962913
S 549.8418493333555 213.65169928441415 549.8418493333555 234.42400160947022
z" fill="none" stroke="none"></path>
<circle cx="0" cy="0" r="3.1311826100244735" fill="#454544" opacity="0.9">
  <animateMotion begin="-9.592707249281823s" dur="10s" repeatCount="indefinite">
    <mpath xlink:href="#path8"></mpath>
  </animateMotion>
</circle><path id="path9" d="M 157.19347239430917 607.438300542869
c 0 25.871089094716304 -6.3301600976433505 7.431057505929152 -13.761217603572502 7.431057505929152
S 129.67103718716416 633.3093896375854 129.67103718716416 607.438300542869
s 6.3301600976433505 -7.431057505929152 13.761217603572502 -7.431057505929152
S 157.19347239430917 581.5672114481526 157.19347239430917 607.438300542869
z" fill="none" stroke="none"></path>
<circle cx="0" cy="0" r="3.3886709120004848" fill="#d7d7d2" opacity="0.9">
  <animateMotion begin="-1.5704521907269897s" dur="10s" repeatCount="indefinite">
    <mpath xlink:href="#path9"></mpath>
  </animateMotion>
</circle><path id="path10" d="M 331.39691993911276 681.3975349998235
c 0 26.271208119947765 -6.428061561263814 7.545985311048826 -13.97404687231264 7.545985311048826
S 303.44882619448754 707.6687431197713 303.44882619448754 681.3975349998235
s 6.428061561263814 -7.545985311048826 13.97404687231264 -7.545985311048826
S 331.39691993911276 655.1263268798757 331.39691993911276 681.3975349998235
z" fill="none" stroke="none"></path>
<circle cx="0" cy="0" r="3.4062382577203545" fill="#717171" opacity="0.9">
  <animateMotion begin="-7.7008181562898725s" dur="10s" repeatCount="indefinite">
    <mpath xlink:href="#path10"></mpath>
  </animateMotion>
</circle><path id="path11" d="M 87.3866794038861 133.75115812916547
c 0 31.543680881356014 -7.718134683736046 9.060418976559706 -16.778553660295753 9.060418976559706
S 53.82957208329459 165.29483901052149 53.82957208329459 133.75115812916547
s 7.718134683736046 -9.060418976559706 16.778553660295753 -9.060418976559706
S 87.3866794038861 102.20747724780946 87.3866794038861 133.75115812916547
z" fill="none" stroke="none"></path>
<circle cx="0" cy="0" r="5.272285835214386" fill="#2d2d2d" opacity="0.9">
  <animateMotion begin="-6.749494747768945s" dur="10s" repeatCount="indefinite">
    <mpath xlink:href="#path11"></mpath>
  </animateMotion>
</circle><path id="path12" d="M 206.5261192833101 331.0897744551918
c 0 37.5008099090303 -9.175730084124435 10.771509229189554 -19.94723931331399 10.771509229189554
S 166.63164065668212 368.5905843642221 166.63164065668212 331.0897744551918
s 9.175730084124435 -10.771509229189554 19.94723931331399 -10.771509229189554
S 206.5261192833101 293.5889645461615 206.5261192833101 331.0897744551918
z" fill="none" stroke="none"></path>
<circle cx="0" cy="0" r="5.110549650311007" fill="#454544" opacity="0.9">
  <animateMotion begin="-1.0728791730894272s" dur="10s" repeatCount="indefinite">
    <mpath xlink:href="#path12"></mpath>
  </animateMotion>
</circle><path id="path13" d="M 182.64429837754562 629.951518404933
c 0 31.567084040043405 -7.723860988521258 9.067141160438 -16.791002148959258 9.067141160438
S 149.06229407962712 661.5186024449764 149.06229407962712 629.951518404933
s 7.723860988521258 -9.067141160438 16.791002148959258 -9.067141160438
S 182.64429837754562 598.3844343648897 182.64429837754562 629.951518404933
z" fill="none" stroke="none"></path>
<circle cx="0" cy="0" r="3.063994291173165" fill="#717171" opacity="0.9">
  <animateMotion begin="-2.6962277077139163s" dur="10s" repeatCount="indefinite">
    <mpath xlink:href="#path13"></mpath>
  </animateMotion>
</circle><path id="path14" d="M 656.3792655170405 291.99455145750403
c 0 33.01885365234325 -8.079081212807392 9.484138815034765 -17.563220027842156 9.484138815034765
S 621.2528254613562 325.01340510984727 621.2528254613562 291.99455145750403
s 8.079081212807392 -9.484138815034765 17.563220027842156 -9.484138815034765
S 656.3792655170405 258.9756978051608 656.3792655170405 291.99455145750403
z" fill="none" stroke="none"></path>
<circle cx="0" cy="0" r="4.617965234925669" fill="#2d2d2d" opacity="0.9">
  <animateMotion begin="-9.000869347742452s" dur="10s" repeatCount="indefinite">
    <mpath xlink:href="#path14"></mpath>
  </animateMotion>
</circle><path id="path15" d="M 200.20922448619834 54.615730310019536
c 0 35.45538685387143 -8.675254230202585 10.183994096324774 -18.859248326527357 10.183994096324774
S 162.4907278331436 90.07111716389096 162.4907278331436 54.615730310019536
s 8.675254230202585 -10.183994096324774 18.859248326527357 -10.183994096324774
S 200.20922448619834 19.160343456148105 200.20922448619834 54.615730310019536
z" fill="none" stroke="none"></path>
<circle cx="0" cy="0" r="3.218350589832618" fill="#d7d7d2" opacity="0.9">
  <animateMotion begin="-5.883273777995736s" dur="10s" repeatCount="indefinite">
    <mpath xlink:href="#path15"></mpath>
  </animateMotion>
</circle><path id="path16" d="M 712.9991075587027 793.1171512158951
c 0 31.52081929870926 -7.712540892237371 9.053852351756916 -16.766393243994287 9.053852351756916
S 679.466321070714 824.6379705146044 679.466321070714 793.1171512158951
s 7.712540892237371 -9.053852351756916 16.766393243994287 -9.053852351756916
S 712.9991075587027 761.5963319171858 712.9991075587027 793.1171512158951
z" fill="none" stroke="none"></path>
<circle cx="0" cy="0" r="4.3305889566519955" fill="#717171" opacity="0.9">
  <animateMotion begin="-8.12866323104214s" dur="10s" repeatCount="indefinite">
    <mpath xlink:href="#path16"></mpath>
  </animateMotion>
</circle><path id="path17" d="M 135.87763624907046 243.6148625985852
c 0 23.759865704704676 -5.813584161789441 6.824642276883258 -12.6382264386727 6.824642276883258
S 110.60118337172507 267.3747283032899 110.60118337172507 243.6148625985852
s 5.813584161789441 -6.824642276883258 12.6382264386727 -6.824642276883258
S 135.87763624907046 219.85499689388053 135.87763624907046 243.6148625985852
z" fill="none" stroke="none"></path>
<circle cx="0" cy="0" r="4.883677515928113" fill="#2d2d2d" opacity="0.9">
  <animateMotion begin="-0.7201772622450608s" dur="10s" repeatCount="indefinite">
    <mpath xlink:href="#path17"></mpath>
  </animateMotion>
</circle><path id="path18" d="M 67.94853754738375 646.8332907672315
c 0 22.80041410351917 -5.5788247274568175 6.5490551148406135 -12.127879842297432 6.5490551148406135
S 43.69277786278889 669.6337048707506 43.69277786278889 646.8332907672315
s 5.5788247274568175 -6.5490551148406135 12.127879842297432 -6.5490551148406135
S 67.94853754738375 624.0328766637123 67.94853754738375 646.8332907672315
z" fill="none" stroke="none"></path>
<circle cx="0" cy="0" r="4.195741855394447" fill="#2d2d2d" opacity="0.9">
  <animateMotion begin="-1.2070736359940137s" dur="10s" repeatCount="indefinite">
    <mpath xlink:href="#path18"></mpath>
  </animateMotion>
</circle><path id="path19" d="M 66.07495389871437 167.97513664938947
c 0 28.88938725023946 -7.0686798591011435 8.29801548677091 -15.366695345872053 8.29801548677091
S 35.34156320697027 196.86452389962892 35.34156320697027 167.97513664938947
s 7.0686798591011435 -8.29801548677091 15.366695345872053 -8.29801548677091
S 66.07495389871437 139.08574939915002 66.07495389871437 167.97513664938947
z" fill="none" stroke="none"></path>
<circle cx="0" cy="0" r="5.091871691540379" fill="#717171" opacity="0.9">
  <animateMotion begin="-6.464879063464948s" dur="10s" repeatCount="indefinite">
    <mpath xlink:href="#path19"></mpath>
  </animateMotion>
</circle><path id="path20" d="M 376.00206539222665 601.8759135572641
c 0 23.70215292507403 -5.799462949752156 6.808065201882967 -12.607528151635123 6.808065201882967
S 350.78700908895644 625.5780664823382 350.78700908895644 601.8759135572641
s 5.799462949752156 -6.808065201882967 12.607528151635123 -6.808065201882967
S 376.00206539222665 578.17376063219 376.00206539222665 601.8759135572641
z" fill="none" stroke="none"></path>
<circle cx="0" cy="0" r="2.9203561685372317" fill="#454544" opacity="0.9">
  <animateMotion begin="-8.286679242805445s" dur="10s" repeatCount="indefinite">
    <mpath xlink:href="#path20"></mpath>
  </animateMotion>
</circle><path id="path21" d="M 487.0837222310646 245.8796679870072
c 0 22.03835638839833 -5.392363797161293 6.330166196667606 -11.722529993828898 6.330166196667606
S 463.63866224340677 267.91802437540554 463.63866224340677 245.8796679870072
s 5.392363797161293 -6.330166196667606 11.722529993828898 -6.330166196667606
S 487.0837222310646 223.84131159860885 487.0837222310646 245.8796679870072
z" fill="none" stroke="none"></path>
<circle cx="0" cy="0" r="3.7190558090185513" fill="#d7d7d2" opacity="0.9">
  <animateMotion begin="-5.021897959224444s" dur="10s" repeatCount="indefinite">
    <mpath xlink:href="#path21"></mpath>
  </animateMotion>
</circle><path id="path22" d="M 641.8290104076574 558.0422722158282
c 0 30.520594223260552 -7.4678049695211985 8.766553659872711 -16.23435862939391 8.766553659872711
S 609.3602931488696 588.5628664390888 609.3602931488696 558.0422722158282
s 7.4678049695211985 -8.766553659872711 16.23435862939391 -8.766553659872711
S 641.8290104076574 527.5216779925677 641.8290104076574 558.0422722158282
z" fill="none" stroke="none"></path>
<circle cx="0" cy="0" r="3.6662800118966863" fill="#d7d7d2" opacity="0.9">
  <animateMotion begin="-7.556808863979365s" dur="10s" repeatCount="indefinite">
    <mpath xlink:href="#path22"></mpath>
  </animateMotion>
</circle><path id="path23" d="M 786.586431517862 584.2050424975424
c 0 31.118143929520897 -7.614013940201921 8.938190277628344 -16.552204217830266 8.938190277628344
S 753.4820230822014 615.3231864270633 753.4820230822014 584.2050424975424
s 7.614013940201921 -8.938190277628344 16.552204217830266 -8.938190277628344
S 786.586431517862 553.0868985680215 786.586431517862 584.2050424975424
z" fill="none" stroke="none"></path>
<circle cx="0" cy="0" r="3.554949928681043" fill="#2d2d2d" opacity="0.9">
  <animateMotion begin="-0.00925490119600303s" dur="10s" repeatCount="indefinite">
    <mpath xlink:href="#path23"></mpath>
  </animateMotion>
</circle><path id="path24" d="M 319.45586369736975 55.10270669360573
c 0 19.92633673201856 -4.875593030174753 5.723522252813841 -10.599115282988594 5.723522252813841
S 298.2576331313926 75.0290434256243 298.2576331313926 55.10270669360573
s 4.875593030174753 -5.723522252813841 10.599115282988594 -5.723522252813841
S 319.45586369736975 35.17636996158717 319.45586369736975 55.10270669360573
z" fill="none" stroke="none"></path>
<circle cx="0" cy="0" r="4.260251243289863" fill="#717171" opacity="0.9">
  <animateMotion begin="-1.9492390894858547s" dur="10s" repeatCount="indefinite">
    <mpath xlink:href="#path24"></mpath>
  </animateMotion>
</circle><path id="path25" d="M 267.13107954608125 273.1013339641139
c 0 35.159730759514375 -8.60291284541309 10.099071601137108 -18.7019844465502 10.099071601137108
S 229.72711065298085 308.2610647236283 229.72711065298085 273.1013339641139
s 8.60291284541309 -10.099071601137108 18.7019844465502 -10.099071601137108
S 267.13107954608125 237.94160320459952 267.13107954608125 273.1013339641139
z" fill="none" stroke="none"></path>
<circle cx="0" cy="0" r="4.297296238807685" fill="#2d2d2d" opacity="0.9">
  <animateMotion begin="-5.7719594788971795s" dur="10s" repeatCount="indefinite">
    <mpath xlink:href="#path25"></mpath>
  </animateMotion>
</circle><path id="path26" d="M 307.7340511660782 142.42606319787376
c 0 36.69614437270701 -8.978843835875118 10.540381894288183 -19.5192257301633 10.540381894288183
S 268.69559970575165 179.12220757058077 268.69559970575165 142.42606319787376
s 8.978843835875118 -10.540381894288183 19.5192257301633 -10.540381894288183
S 307.7340511660782 105.72991882516675 307.7340511660782 142.42606319787376
z" fill="none" stroke="none"></path>
<circle cx="0" cy="0" r="5.157911360390975" fill="#2d2d2d" opacity="0.9">
  <animateMotion begin="-3.7559057381354033s" dur="10s" repeatCount="indefinite">
    <mpath xlink:href="#path26"></mpath>
  </animateMotion>
</circle><path id="path27" d="M 224.5324211746188 287.34778634359037
c 0 23.466361073384846 -5.74176919880693 6.740337755121179 -12.48210695392811 6.740337755121179
S 199.56820726676258 310.81414741697523 199.56820726676258 287.34778634359037
s 5.74176919880693 -6.740337755121179 12.48210695392811 -6.740337755121179
S 224.5324211746188 263.8814252702055 224.5324211746188 287.34778634359037
z" fill="none" stroke="none"></path>
<circle cx="0" cy="0" r="4.351691276294257" fill="#d7d7d2" opacity="0.9">
  <animateMotion begin="-2.0045759339503832s" dur="10s" repeatCount="indefinite">
    <mpath xlink:href="#path27"></mpath>
  </animateMotion>
</circle><path id="path28" d="M 83.85241571043903 564.495438876969
c 0 25.256630436261467 -6.179813830149082 7.254564061479358 -13.43437789162844 7.254564061479358
S 56.983659927182146 589.7520693132305 56.983659927182146 564.495438876969
s 6.179813830149082 -7.254564061479358 13.43437789162844 -7.254564061479358
S 83.85241571043903 539.2388084407075 83.85241571043903 564.495438876969
z" fill="none" stroke="none"></path>
<circle cx="0" cy="0" r="3.1353294779317964" fill="#454544" opacity="0.9">
  <animateMotion begin="-0.8950075057396156s" dur="10s" repeatCount="indefinite">
    <mpath xlink:href="#path28"></mpath>
  </animateMotion>
</circle><path id="path29" d="M 788.7723457846721 577.4629340791347
c 0 21.836138046091644 -5.3428848410649765 6.272082204728451 -11.614967045793428 6.272082204728451
S 765.5424116930853 599.2990721252263 765.5424116930853 577.4629340791347
s 5.3428848410649765 -6.272082204728451 11.614967045793428 -6.272082204728451
S 788.7723457846721 555.6267960330431 788.7723457846721 577.4629340791347
z" fill="none" stroke="none"></path>
<circle cx="0" cy="0" r="4.164204463846733" fill="#454544" opacity="0.9">
  <animateMotion begin="-0.5902115234372562s" dur="10s" repeatCount="indefinite">
    <mpath xlink:href="#path29"></mpath>
  </animateMotion>
</circle><path id="path30" d="M 244.6852660943225 458.3613208151309
c 0 19.86464091330674 -4.860497244745266 5.7058011133966176 -10.566298358141884 5.7058011133966176
S 223.5526693780387 478.22596172843765 223.5526693780387 458.3613208151309
s 4.860497244745266 -5.7058011133966176 10.566298358141884 -5.7058011133966176
S 244.6852660943225 438.49667990182417 244.6852660943225 458.3613208151309
z" fill="none" stroke="none"></path>
<circle cx="0" cy="0" r="5.3750733767386345" fill="#454544" opacity="0.9">
  <animateMotion begin="-9.285491953686552s" dur="10s" repeatCount="indefinite">
    <mpath xlink:href="#path30"></mpath>
  </animateMotion>
</circle><path id="path31" d="M 95.57594108632642 118.53310269021829
c 0 29.043768403044993 -7.1064539709578165 8.342359009385264 -15.448812980343082 8.342359009385264
S 64.67831512564027 147.57687109326326 64.67831512564027 118.53310269021829
s 7.1064539709578165 -8.342359009385264 15.448812980343082 -8.342359009385264
S 95.57594108632642 89.48933428717329 95.57594108632642 118.53310269021829
z" fill="none" stroke="none"></path>
<circle cx="0" cy="0" r="4.756105535177968" fill="#717171" opacity="0.9">
  <animateMotion begin="-5.5615946036435115s" dur="10s" repeatCount="indefinite">
    <mpath xlink:href="#path31"></mpath>
  </animateMotion>
</circle><path id="path32" d="M 470.9704800541609 192.11477560367513
c 0 37.41567941839222 -9.154900283223627 10.747056854219043 -19.90195713744267 10.747056854219043
S 431.1665657792756 229.53045502206734 431.1665657792756 192.11477560367513
s 9.154900283223627 -10.747056854219043 19.90195713744267 -10.747056854219043
S 470.9704800541609 154.6990961852829 470.9704800541609 192.11477560367513
z" fill="none" stroke="none"></path>
<circle cx="0" cy="0" r="4.213141670864989" fill="#d7d7d2" opacity="0.9">
  <animateMotion begin="-4.230321347919297s" dur="10s" repeatCount="indefinite">
    <mpath xlink:href="#path32"></mpath>
  </animateMotion>
</circle><path id="path33" d="M 433.7913714768564 384.1547322382722
c 0 21.485981840413515 -5.257208322654369 6.171505422246435 -11.428713744900804 6.171505422246435
S 410.9339439870548 405.6407140786857 410.9339439870548 384.1547322382722
s 5.257208322654369 -6.171505422246435 11.428713744900804 -6.171505422246435
S 433.7913714768564 362.6687503978587 433.7913714768564 384.1547322382722
z" fill="none" stroke="none"></path>
<circle cx="0" cy="0" r="5.216032315672626" fill="#2d2d2d" opacity="0.9">
  <animateMotion begin="-1.9581208365737446s" dur="10s" repeatCount="indefinite">
    <mpath xlink:href="#path33"></mpath>
  </animateMotion>
</circle><path id="path34" d="M 464.12731568587293 114.6969345663789
c 0 35.74809126065496 -8.74687339356451 10.26806876635834 -19.01494215992285 10.26806876635834
S 426.09743136602725 150.44502582703387 426.09743136602725 114.6969345663789
s 8.74687339356451 -10.26806876635834 19.01494215992285 -10.26806876635834
S 464.12731568587293 78.94884330572394 464.12731568587293 114.6969345663789
z" fill="none" stroke="none"></path>
<circle cx="0" cy="0" r="5.44610359091135" fill="#454544" opacity="0.9">
  <animateMotion begin="-7.879702320424011s" dur="10s" repeatCount="indefinite">
    <mpath xlink:href="#path34"></mpath>
  </animateMotion>
</circle><path id="path35" d="M 389.77987059902136 35.54288280430654
c 0 18.866519606709197 -4.616276073982037 5.419106695544132 -10.03538276952617 5.419106695544132
S 369.70910505996903 54.40940241101573 369.70910505996903 35.54288280430654
s 4.616276073982037 -5.419106695544132 10.03538276952617 -5.419106695544132
S 389.77987059902136 16.67636319759734 389.77987059902136 35.54288280430654
z" fill="none" stroke="none"></path>
<circle cx="0" cy="0" r="5.496421007572146" fill="#2d2d2d" opacity="0.9">
  <animateMotion begin="-7.92140212891729s" dur="10s" repeatCount="indefinite">
    <mpath xlink:href="#path35"></mpath>
  </animateMotion>
</circle><path id="path36" d="M 500.2947777621815 378.71675069992034
c 0 26.982176971224504 -6.6020220248740795 7.750199768330443 -14.352221793204523 7.750199768330443
S 471.59033417577245 405.6989276711448 471.59033417577245 378.71675069992034
s 6.6020220248740795 -7.750199768330443 14.352221793204523 -7.750199768330443
S 500.2947777621815 351.73457372869586 500.2947777621815 378.71675069992034
z" fill="none" stroke="none"></path>
<circle cx="0" cy="0" r="4.5883395581738915" fill="#ffffff" opacity="0.9">
  <animateMotion begin="-1.6007850049337047s" dur="10s" repeatCount="indefinite">
    <mpath xlink:href="#path36"></mpath>
  </animateMotion>
</circle><path id="path37" d="M 446.4354105367441 227.66957008047126
c 0 27.930975677215276 -6.834174899744163 8.02272705622141 -14.856901955965572 8.02272705622141
S 416.721606624813 255.60054575768655 416.721606624813 227.66957008047126
s 6.834174899744163 -8.02272705622141 14.856901955965572 -8.02272705622141
S 446.4354105367441 199.73859440325597 446.4354105367441 227.66957008047126
z" fill="none" stroke="none"></path>
<circle cx="0" cy="0" r="3.5095689005812467" fill="#2d2d2d" opacity="0.9">
  <animateMotion begin="-0.1353892735526263s" dur="10s" repeatCount="indefinite">
    <mpath xlink:href="#path37"></mpath>
  </animateMotion>
</circle><path id="path38" d="M 553.864917831159 28.937485647190755
c 0 34.284085894977444 -8.388659314728523 9.847556586855223 -18.236215901583744 9.847556586855223
S 517.3924860279916 63.2215715421682 517.3924860279916 28.937485647190755
s 8.388659314728523 -9.847556586855223 18.236215901583744 -9.847556586855223
S 553.864917831159 -5.346600247786689 553.864917831159 28.937485647190755
z" fill="none" stroke="none"></path>
<circle cx="0" cy="0" r="4.810726491543617" fill="#454544" opacity="0.9">
  <animateMotion begin="-8.809444074153593s" dur="10s" repeatCount="indefinite">
    <mpath xlink:href="#path38"></mpath>
  </animateMotion>
</circle><path id="path39" d="M 733.467609288199 172.47630552907182
c 0 36.10848774249016 -8.835055511460357 10.371586904757812 -19.20664241621817 10.371586904757812
S 695.0543244557626 208.58479327156198 695.0543244557626 172.47630552907182
s 8.835055511460357 -10.371586904757812 19.20664241621817 -10.371586904757812
S 733.467609288199 136.36781778658167 733.467609288199 172.47630552907182
z" fill="none" stroke="none"></path>
<circle cx="0" cy="0" r="3.3834240114064" fill="#2d2d2d" opacity="0.9">
  <animateMotion begin="-3.7388665057142934s" dur="10s" repeatCount="indefinite">
    <mpath xlink:href="#path39"></mpath>
  </animateMotion>
</circle><path id="path40" d="M 319.81386005971996 384.8458146201684
c 0 21.673058813447287 -5.302982475630719 6.225240297479541 -11.52822277311026 6.225240297479541
S 296.75741451349944 406.51887343361574 296.75741451349944 384.8458146201684
s 5.302982475630719 -6.225240297479541 11.52822277311026 -6.225240297479541
S 319.81386005971996 363.1727558067211 319.81386005971996 384.8458146201684
z" fill="none" stroke="none"></path>
<circle cx="0" cy="0" r="4.8687663256570275" fill="#717171" opacity="0.9">
  <animateMotion begin="-4.666336095691241s" dur="10s" repeatCount="indefinite">
    <mpath xlink:href="#path40"></mpath>
  </animateMotion>
</circle><path id="path41" d="M 542.7108872015484 656.570921741656
c 0 22.298533468083008 -5.456024146445841 6.404897911045119 -11.860922057490962 6.404897911045119
S 518.9890430865665 678.869455209739 518.9890430865665 656.570921741656
s 5.456024146445841 -6.404897911045119 11.860922057490962 -6.404897911045119
S 542.7108872015484 634.2723882735729 542.7108872015484 656.570921741656
z" fill="none" stroke="none"></path>
<circle cx="0" cy="0" r="3.9189345040781842" fill="#454544" opacity="0.9">
  <animateMotion begin="-0.6522398072719215s" dur="10s" repeatCount="indefinite">
    <mpath xlink:href="#path41"></mpath>
  </animateMotion>
</circle><path id="path42" d="M 308.88542109208953 378.5172554733787
c 0 24.552351415047937 -6.007490239852154 7.052271151130791 -13.059761390982946 7.052271151130791
S 282.76589831012365 403.0696068884267 282.76589831012365 378.5172554733787
s 6.007490239852154 -7.052271151130791 13.059761390982946 -7.052271151130791
S 308.88542109208953 353.9649040583308 308.88542109208953 378.5172554733787
z" fill="none" stroke="none"></path>
<circle cx="0" cy="0" r="4.660454575309583" fill="#2d2d2d" opacity="0.9">
  <animateMotion begin="-4.9223808632325206s" dur="10s" repeatCount="indefinite">
    <mpath xlink:href="#path42"></mpath>
  </animateMotion>
</circle><path id="path43" d="M 327.1433818216507 424.96920699248267
c 0 33.81193027766124 -8.273131876449025 9.711937420179293 -17.985069296628318 9.711937420179293
S 291.1732432283941 458.7811372701439 291.1732432283941 424.96920699248267
s 8.273131876449025 -9.711937420179293 17.985069296628318 -9.711937420179293
S 327.1433818216507 391.1572767148214 327.1433818216507 424.96920699248267
z" fill="none" stroke="none"></path>
<circle cx="0" cy="0" r="5.471391771234907" fill="#454544" opacity="0.9">
  <animateMotion begin="-9.482779616318936s" dur="10s" repeatCount="indefinite">
    <mpath xlink:href="#path43"></mpath>
  </animateMotion>
</circle><path id="path44" d="M 389.88303487301687 577.0569438721234
c 0 37.10848922012743 -9.079736724073733 10.658821371738732 -19.738558095812465 10.658821371738732
S 350.405918681392 614.1654330922509 350.405918681392 577.0569438721234
s 9.079736724073733 -10.658821371738732 19.738558095812465 -10.658821371738732
S 389.88303487301687 539.9484546519959 389.88303487301687 577.0569438721234
z" fill="none" stroke="none"></path>
<circle cx="0" cy="0" r="5.432039004863608" fill="#d7d7d2" opacity="0.9">
  <animateMotion begin="-8.323980691944639s" dur="10s" repeatCount="indefinite">
    <mpath xlink:href="#path44"></mpath>
  </animateMotion>
</circle><path id="path45" d="M 452.2545029638692 353.2865097073756
c 0 36.86833193724872 -9.020974835709792 10.589840024528888 -19.61081486023868 10.589840024528888
S 413.0328732433918 390.15484164462436 413.0328732433918 353.2865097073756
s 9.020974835709792 -10.589840024528888 19.61081486023868 -10.589840024528888
S 452.2545029638692 316.4181777701269 452.2545029638692 353.2865097073756
z" fill="none" stroke="none"></path>
<circle cx="0" cy="0" r="3.003349116771927" fill="#454544" opacity="0.9">
  <animateMotion begin="-7.456165871533836s" dur="10s" repeatCount="indefinite">
    <mpath xlink:href="#path45"></mpath>
  </animateMotion>
</circle><path id="path46" d="M 652.015098524396 487.1166065591544
c 0 30.90924555150433 -7.562900507282974 8.878187552027839 -16.441088059310815 8.878187552027839
S 619.1329224057744 518.0258521106587 619.1329224057744 487.1166065591544
s 7.562900507282974 -8.878187552027839 16.441088059310815 -8.878187552027839
S 652.015098524396 456.20736100765004 652.015098524396 487.1166065591544
z" fill="none" stroke="none"></path>
<circle cx="0" cy="0" r="4.377670554727826" fill="#d7d7d2" opacity="0.9">
  <animateMotion begin="-6.7669057712910075s" dur="10s" repeatCount="indefinite">
    <mpath xlink:href="#path46"></mpath>
  </animateMotion>
</circle><path id="path47" d="M 786.9108230930194 742.8987061420614
c 0 31.075780420254326 -7.603648400700526 8.926022035604966 -16.529670436305494 8.926022035604966
S 753.8514822204083 773.9744865623157 753.8514822204083 742.8987061420614
s 7.603648400700526 -8.926022035604966 16.529670436305494 -8.926022035604966
S 786.9108230930194 711.8229257218071 786.9108230930194 742.8987061420614
z" fill="none" stroke="none"></path>
<circle cx="0" cy="0" r="4.441779290344738" fill="#ffffff" opacity="0.9">
  <animateMotion begin="-0.8600760212618841s" dur="10s" repeatCount="indefinite">
    <mpath xlink:href="#path47"></mpath>
  </animateMotion>
</circle><path id="path48" d="M 374.51170855780515 242.04517534851976
c 0 21.81081891172373 -5.336689733719635 6.264809687410007 -11.601499421129642 6.264809687410007
S 351.3087097155459 263.8559942602435 351.3087097155459 242.04517534851976
s 5.336689733719635 -6.264809687410007 11.601499421129642 -6.264809687410007
S 374.51170855780515 220.23435643679602 374.51170855780515 242.04517534851976
z" fill="none" stroke="none"></path>
<circle cx="0" cy="0" r="3.4013187886365195" fill="#2d2d2d" opacity="0.9">
  <animateMotion begin="-8.860567639755242s" dur="10s" repeatCount="indefinite">
    <mpath xlink:href="#path48"></mpath>
  </animateMotion>
</circle><path id="path49" d="M 508.02774119218424 634.9042457256218
c 0 25.85505434248923 -6.326236700821831 7.42645177922563 -13.75268848004746 7.42645177922563
S 480.5223642320893 660.759300068111 480.5223642320893 634.9042457256218
s 6.326236700821831 -7.42645177922563 13.75268848004746 -7.42645177922563
S 508.02774119218424 609.0491913831326 508.02774119218424 634.9042457256218
z" fill="none" stroke="none"></path>
<circle cx="0" cy="0" r="3.5688796054093035" fill="#454544" opacity="0.9">
  <animateMotion begin="-9.04479348165852s" dur="10s" repeatCount="indefinite">
    <mpath xlink:href="#path49"></mpath>
  </animateMotion>
</circle><path id="path50" d="M 755.4416251657725 298.5607226505704
c 0 25.10081050506257 -6.141687676770628 7.209807272730738 -13.351494949501365 7.209807272730738
S 728.7386352667698 323.661533155633 728.7386352667698 298.5607226505704
s 6.141687676770628 -7.209807272730738 13.351494949501365 -7.209807272730738
S 755.4416251657725 273.4599121455079 755.4416251657725 298.5607226505704
z" fill="none" stroke="none"></path>
<circle cx="0" cy="0" r="2.9724534639572253" fill="#d7d7d2" opacity="0.9">
  <animateMotion begin="-7.103472970688847s" dur="10s" repeatCount="indefinite">
    <mpath xlink:href="#path50"></mpath>
  </animateMotion>
</circle><path id="path51" d="M 543.274646710643 136.16032844066535
c 0 30.268830198152546 -7.406203133590515 8.694238461171476 -16.100441594761993 8.694238461171476
S 511.073763521119 166.4291586388179 511.073763521119 136.16032844066535
s 7.406203133590515 -8.694238461171476 16.100441594761993 -8.694238461171476
S 543.274646710643 105.89149824251281 543.274646710643 136.16032844066535
z" fill="none" stroke="none"></path>
<circle cx="0" cy="0" r="3.1127531147808263" fill="#ffffff" opacity="0.9">
  <animateMotion begin="-7.790471634444851s" dur="10s" repeatCount="indefinite">
    <mpath xlink:href="#path51"></mpath>
  </animateMotion>
</circle><path id="path52" d="M 598.1810854944763 582.8052673860785
c 0 29.641643949396286 -7.252742668469303 8.514089219507444 -15.766831887976746 8.514089219507444
S 566.6474217185228 612.4469113354749 566.6474217185228 582.8052673860785
s 7.252742668469303 -8.514089219507444 15.766831887976746 -8.514089219507444
S 598.1810854944763 553.1636234366822 598.1810854944763 582.8052673860785
z" fill="none" stroke="none"></path>
<circle cx="0" cy="0" r="5.300290146104338" fill="#2d2d2d" opacity="0.9">
  <animateMotion begin="-2.886127575803581s" dur="10s" repeatCount="indefinite">
    <mpath xlink:href="#path52"></mpath>
  </animateMotion>
</circle><path id="path53" d="M 336.92150339532446 46.529229396428654
c 0 30.737034895960594 -7.520763857522272 8.828722789265278 -16.34948664678755 8.828722789265278
S 304.2225301017493 77.26626429238925 304.2225301017493 46.529229396428654
s 7.520763857522272 -8.828722789265278 16.34948664678755 -8.828722789265278
S 336.92150339532446 15.79219450046806 336.92150339532446 46.529229396428654
z" fill="none" stroke="none"></path>
<circle cx="0" cy="0" r="3.6130853906721474" fill="#454544" opacity="0.9">
  <animateMotion begin="-4.427751427789188s" dur="10s" repeatCount="indefinite">
    <mpath xlink:href="#path53"></mpath>
  </animateMotion>
</circle><path id="path54" d="M 165.64819298904376 446.95474875496944
c 0 36.692258442223796 -8.97789302309731 10.53926572276641 -19.51715874586372 10.53926572276641
S 126.61387549731631 483.64700719719326 126.61387549731631 446.95474875496944
s 8.97789302309731 -10.53926572276641 19.51715874586372 -10.53926572276641
S 165.64819298904376 410.2624903127456 165.64819298904376 446.95474875496944
z" fill="none" stroke="none"></path>
<circle cx="0" cy="0" r="5.386043566271151" fill="#ffffff" opacity="0.9">
  <animateMotion begin="-5.824617405894326s" dur="10s" repeatCount="indefinite">
    <mpath xlink:href="#path54"></mpath>
  </animateMotion>
</circle><path id="path55" d="M 368.20565984315414 46.965054939930845
c 0 27.526042811228205 -6.7350955814707305 7.906416552161294 -14.641512133632023 7.906416552161294
S 338.92263557589007 74.49109775115905 338.92263557589007 46.965054939930845
s 6.7350955814707305 -7.906416552161294 14.641512133632023 -7.906416552161294
S 368.20565984315414 19.43901212870264 368.20565984315414 46.965054939930845
z" fill="none" stroke="none"></path>
<circle cx="0" cy="0" r="5.402420766573256" fill="#2d2d2d" opacity="0.9">
  <animateMotion begin="-2.0913284686599076s" dur="10s" repeatCount="indefinite">
    <mpath xlink:href="#path55"></mpath>
  </animateMotion>
</circle><path id="path56" d="M 717.7166296867156 771.5449457150471
c 0 28.094558670269574 -6.874200525704257 8.069713660609345 -14.943914186313602 8.069713660609345
S 687.8288013140884 799.6395043853166 687.8288013140884 771.5449457150471
s 6.874200525704257 -8.069713660609345 14.943914186313602 -8.069713660609345
S 717.7166296867156 743.4503870447776 717.7166296867156 771.5449457150471
z" fill="none" stroke="none"></path>
<circle cx="0" cy="0" r="4.407982693469589" fill="#454544" opacity="0.9">
  <animateMotion begin="-4.717891668128189s" dur="10s" repeatCount="indefinite">
    <mpath xlink:href="#path56"></mpath>
  </animateMotion>
</circle><path id="path57" d="M 646.8107924673761 126.69379364121046
c 0 23.39186740885569 -5.723542025571072 6.7189406387138675 -12.44248266428494 6.7189406387138675
S 621.9258271388062 150.08566105006616 621.9258271388062 126.69379364121046
s 5.723542025571072 -6.7189406387138675 12.44248266428494 -6.7189406387138675
S 646.8107924673761 103.30192623235477 646.8107924673761 126.69379364121046
z" fill="none" stroke="none"></path>
<circle cx="0" cy="0" r="4.3537904766525255" fill="#454544" opacity="0.9">
  <animateMotion begin="-3.3214685006760125s" dur="10s" repeatCount="indefinite">
    <mpath xlink:href="#path57"></mpath>
  </animateMotion>
</circle><path id="path58" d="M 37.30898576386673 766.0151782256995
c 0 32.55697696328691 -7.9660688314425405 9.351472106476027 -17.31754093791857 9.351472106476027
S 2.6739038880295887 798.5721551889865 2.6739038880295887 766.0151782256995
s 7.9660688314425405 -9.351472106476027 17.31754093791857 -9.351472106476027
S 37.30898576386673 733.4582012624126 37.30898576386673 766.0151782256995
z" fill="none" stroke="none"></path>
<circle cx="0" cy="0" r="3.1934717580773784" fill="#454544" opacity="0.9">
  <animateMotion begin="-2.7389808995253495s" dur="10s" repeatCount="indefinite">
    <mpath xlink:href="#path58"></mpath>
  </animateMotion>
</circle><path id="path59" d="M 292.8862144800044 386.97752719231073
c 0 25.53714590259791 -6.248450593188849 7.335137652873867 -13.583588246062718 7.335137652873867
S 265.71903798787895 412.51467309490863 265.71903798787895 386.97752719231073
s 6.248450593188849 -7.335137652873867 13.583588246062718 -7.335137652873867
S 292.8862144800044 361.44038128971283 292.8862144800044 386.97752719231073
z" fill="none" stroke="none"></path>
<circle cx="0" cy="0" r="3.5279025462994262" fill="#2d2d2d" opacity="0.9">
  <animateMotion begin="-0.8553936665373785s" dur="10s" repeatCount="indefinite">
    <mpath xlink:href="#path59"></mpath>
  </animateMotion>
</circle><path id="path60" d="M 91.14232660589501 588.2804151931477
c 0 31.32858567019551 -7.665505004409538 8.998636309524242 -16.66414131393378 8.998636309524242
S 57.81404397802744 619.6090008633432 57.81404397802744 588.2804151931477
s 7.665505004409538 -8.998636309524242 16.66414131393378 -8.998636309524242
S 91.14232660589501 556.9518295229523 91.14232660589501 588.2804151931477
z" fill="none" stroke="none"></path>
<circle cx="0" cy="0" r="5.283183167603342" fill="#2d2d2d" opacity="0.9">
  <animateMotion begin="-6.897752415015532s" dur="10s" repeatCount="indefinite">
    <mpath xlink:href="#path60"></mpath>
  </animateMotion>
</circle><path id="path61" d="M 225.50398111176642 316.977856301682
c 0 35.35674935726162 -8.651119523585288 10.15566204942621 -18.8067815730115 10.15566204942621
S 187.8904179657434 352.3346056589436 187.8904179657434 316.977856301682
s 8.651119523585288 -10.15566204942621 18.8067815730115 -10.15566204942621
S 225.50398111176642 281.6211069444204 225.50398111176642 316.977856301682
z" fill="none" stroke="none"></path>
<circle cx="0" cy="0" r="3.5287778000631573" fill="#717171" opacity="0.9">
  <animateMotion begin="-7.233042258587751s" dur="10s" repeatCount="indefinite">
    <mpath xlink:href="#path61"></mpath>
  </animateMotion>
</circle><path id="path62" d="M 666.2892017926051 104.1451662887751
c 0 34.53929241390816 -8.451103462977528 9.920860586973621 -18.37196404995115 9.920860586973621
S 629.5452736927027 138.68445870268326 629.5452736927027 104.1451662887751
s 8.451103462977528 -9.920860586973621 18.37196404995115 -9.920860586973621
S 666.2892017926051 69.60587387486694 666.2892017926051 104.1451662887751
z" fill="none" stroke="none"></path>
<circle cx="0" cy="0" r="3.695913799684165" fill="#717171" opacity="0.9">
  <animateMotion begin="-8.626466005613613s" dur="10s" repeatCount="indefinite">
    <mpath xlink:href="#path62"></mpath>
  </animateMotion>
</circle><path id="path63" d="M 344.85483498456574 725.1123045919217
c 0 34.91429802375766 -8.542860154749214 10.028574964270817 -18.57143511902003 10.028574964270817
S 307.7119647465257 760.0266026156793 307.7119647465257 725.1123045919217
s 8.542860154749214 -10.028574964270817 18.57143511902003 -10.028574964270817
S 344.85483498456574 690.198006568164 344.85483498456574 725.1123045919217
z" fill="none" stroke="none"></path>
<circle cx="0" cy="0" r="2.9855406020766653" fill="#ffffff" opacity="0.9">
  <animateMotion begin="-0.6326324532079086s" dur="10s" repeatCount="indefinite">
    <mpath xlink:href="#path63"></mpath>
  </animateMotion>
</circle><path id="path64" d="M 57.95759394478889 267.5136106011546
c 0 28.017049149073458 -6.85523543009244 8.047450287499823 -14.902685717592263 8.047450287499823
S 28.152222509604364 295.53065975022804 28.152222509604364 267.5136106011546
s 6.85523543009244 -8.047450287499823 14.902685717592263 -8.047450287499823
S 57.95759394478889 239.49656145208115 57.95759394478889 267.5136106011546
z" fill="none" stroke="none"></path>
<circle cx="0" cy="0" r="4.166748737125351" fill="#d7d7d2" opacity="0.9">
  <animateMotion begin="-6.196020576847328s" dur="10s" repeatCount="indefinite">
    <mpath xlink:href="#path64"></mpath>
  </animateMotion>
</circle><path id="path65" d="M 267.0108880310105 141.20224278729472
c 0 25.1891584378569 -6.1633047241564745 7.235183806618471 -13.398488530774946 7.235183806618471
S 240.21391096946058 166.3914012251516 240.21391096946058 141.20224278729472
s 6.1633047241564745 -7.235183806618471 13.398488530774946 -7.235183806618471
S 267.0108880310105 116.01308434943782 267.0108880310105 141.20224278729472
z" fill="none" stroke="none"></path>
<circle cx="0" cy="0" r="3.002602806420878" fill="#d7d7d2" opacity="0.9">
  <animateMotion begin="-7.5495263795784195s" dur="10s" repeatCount="indefinite">
    <mpath xlink:href="#path65"></mpath>
  </animateMotion>
</circle><path id="path66" d="M 438.7189234057931 202.46284106544636
c 0 24.737858978704026 -6.052880388406304 7.105555238563922 -13.158435626970226 7.105555238563922
S 412.4020521518526 227.20070004415038 412.4020521518526 202.46284106544636
s 6.052880388406304 -7.105555238563922 13.158435626970226 -7.105555238563922
S 438.7189234057931 177.72498208674233 438.7189234057931 202.46284106544636
z" fill="none" stroke="none"></path>
<circle cx="0" cy="0" r="2.888095860001614" fill="#ffffff" opacity="0.9">
  <animateMotion begin="-6.252063998924145s" dur="10s" repeatCount="indefinite">
    <mpath xlink:href="#path66"></mpath>
  </animateMotion>
</circle><path id="path67" d="M 709.759214401821 402.54041045134375
c 0 27.51578258619405 -6.732585100877267 7.903469466247228 -14.636054567124495 7.903469466247228
S 680.4871052675721 430.0561930375378 680.4871052675721 402.54041045134375
s 6.732585100877267 -7.903469466247228 14.636054567124495 -7.903469466247228
S 709.759214401821 375.0246278651497 709.759214401821 402.54041045134375
z" fill="none" stroke="none"></path>
<circle cx="0" cy="0" r="5.399895683672919" fill="#ffffff" opacity="0.9">
  <animateMotion begin="-1.8333726447371257s" dur="10s" repeatCount="indefinite">
    <mpath xlink:href="#path67"></mpath>
  </animateMotion>
</circle><path id="path68" d="M 498.92642651078836 498.5718575807055
c 0 24.954174827975535 -6.1058087345046514 7.167688514418505 -13.273497248923157 7.167688514418505
S 472.37943201294206 523.5260324086811 472.37943201294206 498.5718575807055
s 6.1058087345046514 -7.167688514418505 13.273497248923157 -7.167688514418505
S 498.92642651078836 473.61768275273 498.92642651078836 498.5718575807055
z" fill="none" stroke="none"></path>
<circle cx="0" cy="0" r="3.1801354627863305" fill="#454544" opacity="0.9">
  <animateMotion begin="-4.815559979398445s" dur="10s" repeatCount="indefinite">
    <mpath xlink:href="#path68"></mpath>
  </animateMotion>
</circle><path id="path69" d="M 60.723482990019576 142.53716443198633
c 0 25.047267279056285 -6.128586674662707 7.194427835473614 -13.323014510136321 7.194427835473614
S 34.07745396974694 167.5844317110426 34.07745396974694 142.53716443198633
s 6.128586674662707 -7.194427835473614 13.323014510136321 -7.194427835473614
S 60.723482990019576 117.48989715293004 60.723482990019576 142.53716443198633
z" fill="none" stroke="none"></path>
<circle cx="0" cy="0" r="3.6429425908155566" fill="#ffffff" opacity="0.9">
  <animateMotion begin="-8.554786415696645s" dur="10s" repeatCount="indefinite">
    <mpath xlink:href="#path69"></mpath>
  </animateMotion>
</circle><path id="path70" d="M 537.7892812275495 531.7969988652524
c 0 32.915964952976594 -8.053906318281506 9.454585677982639 -17.508491996264144 9.454585677982639
S 502.7722972350212 564.7129638182289 502.7722972350212 531.7969988652524
s 8.053906318281506 -9.454585677982639 17.508491996264144 -9.454585677982639
S 537.7892812275495 498.88103391227577 537.7892812275495 531.7969988652524
z" fill="none" stroke="none"></path>
<circle cx="0" cy="0" r="2.9983312324605267" fill="#d7d7d2" opacity="0.9">
  <animateMotion begin="-1.2146295031152232s" dur="10s" repeatCount="indefinite">
    <mpath xlink:href="#path70"></mpath>
  </animateMotion>
</circle><path id="path71" d="M 226.19579026042484 633.1150171717945
c 0 37.09944638011388 -9.077524114283182 10.656223960245477 -19.73374807452866 10.656223960245477
S 186.72829411136755 670.2144635519085 186.72829411136755 633.1150171717945
s 9.077524114283182 -10.656223960245477 19.73374807452866 -10.656223960245477
S 226.19579026042484 596.0155707916806 226.19579026042484 633.1150171717945
z" fill="none" stroke="none"></path>
<circle cx="0" cy="0" r="4.026954903137362" fill="#454544" opacity="0.9">
  <animateMotion begin="-8.306932889441436s" dur="10s" repeatCount="indefinite">
    <mpath xlink:href="#path71"></mpath>
  </animateMotion>
</circle><path id="path72" d="M 545.9464756511799 523.8643030769686
c 0 20.748677174924282 -5.0768039896091315 5.959726422584634 -11.036530412193766 5.959726422584634
S 523.8734148267923 544.6129802518928 523.8734148267923 523.8643030769686
s 5.0768039896091315 -5.959726422584634 11.036530412193766 -5.959726422584634
S 545.9464756511799 503.11562590204426 545.9464756511799 523.8643030769686
z" fill="none" stroke="none"></path>
<circle cx="0" cy="0" r="3.1158940480715787" fill="#d7d7d2" opacity="0.9">
  <animateMotion begin="-9.460040323272189s" dur="10s" repeatCount="indefinite">
    <mpath xlink:href="#path72"></mpath>
  </animateMotion>
</circle><path id="path73" d="M 344.3259092646522 451.3421903360601
c 0 28.800058143870995 -7.046822737330136 8.27235712643103 -15.319179863761168 8.27235712643103
S 313.6875495371298 480.14224847993114 313.6875495371298 451.3421903360601
s 7.046822737330136 -8.27235712643103 15.319179863761168 -8.27235712643103
S 344.3259092646522 422.5421321921891 344.3259092646522 451.3421903360601
z" fill="none" stroke="none"></path>
<circle cx="0" cy="0" r="3.4303719129819137" fill="#d7d7d2" opacity="0.9">
  <animateMotion begin="-7.1304503784241575s" dur="10s" repeatCount="indefinite">
    <mpath xlink:href="#path73"></mpath>
  </animateMotion>
</circle><path id="path74" d="M 567.38861597121 610.6368727155605
c 0 31.462980776343414 -7.698388913360621 9.037239159162471 -16.73562807252309 9.037239159162471
S 533.9173598261638 642.0998534919039 533.9173598261638 610.6368727155605
s 7.698388913360621 -9.037239159162471 16.73562807252309 -9.037239159162471
S 567.38861597121 579.173891939217 567.38861597121 610.6368727155605
z" fill="none" stroke="none"></path>
<circle cx="0" cy="0" r="5.375056580785237" fill="#717171" opacity="0.9">
  <animateMotion begin="-4.99103551400445s" dur="10s" repeatCount="indefinite">
    <mpath xlink:href="#path74"></mpath>
  </animateMotion>
</circle><path id="path75" d="M 456.67171328383597 759.3312774056757
c 0 19.98622988009939 -4.890247736620062 5.740725603858335 -10.630973340478398 5.740725603858335
S 435.40976660287913 779.317507285775 435.40976660287913 759.3312774056757
s 4.890247736620062 -5.740725603858335 10.630973340478398 -5.740725603858335
S 456.67171328383597 739.3450475255763 456.67171328383597 759.3312774056757
z" fill="none" stroke="none"></path>
<circle cx="0" cy="0" r="5.4581333503786365" fill="#ffffff" opacity="0.9">
  <animateMotion begin="-8.704794220028658s" dur="10s" repeatCount="indefinite">
    <mpath xlink:href="#path75"></mpath>
  </animateMotion>
</circle><path id="path76" d="M 259.6233198885151 158.8852126019944
c 0 26.559100000139114 -6.498503191523399 7.628677659614427 -14.127180851137826 7.628677659614427
S 231.3689581862394 185.44431260213352 231.3689581862394 158.8852126019944
s 6.498503191523399 -7.628677659614427 14.127180851137826 -7.628677659614427
S 259.6233198885151 132.32611260185527 259.6233198885151 158.8852126019944
z" fill="none" stroke="none"></path>
<circle cx="0" cy="0" r="4.412224528370831" fill="#ffffff" opacity="0.9">
  <animateMotion begin="-3.6990286470158606s" dur="10s" repeatCount="indefinite">
    <mpath xlink:href="#path76"></mpath>
  </animateMotion>
</circle><path id="path77" d="M 553.3863052731394 76.19656620915893
c 0 25.73221130079378 -6.29617936083252 7.391167075759916 -13.687346436592435 7.391167075759916
S 526.0116123999546 101.92877750995271 526.0116123999546 76.19656620915893
s 6.29617936083252 -7.391167075759916 13.687346436592435 -7.391167075759916
S 553.3863052731394 50.46435490836515 553.3863052731394 76.19656620915893
z" fill="none" stroke="none"></path>
<circle cx="0" cy="0" r="2.7557778039340253" fill="#d7d7d2" opacity="0.9">
  <animateMotion begin="-3.9644955090702227s" dur="10s" repeatCount="indefinite">
    <mpath xlink:href="#path77"></mpath>
  </animateMotion>
</circle><path id="path78" d="M 786.4680505660613 13.738324336479184
c 0 35.73005258980946 -8.742459676229974 10.2628874460091 -19.005347122239073 10.2628874460091
S 748.4573563215831 49.46837692628864 748.4573563215831 13.738324336479184
s 8.742459676229974 -10.2628874460091 19.005347122239073 -10.2628874460091
S 786.4680505660613 -21.991728253330276 786.4680505660613 13.738324336479184
z" fill="none" stroke="none"></path>
<circle cx="0" cy="0" r="4.538203656465164" fill="#454544" opacity="0.9">
  <animateMotion begin="-9.452296523072954s" dur="10s" repeatCount="indefinite">
    <mpath xlink:href="#path78"></mpath>
  </animateMotion>
</circle><path id="path79" d="M 422.19240353392036 124.20767768762536
c 0 20.938139211261504 -5.1231617219044105 6.014146369192135 -11.137308091096545 6.014146369192135
S 399.91778735172727 145.14581689888686 399.91778735172727 124.20767768762536
s 5.1231617219044105 -6.014146369192135 11.137308091096545 -6.014146369192135
S 422.19240353392036 103.26953847636386 422.19240353392036 124.20767768762536
z" fill="none" stroke="none"></path>
<circle cx="0" cy="0" r="4.243146948902051" fill="#454544" opacity="0.9">
  <animateMotion begin="-9.440815844292098s" dur="10s" repeatCount="indefinite">
    <mpath xlink:href="#path79"></mpath>
  </animateMotion>
</circle><path id="path80" d="M 354.85701598277967 496.231866881027
c 0 29.671519426299135 -7.26005262558383 8.522670473511454 -15.782723099095284 8.522670473511454
S 323.2915697845891 525.9033863073261 323.2915697845891 496.231866881027
s 7.26005262558383 -8.522670473511454 15.782723099095284 -8.522670473511454
S 354.85701598277967 466.56034745472783 354.85701598277967 496.231866881027
z" fill="none" stroke="none"></path>
<circle cx="0" cy="0" r="5.462491227987446" fill="#2d2d2d" opacity="0.9">
  <animateMotion begin="-9.62994339652359s" dur="10s" repeatCount="indefinite">
    <mpath xlink:href="#path80"></mpath>
  </animateMotion>
</circle><path id="path81" d="M 773.1333336402344 786.1759559401729
c 0 27.59356005069277 -6.7516157570844 7.925809801794731 -14.677425558879131 7.925809801794731
S 743.7784825224761 813.7695159908657 743.7784825224761 786.1759559401729
s 6.7516157570844 -7.925809801794731 14.677425558879131 -7.925809801794731
S 773.1333336402344 758.5823958894802 773.1333336402344 786.1759559401729
z" fill="none" stroke="none"></path>
<circle cx="0" cy="0" r="4.6289546998822235" fill="#ffffff" opacity="0.9">
  <animateMotion begin="-6.27723057629021s" dur="10s" repeatCount="indefinite">
    <mpath xlink:href="#path81"></mpath>
  </animateMotion>
</circle><path id="path82" d="M 68.74005730451236 434.0306586042711
c 0 34.58853478045139 -8.463152127131723 9.93500467098072 -18.398156798112442 9.93500467098072
S 31.94374370828748 468.61919338472245 31.94374370828748 434.0306586042711
s 8.463152127131723 -9.93500467098072 18.398156798112442 -9.93500467098072
S 68.74005730451236 399.4421238238197 68.74005730451236 434.0306586042711
z" fill="none" stroke="none"></path>
<circle cx="0" cy="0" r="3.9804725759110053" fill="#454544" opacity="0.9">
  <animateMotion begin="-9.507533867854733s" dur="10s" repeatCount="indefinite">
    <mpath xlink:href="#path82"></mpath>
  </animateMotion>
</circle><path id="path83" d="M 461.19372496080996 690.7785313469553
c 0 19.21468927662695 -4.701466525132125 5.519112877329017 -10.220579402461142 5.519112877329017
S 440.7525661558876 709.9932206235823 440.7525661558876 690.7785313469553
s 4.701466525132125 -5.519112877329017 10.220579402461142 -5.519112877329017
S 461.19372496080996 671.5638420703284 461.19372496080996 690.7785313469553
z" fill="none" stroke="none"></path>
<circle cx="0" cy="0" r="4.28196942071322" fill="#2d2d2d" opacity="0.9">
  <animateMotion begin="-5.976033017760947s" dur="10s" repeatCount="indefinite">
    <mpath xlink:href="#path83"></mpath>
  </animateMotion>
</circle><path id="path84" d="M 648.6657196222463 274.95898457794704
c 0 25.76890466436211 -6.305157524258814 7.401706658912521 -13.706864183171334 7.401706658912521
S 621.2519912559037 300.7278892423092 621.2519912559037 274.95898457794704
s 6.305157524258814 -7.401706658912521 13.706864183171334 -7.401706658912521
S 648.6657196222463 249.19007991358492 648.6657196222463 274.95898457794704
z" fill="none" stroke="none"></path>
<circle cx="0" cy="0" r="4.911553544277023" fill="#2d2d2d" opacity="0.9">
  <animateMotion begin="-6.570707798670652s" dur="10s" repeatCount="indefinite">
    <mpath xlink:href="#path84"></mpath>
  </animateMotion>
</circle><path id="path85" d="M 808.3358387412738 667.1344013920115
c 0 28.237228472094476 -6.909109094235881 8.110693284537776 -15.019802378773656 8.110693284537776
S 778.2962339837266 695.3716298641059 778.2962339837266 667.1344013920115
s 6.909109094235881 -8.110693284537776 15.019802378773656 -8.110693284537776
S 808.3358387412738 638.897172919917 808.3358387412738 667.1344013920115
z" fill="none" stroke="none"></path>
<circle cx="0" cy="0" r="3.580121457507084" fill="#2d2d2d" opacity="0.9">
  <animateMotion begin="-0.977336399867077s" dur="10s" repeatCount="indefinite">
    <mpath xlink:href="#path85"></mpath>
  </animateMotion>
</circle><path id="path86" d="M 545.9628033927582 479.8322556715266
c 0 26.673417013328912 -6.5264743756017545 7.661513397445538 -14.187987773047293 7.661513397445538
S 517.5868278466636 506.5056726848555 517.5868278466636 479.8322556715266
s 6.5264743756017545 -7.661513397445538 14.187987773047293 -7.661513397445538
S 545.9628033927582 453.1588386581977 545.9628033927582 479.8322556715266
z" fill="none" stroke="none"></path>
<circle cx="0" cy="0" r="3.488401531222764" fill="#454544" opacity="0.9">
  <animateMotion begin="-4.183729106279586s" dur="10s" repeatCount="indefinite">
    <mpath xlink:href="#path86"></mpath>
  </animateMotion>
</circle><path id="path87" d="M 538.1481893622611 238.62809214299156
c 0 27.125078899043018 -6.6369873901913765 7.7912460667464 -14.428233456937775 7.7912460667464
S 509.29172244838554 265.7531710420346 509.29172244838554 238.62809214299156
s 6.6369873901913765 -7.7912460667464 14.428233456937775 -7.7912460667464
S 538.1481893622611 211.50301324394854 538.1481893622611 238.62809214299156
z" fill="none" stroke="none"></path>
<circle cx="0" cy="0" r="3.686320565586857" fill="#ffffff" opacity="0.9">
  <animateMotion begin="-0.40752412595080445s" dur="10s" repeatCount="indefinite">
    <mpath xlink:href="#path87"></mpath>
  </animateMotion>
</circle></g>
</svg>