<svg width="500" height="500" viewBox="0 0 500 500" fill="none" xmlns="http://www.w3.org/2000/svg">
<path d="M353.059 281.93C364.765 211.676 317.302 145.233 247.048 133.527C176.793 121.821 110.351 169.284 98.6451 239.538C86.9389 309.793 134.402 376.235 204.656 387.941C274.911 399.647 341.353 352.184 353.059 281.93Z" fill="#BA68C8"/>
<path opacity="0.3" d="M353.059 281.93C364.765 211.676 317.302 145.233 247.048 133.527C176.793 121.821 110.351 169.284 98.6451 239.538C86.9389 309.793 134.402 376.235 204.656 387.941C274.911 399.647 341.353 352.184 353.059 281.93Z" fill="black"/>
<path d="M359.701 253.68C371.407 183.425 323.944 116.983 253.69 105.277C183.435 93.5707 116.993 141.034 105.287 211.288C93.5805 281.542 141.043 347.985 211.298 359.691C281.552 371.397 347.995 323.934 359.701 253.68Z" fill="#BA68C8"/>
<path d="M316.25 316.25C362.504 269.996 362.504 195.004 316.25 148.75C269.996 102.496 195.004 102.496 148.75 148.75C102.496 195.004 102.496 269.996 148.75 316.25C195.004 362.504 269.996 362.504 316.25 316.25Z" fill="#BA68C8"/>
<path opacity="0.7" d="M316.25 316.25C362.504 269.996 362.504 195.004 316.25 148.75C269.996 102.496 195.004 102.496 148.75 148.75C102.496 195.004 102.496 269.996 148.75 316.25C195.004 362.504 269.996 362.504 316.25 316.25Z" fill="white"/>
<path opacity="0.4" d="M275.695 122.172L119.793 268.974C119.793 268.974 130.532 296.134 140.303 306.841L307.849 141.106C307.849 141.106 293.536 128.322 275.695 122.188V122.172Z" fill="white"/>
<path opacity="0.4" d="M323.114 157.058L148.622 316.113C148.622 316.113 151.354 320.468 163.934 328.6L336.194 174.915C336.194 174.915 334.196 168.703 323.114 157.043V157.058Z" fill="white"/>
<path d="M229.57 126.917V141.059H226.948V129.118H223.967V126.917H229.586H229.57Z" fill="#263238"/>
<path d="M242.62 138.843V141.059H232.193V139.295L237.812 133.957C238.452 133.348 238.873 132.818 239.092 132.365C239.31 131.912 239.42 131.46 239.42 131.023C239.42 130.367 239.201 129.852 238.749 129.509C238.296 129.165 237.656 128.978 236.782 128.978C235.346 128.978 234.238 129.462 233.473 130.445L231.631 129.025C232.177 128.291 232.926 127.714 233.863 127.292C234.799 126.886 235.845 126.683 237 126.683C238.53 126.683 239.763 127.042 240.684 127.776C241.605 128.51 242.058 129.493 242.058 130.742C242.058 131.507 241.902 132.225 241.574 132.896C241.246 133.567 240.637 134.332 239.716 135.19L235.939 138.78H242.604L242.62 138.843Z" fill="#263238"/>
<path d="M233.614 328.803C234.347 329.162 234.925 329.662 235.346 330.333C235.768 330.988 235.971 331.753 235.971 332.612C235.971 333.533 235.737 334.329 235.284 335.031C234.831 335.718 234.207 336.264 233.427 336.639C232.646 337.014 231.772 337.201 230.804 337.201C228.869 337.201 227.355 336.592 226.293 335.375C225.216 334.157 224.686 332.425 224.686 330.161C224.686 328.569 224.982 327.211 225.56 326.087C226.137 324.963 226.949 324.105 227.995 323.527C229.04 322.934 230.242 322.653 231.616 322.653C232.35 322.653 233.021 322.731 233.661 322.887C234.301 323.044 234.863 323.262 235.331 323.559L234.363 325.541C233.661 325.088 232.771 324.854 231.678 324.854C230.32 324.854 229.259 325.276 228.494 326.103C227.729 326.946 227.339 328.148 227.339 329.724C227.76 329.256 228.291 328.897 228.931 328.647C229.571 328.397 230.305 328.273 231.116 328.273C232.053 328.273 232.88 328.444 233.629 328.803H233.614ZM232.662 334.485C233.177 334.048 233.427 333.47 233.427 332.737C233.427 332.003 233.177 331.41 232.662 330.973C232.147 330.536 231.46 330.333 230.601 330.333C229.743 330.333 229.056 330.567 228.525 331.02C227.995 331.472 227.729 332.065 227.729 332.752C227.729 333.439 227.995 334.001 228.51 334.454C229.025 334.906 229.743 335.125 230.664 335.125C231.491 335.125 232.147 334.906 232.662 334.469V334.485Z" fill="#263238"/>
<path d="M282.452 144.041V158.182H279.83V146.241H276.833V144.041H282.452Z" fill="#263238"/>
<path d="M283.593 314.896C284.545 315.676 285.029 316.722 285.029 318.064C285.029 318.907 284.826 319.687 284.404 320.374C283.983 321.061 283.359 321.607 282.531 322.013C281.689 322.419 280.658 322.622 279.441 322.622C278.426 322.622 277.458 322.481 276.506 322.185C275.57 321.888 274.774 321.498 274.118 320.983L275.226 318.938C275.757 319.375 276.381 319.703 277.115 319.953C277.849 320.203 278.614 320.327 279.394 320.327C280.331 320.327 281.049 320.14 281.579 319.75C282.11 319.36 282.375 318.845 282.375 318.158C282.375 317.424 282.094 316.878 281.517 316.519C280.939 316.144 279.972 315.957 278.582 315.957H275.164L275.898 308.262H284.202V310.463H278.114L277.818 313.74H279.175C281.173 313.74 282.641 314.131 283.593 314.896Z" fill="#263238"/>
<path d="M181.995 144.041V158.182H179.373V146.242H176.392V144.041H182.011H181.995Z" fill="#263238"/>
<path d="M189.69 144.041V158.182H187.067V146.242H184.07V144.041H189.69Z" fill="#263238"/>
<path d="M181.995 308.262V322.403H179.373V310.463H176.392V308.262H182.011H181.995Z" fill="#263238"/>
<path d="M189.69 308.262V322.403H187.067V310.463H184.07V308.262H189.69Z" fill="#263238"/>
<path d="M318.103 186.731V188.947H307.676V187.184L313.295 181.845C313.935 181.237 314.357 180.706 314.575 180.253C314.794 179.801 314.903 179.348 314.903 178.911C314.903 178.255 314.685 177.74 314.232 177.397C313.779 177.053 313.139 176.866 312.265 176.866C310.829 176.866 309.721 177.35 308.956 178.333L307.114 176.913C307.661 176.179 308.41 175.602 309.346 175.18C310.283 174.775 311.329 174.572 312.484 174.572C314.013 174.572 315.246 174.931 316.167 175.664C317.088 176.398 317.541 177.381 317.541 178.63C317.541 179.395 317.385 180.113 317.057 180.784C316.729 181.455 316.121 182.22 315.2 183.079L311.422 186.669H318.087L318.103 186.731Z" fill="#263238"/>
<path d="M320.898 283.428H318.401V286.644H315.856V283.428H308.099V281.602L315.06 272.486H317.87L311.298 281.196H315.919V278.355H318.385V281.196H320.882V283.413L320.898 283.428Z" fill="#263238"/>
<path d="M150.184 174.805V188.947H147.561V177.006H144.564V174.805H150.184Z" fill="#263238"/>
<path d="M155.866 188.292C154.976 187.714 154.274 186.887 153.759 185.794C153.244 184.701 152.994 183.39 152.994 181.892C152.994 180.393 153.244 179.082 153.759 177.99C154.274 176.897 154.976 176.054 155.866 175.477C156.756 174.899 157.77 174.618 158.894 174.618C160.018 174.618 161.033 174.899 161.938 175.477C162.828 176.054 163.53 176.881 164.045 177.99C164.56 179.082 164.81 180.393 164.81 181.892C164.81 183.39 164.56 184.701 164.045 185.794C163.53 186.887 162.828 187.73 161.938 188.292C161.048 188.869 160.034 189.15 158.894 189.15C157.755 189.15 156.756 188.869 155.866 188.292ZM161.282 185.622C161.86 184.795 162.157 183.546 162.157 181.892C162.157 180.237 161.86 178.989 161.282 178.161C160.705 177.318 159.893 176.913 158.894 176.913C157.895 176.913 157.099 177.334 156.522 178.161C155.929 179.004 155.648 180.237 155.648 181.892C155.648 183.546 155.944 184.795 156.522 185.622C157.099 186.465 157.895 186.871 158.894 186.871C159.893 186.871 160.705 186.45 161.282 185.622Z" fill="#263238"/>
<path d="M156.177 280.353C156.567 280.931 156.77 281.602 156.77 282.367C156.77 283.225 156.536 283.99 156.052 284.63C155.568 285.27 154.897 285.769 154.023 286.113C153.149 286.456 152.134 286.628 150.979 286.628C149.824 286.628 148.81 286.456 147.936 286.113C147.062 285.769 146.39 285.27 145.922 284.63C145.454 283.99 145.22 283.225 145.22 282.367C145.22 281.602 145.407 280.931 145.813 280.353C146.203 279.776 146.765 279.323 147.483 278.995C146.921 278.683 146.484 278.277 146.187 277.778C145.891 277.278 145.735 276.685 145.735 276.029C145.735 275.233 145.953 274.547 146.39 273.953C146.827 273.36 147.452 272.908 148.232 272.58C149.028 272.252 149.949 272.096 150.979 272.096C152.01 272.096 152.946 272.252 153.742 272.58C154.538 272.908 155.163 273.36 155.6 273.953C156.037 274.547 156.271 275.233 156.271 276.029C156.271 276.685 156.115 277.263 155.803 277.762C155.49 278.261 155.053 278.667 154.476 278.995C155.209 279.338 155.787 279.791 156.177 280.353ZM153.274 283.959C153.836 283.553 154.117 282.991 154.117 282.289C154.117 281.586 153.836 281.04 153.274 280.634C152.712 280.228 151.947 280.025 150.964 280.025C149.98 280.025 149.231 280.228 148.685 280.634C148.139 281.04 147.858 281.586 147.858 282.289C147.858 282.991 148.139 283.569 148.685 283.959C149.231 284.365 149.996 284.567 150.964 284.567C151.932 284.567 152.696 284.365 153.274 283.959ZM149.028 274.671C148.544 275.015 148.31 275.514 148.31 276.154C148.31 276.794 148.544 277.247 149.028 277.59C149.512 277.949 150.152 278.121 150.979 278.121C151.807 278.121 152.478 277.949 152.962 277.59C153.446 277.231 153.695 276.747 153.695 276.154C153.695 275.561 153.446 275.03 152.962 274.671C152.462 274.328 151.807 274.141 150.995 274.141C150.183 274.141 149.528 274.312 149.044 274.671H149.028Z" fill="#263238"/>
<path d="M330.451 231.138C331.138 231.872 331.481 232.777 331.481 233.87C331.481 234.697 331.278 235.431 330.857 236.118C330.435 236.789 329.811 237.319 328.968 237.725C328.125 238.116 327.095 238.318 325.893 238.318C324.878 238.318 323.911 238.178 322.974 237.881C322.038 237.585 321.242 237.195 320.586 236.68L321.71 234.635C322.225 235.072 322.849 235.4 323.583 235.649C324.316 235.899 325.081 236.024 325.862 236.024C326.798 236.024 327.516 235.837 328.047 235.446C328.578 235.056 328.843 234.541 328.843 233.886C328.843 233.23 328.593 232.715 328.078 232.34C327.579 231.966 326.798 231.778 325.768 231.778H324.473V229.983L327.688 226.159H321.257V223.958H330.888V225.706L327.454 229.78C328.765 229.936 329.764 230.389 330.451 231.107V231.138Z" fill="#263238"/>
<path d="M140.537 225.581C141.614 226.799 142.145 228.531 142.145 230.795C142.145 232.387 141.848 233.745 141.271 234.869C140.693 235.993 139.881 236.851 138.836 237.429C137.79 238.022 136.588 238.303 135.214 238.303C134.481 238.303 133.809 238.225 133.169 238.069C132.53 237.912 131.968 237.694 131.499 237.397L132.467 235.415C133.169 235.868 134.059 236.102 135.152 236.102C136.51 236.102 137.571 235.68 138.336 234.853C139.101 234.026 139.491 232.808 139.491 231.232C139.07 231.7 138.539 232.059 137.899 232.309C137.259 232.559 136.525 232.683 135.714 232.683C134.777 232.683 133.95 232.512 133.216 232.153C132.483 231.794 131.89 231.294 131.484 230.623C131.062 229.967 130.859 229.203 130.859 228.344C130.859 227.423 131.093 226.627 131.546 225.925C131.999 225.238 132.623 224.692 133.404 224.317C134.184 223.942 135.058 223.755 136.026 223.755C137.961 223.755 139.475 224.364 140.537 225.566V225.581ZM138.289 229.936C138.82 229.484 139.085 228.906 139.085 228.204C139.085 227.501 138.82 226.955 138.305 226.502C137.79 226.05 137.072 225.831 136.151 225.831C135.324 225.831 134.668 226.05 134.153 226.487C133.638 226.924 133.388 227.501 133.388 228.235C133.388 228.968 133.638 229.562 134.153 229.999C134.668 230.436 135.355 230.639 136.213 230.639C137.072 230.639 137.759 230.405 138.289 229.952V229.936Z" fill="#263238"/>
<path d="M229.992 232.761L232.599 155.919H236.251L240.575 232.761H229.992Z" fill="#263238"/>
<path d="M230.663 237.912L194.778 202.152L197.213 199.436L237.75 230.045L230.663 237.912Z" fill="#263238"/>
<path d="M211.23 249.198L295.05 201.575L212.994 251.757L211.23 249.198Z" fill="#BA68C8"/>
<path d="M246.397 232.762C246.397 238.896 241.418 243.875 235.283 243.875C229.149 243.875 224.17 238.896 224.17 232.762C224.17 226.627 229.149 221.648 235.283 221.648C241.418 221.648 246.397 226.627 246.397 232.762Z" fill="#BA68C8"/>
<path opacity="0.3" d="M246.397 232.762C246.397 238.896 241.418 243.875 235.283 243.875C229.149 243.875 224.17 238.896 224.17 232.762C224.17 226.627 229.149 221.648 235.283 221.648C241.418 221.648 246.397 226.627 246.397 232.762Z" fill="black"/>
<path d="M144.408 345.114C144.408 345.114 123.601 385.042 130.625 385.62C137.649 386.197 162.015 357.882 162.015 357.882C162.015 357.882 159.408 343.866 144.423 345.114H144.408Z" fill="#BA68C8"/>
<path d="M319.804 341.244C319.804 341.244 340.611 381.171 333.587 381.749C326.563 382.326 302.197 354.012 302.197 354.012C302.197 354.012 304.804 339.995 319.788 341.244H319.804Z" fill="#BA68C8"/>
<path d="M93.5058 165.331C94.2706 164.41 182.102 84.8985 182.102 84.8985C182.102 84.8985 148.465 55.7723 109.052 94.9506C69.6398 134.113 93.5058 165.331 93.5058 165.331Z" fill="#BA68C8"/>
<path d="M182.101 84.8986C185.644 88.754 167.725 109.17 143.422 131.429C119.135 153.687 96.5798 168.609 93.0365 164.738C89.4933 160.883 106.32 139.701 130.623 117.443C154.91 95.1848 178.558 81.0276 182.101 84.883V84.8986Z" fill="#BA68C8"/>
<path opacity="0.3" d="M182.101 84.8986C185.644 88.754 167.725 109.17 143.422 131.429C119.135 153.687 96.5798 168.609 93.0365 164.738C89.4933 160.883 106.32 139.701 130.623 117.443C154.91 95.1848 178.558 81.0276 182.101 84.883V84.8986Z" fill="black"/>
<path d="M125.439 97.1931L112.354 109.183L142.999 142.625L156.084 130.636L125.439 97.1931Z" fill="#BA68C8"/>
<path d="M112.767 109.186C119.767 109.186 125.442 103.511 125.442 96.5116C125.442 89.5117 119.767 83.8372 112.767 83.8372C105.767 83.8372 100.093 89.5117 100.093 96.5116C100.093 103.511 105.767 109.186 112.767 109.186Z" fill="#BA68C8"/>
<path opacity="0.4" d="M108.989 96.1213L101.825 102.864C100.81 104.113 83.1875 129.119 97.8755 152.672C103.448 145.102 110.035 137.672 117.262 130.336C109.645 124.186 100.904 112.838 108.989 96.1213Z" fill="white"/>
<path opacity="0.2" d="M124.863 122.859L138.022 110.934L140.956 114.15L128.485 126.824L124.863 122.859Z" fill="black"/>
<path opacity="0.3" d="M101.826 102.864L119.73 85.9287L118.294 85.1171L101.015 101.225L101.826 102.864Z" fill="black"/>
<path d="M278.347 83.8683C279.361 84.4927 370.673 159.993 370.673 159.993C370.673 159.993 394.664 122.516 350.241 89.1441C305.818 55.7723 278.347 83.8683 278.347 83.8683Z" fill="#BA68C8"/>
<path d="M370.674 159.993C367.365 164.051 344.592 149.254 319.071 128.401C293.551 107.563 275.554 87.3803 278.863 83.322C282.172 79.2637 305.538 92.8746 331.059 113.713C356.58 134.55 373.984 155.919 370.674 159.977V159.993Z" fill="#BA68C8"/>
<path opacity="0.3" d="M370.674 159.993C367.365 164.051 344.592 149.254 319.071 128.401C293.551 107.563 275.554 87.3803 278.863 83.322C282.172 79.2637 305.538 92.8746 331.059 113.713C356.58 134.55 373.984 155.919 370.674 159.977V159.993Z" fill="black"/>
<path d="M350.353 105.685L336.607 94.4584L307.914 129.589L321.66 140.816L350.353 105.685Z" fill="#BA68C8"/>
<path d="M351.053 105.58C344.123 106.579 337.708 101.787 336.693 94.8571C335.694 87.9268 340.486 81.5115 347.417 80.4969C354.347 79.498 360.762 84.2899 361.777 91.2202C362.776 98.1506 357.984 104.566 351.053 105.58Z" fill="#BA68C8"/>
<path opacity="0.4" d="M349.071 89.2534L341.36 83.1347C339.971 82.3074 312.702 68.4623 291.505 86.3814C299.793 90.7987 308.097 96.2618 316.401 102.365C321.38 93.9361 331.37 83.6654 349.071 89.2534Z" fill="white"/>
<path opacity="0.2" d="M324.893 108.796L338.582 120.097L335.835 123.468L321.506 112.948L324.893 108.796Z" fill="black"/>
<path opacity="0.3" d="M341.374 83.1192L360.713 98.4003L361.307 96.8706L342.873 82.089L341.374 83.1192Z" fill="black"/>
<path opacity="0.3" d="M141.566 141.059C141.566 141.059 151.306 132.412 155.068 129.524L153.835 128.182L140.458 139.873L141.551 141.075L141.566 141.059Z" fill="black"/>
<path opacity="0.3" d="M308.941 128.447C308.941 128.447 319.009 136.704 322.459 139.982L323.583 138.562L309.94 127.183L308.926 128.447H308.941Z" fill="black"/>
<path d="M187.502 106.017C187.268 106.017 187.034 105.877 186.956 105.627C186.847 105.33 187.003 104.987 187.299 104.878C211.602 95.9339 238.855 94.3106 264.033 100.336C264.345 100.414 264.548 100.726 264.47 101.038C264.392 101.35 264.079 101.537 263.767 101.475C238.793 95.4968 211.79 97.1045 187.705 105.97C187.643 106.002 187.565 106.002 187.502 106.002V106.017Z" fill="#BA68C8"/>
<path d="M271.166 103.489C271.166 103.489 271.057 103.489 271.01 103.473L267.155 102.38C266.842 102.287 266.655 101.974 266.749 101.662C266.842 101.35 267.155 101.163 267.467 101.256L271.322 102.349C271.634 102.443 271.822 102.755 271.728 103.067C271.65 103.332 271.416 103.489 271.166 103.489Z" fill="#BA68C8"/>
</svg>
