<svg width="500" height="500" viewBox="0 0 500 500" fill="none" xmlns="http://www.w3.org/2000/svg">
<path d="M122.18 151.29L93.2996 396.59C93.2605 396.943 93.3212 397.3 93.4749 397.621C93.6286 397.941 93.8691 398.212 94.1691 398.403C94.4691 398.593 94.8165 398.696 95.1719 398.699C95.5273 398.702 95.8765 398.605 96.1796 398.42L114.74 387C115.841 386.317 117.165 386.089 118.432 386.363C119.698 386.637 120.809 387.393 121.53 388.47L144.85 423.14L154.58 277.3L122.18 151.29Z" fill="#BA68C8" stroke="#2E353A" stroke-linecap="round" stroke-linejoin="round"/>
<path d="M122 157.46L95.9 390.46C95.8436 390.963 95.9352 391.471 96.1636 391.923C96.3919 392.375 96.7471 392.75 97.1856 393.002C97.6241 393.255 98.1268 393.374 98.632 393.345C99.1373 393.317 99.6231 393.141 100.03 392.84L113.6 382.84C114.306 382.318 115.111 381.946 115.965 381.745C116.82 381.545 117.706 381.522 118.57 381.676C119.435 381.831 120.258 382.16 120.99 382.644C121.723 383.128 122.349 383.756 122.83 384.49L138.71 408.73C138.882 408.999 139.139 409.203 139.441 409.309C139.742 409.415 140.071 409.417 140.373 409.315C140.676 409.212 140.936 409.011 141.111 408.744C141.286 408.477 141.367 408.158 141.34 407.84L122.8 157.47C122.781 157.379 122.731 157.297 122.659 157.238C122.587 157.179 122.497 157.146 122.404 157.145C122.311 157.144 122.22 157.174 122.147 157.231C122.073 157.289 122.022 157.369 122 157.46Z" fill="#BA68C8" stroke="#2E353A" stroke-linecap="round" stroke-linejoin="round"/>
<path opacity="0.6" d="M122.359 154.08L95.8795 390.44C95.8231 390.943 95.9147 391.451 96.1431 391.903C96.3714 392.355 96.7266 392.73 97.1651 392.982C97.6036 393.235 98.1063 393.354 98.6115 393.326C99.1168 393.297 99.6026 393.121 100.009 392.82L113.579 382.82C114.285 382.298 115.09 381.926 115.945 381.726C116.799 381.525 117.686 381.502 118.55 381.656C119.414 381.811 120.238 382.14 120.97 382.624C121.702 383.108 122.328 383.736 122.809 384.47L138.689 408.71C138.862 408.979 139.119 409.183 139.42 409.289C139.722 409.395 140.05 409.397 140.353 409.295C140.656 409.192 140.915 408.991 141.091 408.724C141.266 408.457 141.346 408.138 141.319 407.82L122.549 154.08C122.543 154.06 122.53 154.043 122.513 154.03C122.496 154.018 122.476 154.011 122.454 154.011C122.433 154.011 122.413 154.018 122.396 154.03C122.379 154.043 122.366 154.06 122.359 154.08Z" fill="black"/>
<path d="M117.529 381.54C118.58 381.558 119.61 381.833 120.53 382.34C121.451 382.847 122.233 383.572 122.809 384.45L138.689 408.69C138.862 408.959 139.119 409.163 139.42 409.269C139.722 409.375 140.05 409.377 140.353 409.275C140.656 409.172 140.915 408.971 141.09 408.704C141.266 408.437 141.346 408.118 141.319 407.8L139.049 377.16L117.189 381.44C117.306 381.463 117.419 381.496 117.529 381.54Z" fill="#BA68C8" stroke="#2E353A" stroke-linecap="round" stroke-linejoin="round"/>
<path opacity="0.3" d="M117.529 390.54C118.58 390.558 119.61 390.833 120.53 391.34C121.451 391.847 122.233 392.572 122.809 393.45L138.689 417.69C138.862 417.959 139.119 418.163 139.42 418.269C139.722 418.375 140.05 418.377 140.353 418.275C140.656 418.172 140.915 417.971 141.09 417.704C141.266 417.437 141.346 417.118 141.319 416.8L139.049 386.16L117.189 390.44C117.306 390.463 117.419 390.496 117.529 390.54Z" fill="black"/>
<path d="M122.77 151.14L144.84 423.14L402.19 374.1L341.71 161.97L122.77 151.14Z" fill="#2E353A" stroke="#2E353A" stroke-linecap="round" stroke-linejoin="round"/>
<path d="M134.699 157.01L149.859 408.76L391.859 364.76L340.849 169.17L134.699 157.01Z" fill="#BA68C8" stroke="#2E353A" stroke-linecap="round" stroke-linejoin="round"/>
<path d="M149.489 280.9L160.999 400.23L380.879 360.25L360.449 270.56L149.489 280.9Z" fill="white" stroke="#2E353A" stroke-linecap="round" stroke-linejoin="round"/>
<path d="M191.929 394.29L188.279 355.96" stroke="#2E353A" stroke-linecap="round" stroke-linejoin="round"/>
<path d="M225.58 388.36L222.06 356.41" stroke="#2E353A" stroke-linecap="round" stroke-linejoin="round"/>
<path d="M258.57 381.97L254.46 356.41" stroke="#2E353A" stroke-linecap="round" stroke-linejoin="round"/>
<path d="M292.56 376.14L287.67 345.67" stroke="#2E353A" stroke-linecap="round" stroke-linejoin="round"/>
<path d="M322.5 370.74L318.33 341" stroke="#2E353A" stroke-linecap="round" stroke-linejoin="round"/>
<path d="M351.21 365.43L345 329.67" stroke="#2E353A" stroke-linecap="round" stroke-linejoin="round"/>
<g style="mix-blend-mode:multiply" opacity="0.49">
<path d="M135.92 226.56C135.92 226.56 141 299.67 145.67 326.33C150.34 352.99 159 392.89 159 392.89C159 392.89 309 369.67 383 338.33L377 309.67L135.92 226.56Z" fill="#BA68C8"/>
</g>
<path d="M129.14 154.27L339.81 165.62C339.81 165.62 360.32 227.07 380.73 261.77C401.14 296.47 434.8 294.21 434.8 294.21C434.8 294.21 357.6 336.42 297.47 358.89C234.89 382.26 180.62 386.46 180.62 386.46C180.62 386.46 131.19 318.94 129.14 154.27Z" fill="#BA68C8" stroke="#2E353A" stroke-linecap="round" stroke-linejoin="round"/>
<path d="M153.26 143.33C149.35 143.33 146.52 146.8 145.63 152.24L149.63 152.46C150.25 149.32 151.48 147.33 153.25 147.33C155.31 147.33 157.6 150.64 157.6 155.4C157.6 160.16 155.31 163.48 153.25 163.48C152.719 163.48 152.211 163.691 151.836 164.066C151.461 164.441 151.25 164.95 151.25 165.48C151.25 166.01 151.461 166.519 151.836 166.894C152.211 167.269 152.719 167.48 153.25 167.48C157.93 167.48 161.6 162.17 161.6 155.4C161.6 148.63 157.94 143.33 153.26 143.33Z" fill="white" stroke="#2E353A" stroke-miterlimit="10"/>
<path d="M159 158.64C158.808 159.345 158.561 160.034 158.26 160.7" stroke="#2E353A" stroke-width="0.75" stroke-linecap="round" stroke-linejoin="round"/>
<path d="M147.609 150.44C147.609 150.44 149.109 145.02 153.539 145.32C157.019 145.56 159.889 150.73 159.409 156.26" stroke="#2E353A" stroke-width="0.75" stroke-linecap="round" stroke-linejoin="round"/>
<path d="M188 145.08C184.09 145.08 181.26 148.55 180.37 153.99L184.37 154.21C184.99 151.07 186.22 149.08 187.99 149.08C190.05 149.08 192.34 152.39 192.34 157.15C192.34 161.91 190.05 165.23 187.99 165.23C187.46 165.23 186.951 165.441 186.576 165.816C186.201 166.191 185.99 166.7 185.99 167.23C185.99 167.76 186.201 168.269 186.576 168.644C186.951 169.019 187.46 169.23 187.99 169.23C192.67 169.23 196.34 163.92 196.34 157.15C196.34 150.38 192.69 145.08 188 145.08Z" fill="white" stroke="#2E353A" stroke-miterlimit="10"/>
<path d="M193.75 160.39C193.558 161.095 193.311 161.784 193.01 162.45" stroke="#2E353A" stroke-width="0.75" stroke-linecap="round" stroke-linejoin="round"/>
<path d="M182.359 152.19C182.359 152.19 183.859 146.77 188.289 147.07C191.769 147.31 194.639 152.48 194.159 158.01" stroke="#2E353A" stroke-width="0.75" stroke-linecap="round" stroke-linejoin="round"/>
<path d="M222.76 146.83C218.85 146.83 216.02 150.3 215.13 155.74L219.13 155.96C219.75 152.82 220.98 150.83 222.75 150.83C224.81 150.83 227.1 154.14 227.1 158.9C227.1 163.66 224.81 166.98 222.75 166.98C222.219 166.98 221.711 167.191 221.336 167.566C220.961 167.941 220.75 168.45 220.75 168.98C220.75 169.51 220.961 170.019 221.336 170.394C221.711 170.769 222.219 170.98 222.75 170.98C227.43 170.98 231.1 165.67 231.1 158.9C231.1 152.13 227.44 146.83 222.76 146.83Z" fill="white" stroke="#2E353A" stroke-miterlimit="10"/>
<path d="M228.5 162.14C228.308 162.845 228.061 163.534 227.76 164.2" stroke="#2E353A" stroke-width="0.75" stroke-linecap="round" stroke-linejoin="round"/>
<path d="M217.109 153.94C217.109 153.94 218.609 148.52 223.039 148.82C226.519 149.06 229.389 154.23 228.909 159.76" stroke="#2E353A" stroke-width="0.75" stroke-linecap="round" stroke-linejoin="round"/>
<path d="M257.51 148.58C253.6 148.58 250.77 152.05 249.88 157.49L253.88 157.71C254.5 154.57 255.73 152.58 257.5 152.58C259.56 152.58 261.85 155.89 261.85 160.65C261.85 165.41 259.56 168.73 257.5 168.73C256.969 168.73 256.461 168.941 256.086 169.316C255.711 169.691 255.5 170.2 255.5 170.73C255.5 171.26 255.711 171.769 256.086 172.144C256.461 172.519 256.969 172.73 257.5 172.73C262.18 172.73 265.85 167.42 265.85 160.65C265.85 153.88 262.19 148.58 257.51 148.58Z" fill="white" stroke="#2E353A" stroke-miterlimit="10"/>
<path d="M263.25 163.89C263.058 164.595 262.811 165.284 262.51 165.95" stroke="#2E353A" stroke-width="0.75" stroke-linecap="round" stroke-linejoin="round"/>
<path d="M251.859 155.69C251.859 155.69 253.359 150.27 257.789 150.57C261.269 150.81 264.139 155.98 263.659 161.51" stroke="#2E353A" stroke-width="0.75" stroke-linecap="round" stroke-linejoin="round"/>
<path d="M292.89 150.13C288.98 150.13 286.15 153.6 285.27 159.05L289.27 159.27C289.9 156.13 291.13 154.13 292.89 154.13C294.95 154.13 297.25 157.45 297.25 162.21C297.25 166.97 294.95 170.28 292.89 170.28C292.359 170.28 291.85 170.491 291.475 170.866C291.1 171.241 290.89 171.75 290.89 172.28C290.89 172.81 291.1 173.319 291.475 173.694C291.85 174.069 292.359 174.28 292.89 174.28C297.58 174.28 301.25 168.98 301.25 162.21C301.25 155.44 297.58 150.13 292.89 150.13Z" fill="white" stroke="#2E353A" stroke-miterlimit="10"/>
<path d="M298.63 165.45C298.44 166.152 298.192 166.838 297.89 167.5" stroke="#2E353A" stroke-width="0.75" stroke-linecap="round" stroke-linejoin="round"/>
<path d="M287.239 157.25C287.239 157.25 288.749 151.82 293.169 152.12C296.659 152.36 299.519 157.54 299.049 163.07" stroke="#2E353A" stroke-width="0.75" stroke-linecap="round" stroke-linejoin="round"/>
<path d="M326.88 152C322.97 152 320.14 155.47 319.26 160.91L323.26 161.14C323.89 158 325.12 156 326.88 156C328.94 156 331.24 159.32 331.24 164.07C331.24 168.82 328.94 172.15 326.88 172.15C326.349 172.15 325.841 172.361 325.466 172.736C325.09 173.111 324.88 173.62 324.88 174.15C324.88 174.68 325.09 175.189 325.466 175.564C325.841 175.939 326.349 176.15 326.88 176.15C331.57 176.15 335.24 170.84 335.24 164.07C335.24 157.3 331.57 152 326.88 152Z" fill="white" stroke="#2E353A" stroke-miterlimit="10"/>
<path d="M332.62 167.26C332.432 167.966 332.184 168.655 331.88 169.32" stroke="#2E353A" stroke-width="0.75" stroke-linecap="round" stroke-linejoin="round"/>
<path d="M321.229 159.07C321.229 159.07 322.739 153.64 327.159 153.94C330.649 154.18 333.509 159.35 333.039 164.88" stroke="#2E353A" stroke-width="0.75" stroke-linecap="round" stroke-linejoin="round"/>
<path d="M373.759 261.93C359.269 237.29 344.049 198.38 338.639 184.06L150.369 176.43C150.249 315.58 192.369 373.07 192.369 373.07C192.369 373.07 240.319 369.36 295.619 348.7C348.759 328.85 412.139 295.53 412.139 295.53C412.139 295.53 391.789 292.6 373.759 261.93Z" fill="white" stroke="#2E353A" stroke-linecap="round" stroke-linejoin="round"/>
<path d="M338.64 184.06L150.37 176.43C150.37 190.12 150.76 203 151.48 215.13L350.3 213.27C345.15 201 341 190.25 338.64 184.06Z" fill="#2E353A" stroke="#2E353A" stroke-linecap="round" stroke-linejoin="round"/>
<path d="M341.97 225.54L350.87 225.23" stroke="#2E353A" stroke-width="3" stroke-linecap="round" stroke-linejoin="round"/>
<path d="M315.81 226.43L335.3 225.76" stroke="#2E353A" stroke-width="3" stroke-linecap="round" stroke-linejoin="round"/>
<path d="M284.14 227.5L309.19 226.65" stroke="#2E353A" stroke-width="3" stroke-linecap="round" stroke-linejoin="round"/>
<path d="M251.92 228.59L278.61 227.69" stroke="#2E353A" stroke-width="3" stroke-linecap="round" stroke-linejoin="round"/>
<path d="M220.77 229.65L245.24 228.82" stroke="#2E353A" stroke-width="3" stroke-linecap="round" stroke-linejoin="round"/>
<path d="M187.949 230.77L212.439 229.93" stroke="#2E353A" stroke-width="3" stroke-linecap="round" stroke-linejoin="round"/>
<path d="M159.06 231.75L181.85 230.97" stroke="#2E353A" stroke-width="3" stroke-linecap="round" stroke-linejoin="round"/>
<path d="M155.35 253.2L362.48 240.58" stroke="#2E353A" stroke-linecap="round" stroke-linejoin="round"/>
<path d="M188.08 251.42C188.08 251.42 191.48 306.5 227.79 367.64" stroke="#2E353A" stroke-linecap="round" stroke-linejoin="round"/>
<path d="M221.5 249.21C221.5 249.21 225.33 312.21 265.14 358.34" stroke="#2E353A" stroke-linecap="round" stroke-linejoin="round"/>
<path d="M251.76 247.35C251.76 247.35 253.76 305.35 298.51 347.03" stroke="#2E353A" stroke-linecap="round" stroke-linejoin="round"/>
<path d="M283.13 246C283.13 246 288.07 310.48 331.38 333.19" stroke="#2E353A" stroke-linecap="round" stroke-linejoin="round"/>
<path d="M316 243.41C316 243.41 319.48 292.18 363.78 318.89" stroke="#2E353A" stroke-linecap="round" stroke-linejoin="round"/>
<path d="M341.88 241.83C341.88 241.83 353.8 291.83 387.15 308.02" stroke="#2E353A" stroke-linecap="round" stroke-linejoin="round"/>
<path d="M159.89 281.61L371.45 258.34" stroke="#2E353A" stroke-linecap="round" stroke-linejoin="round"/>
<path d="M165.409 306.5C165.409 306.5 210.579 304.73 381.289 273.27" stroke="#2E353A" stroke-linecap="round" stroke-linejoin="round"/>
<path d="M173.38 332.85C173.38 332.85 217.38 337.85 389.76 282.96" stroke="#2E353A" stroke-linecap="round" stroke-linejoin="round"/>
<path d="M182.899 355.84C182.899 355.84 219.579 367.99 399.759 290.84" stroke="#2E353A" stroke-linecap="round" stroke-linejoin="round"/>
<path d="M231.69 203.65L163.87 202.74C163.32 202.732 162.792 202.524 162.384 202.157C161.976 201.789 161.715 201.286 161.65 200.74L161.07 195.26C161.036 194.945 161.069 194.626 161.167 194.324C161.266 194.023 161.427 193.745 161.641 193.511C161.855 193.276 162.116 193.09 162.407 192.964C162.698 192.838 163.012 192.775 163.33 192.78L230.33 193.94C230.825 193.949 231.303 194.12 231.692 194.427C232.08 194.734 232.357 195.16 232.48 195.64L233.84 200.85C233.925 201.179 233.934 201.524 233.866 201.857C233.798 202.191 233.655 202.504 233.447 202.774C233.24 203.044 232.974 203.263 232.67 203.415C232.365 203.567 232.03 203.647 231.69 203.65Z" fill="white"/>
</svg>
