<svg width="500" height="500" viewBox="0 0 500 500" fill="none" xmlns="http://www.w3.org/2000/svg">
<path d="M172.878 359.875C169.689 356.79 166.029 353.418 165.806 348.954C165.818 346.958 166.433 345.014 167.568 343.381C168.703 341.748 170.305 340.503 172.159 339.814C174.028 339.177 176.006 338.926 177.973 339.076C179.941 339.227 181.858 339.777 183.611 340.692C187.102 342.556 190.213 345.07 192.781 348.102C200.505 356.776 206.097 367.167 209.103 378.434C212.108 389.701 212.442 401.525 210.078 412.946C209.755 414.451 209.259 416.118 207.919 416.833C205.784 417.974 203.352 415.968 201.888 414.024C198.713 409.764 196.314 404.967 194.803 399.857C193.562 395.531 194.108 390.767 192.495 386.692C188.55 376.7 180.472 367.209 172.878 359.875Z" fill="#BA68C8"/>
<path d="M172.878 359.875C169.689 356.79 166.029 353.418 165.806 348.954C165.818 346.958 166.433 345.014 167.568 343.381C168.703 341.748 170.305 340.503 172.159 339.814C174.028 339.177 176.006 338.926 177.973 339.076C179.941 339.227 181.858 339.777 183.611 340.692C187.102 342.556 190.213 345.07 192.781 348.102C200.505 356.776 206.097 367.167 209.103 378.434C212.108 389.701 212.442 401.525 210.078 412.946C209.755 414.451 209.259 416.118 207.919 416.833C205.784 417.974 203.352 415.968 201.888 414.024C198.713 409.764 196.314 404.967 194.803 399.857C193.562 395.531 194.108 390.767 192.495 386.692C188.55 376.7 180.472 367.209 172.878 359.875Z" fill="#BA68C8"/>
<path d="M206.058 411.003C205.946 411.003 205.836 410.98 205.732 410.937C205.629 410.893 205.536 410.829 205.457 410.749C205.379 410.668 205.317 410.573 205.275 410.468C205.233 410.363 205.213 410.251 205.214 410.138C205.11 397.627 202.252 385.297 196.848 374.04C191.445 362.783 183.63 352.883 173.971 345.055C173.878 344.984 173.8 344.894 173.742 344.792C173.684 344.69 173.647 344.577 173.633 344.46C173.619 344.343 173.629 344.224 173.661 344.111C173.694 343.998 173.748 343.893 173.822 343.801C173.894 343.71 173.984 343.633 174.086 343.577C174.187 343.52 174.299 343.485 174.414 343.472C174.529 343.459 174.646 343.469 174.757 343.502C174.869 343.535 174.973 343.59 175.063 343.663C184.926 351.653 192.905 361.762 198.421 373.255C203.937 384.749 206.851 397.339 206.952 410.113C206.955 410.232 206.934 410.35 206.89 410.46C206.847 410.571 206.781 410.671 206.697 410.754C206.613 410.838 206.513 410.903 206.403 410.946C206.293 410.989 206.176 411.008 206.058 411.003Z" fill="white"/>
<path d="M195.597 445.206C190.224 446.948 183.487 445.807 180.372 441.043C176.65 435.451 178.995 426.825 174.094 422.237C171.352 419.729 167.319 419.453 163.684 418.701C160.048 417.949 156.015 415.905 155.469 412.194C154.75 407.279 160.731 403.192 159.899 398.29C159.068 393.388 152.454 391.946 150.506 387.457C148.732 383.37 151.871 378.418 156.04 376.888C160.209 375.358 164.838 376.412 168.982 377.966C173.126 379.521 177.159 381.577 181.551 382.129C185.944 382.68 191.403 381.79 194.753 384.962C199.245 389.2 196.677 397.287 200.138 402.402C202.471 405.837 206.851 407.029 210.201 409.436C212.284 410.964 213.974 412.973 215.131 415.296C216.288 417.619 216.878 420.188 216.852 422.788C216.74 428.418 213.812 432.492 209.593 435.727C205.126 439.238 201.193 443.4 195.597 445.206Z" fill="#BA68C8"/>
<path opacity="0.3" d="M195.597 445.206C190.224 446.948 183.487 445.807 180.372 441.043C176.65 435.451 178.995 426.825 174.094 422.237C171.352 419.729 167.319 419.453 163.684 418.701C160.048 417.949 156.015 415.905 155.469 412.194C154.75 407.279 160.731 403.192 159.899 398.29C159.068 393.388 152.454 391.946 150.506 387.457C148.732 383.37 151.871 378.418 156.04 376.888C160.209 375.358 164.838 376.412 168.982 377.966C173.126 379.521 177.159 381.577 181.551 382.129C185.944 382.68 191.403 381.79 194.753 384.962C199.245 389.2 196.677 397.287 200.138 402.402C202.471 405.837 206.851 407.029 210.201 409.436C212.284 410.964 213.974 412.973 215.131 415.296C216.288 417.619 216.878 420.188 216.852 422.788C216.74 428.418 213.812 432.492 209.593 435.727C205.126 439.238 201.193 443.4 195.597 445.206Z" fill="black"/>
<path d="M193.177 406.702L193.115 406.615C192.309 405.436 191.477 404.27 190.633 403.154C182.682 393.2 171.897 385.953 159.737 382.392C159.626 382.348 159.507 382.327 159.388 382.332C159.269 382.337 159.152 382.367 159.045 382.42C158.938 382.473 158.843 382.549 158.766 382.641C158.689 382.734 158.633 382.841 158.6 382.957C158.567 383.073 158.558 383.195 158.574 383.314C158.591 383.434 158.631 383.548 158.694 383.651C158.757 383.754 158.84 383.842 158.939 383.91C159.037 383.978 159.149 384.025 159.266 384.047C171.089 387.507 181.575 394.553 189.306 404.233C189.542 404.533 189.752 404.872 189.988 405.173C180.36 401.6 170.532 403.631 165.296 407.894C165.202 407.964 165.124 408.054 165.066 408.157C165.008 408.261 164.972 408.375 164.96 408.493C164.949 408.611 164.961 408.73 164.998 408.843C165.034 408.955 165.094 409.059 165.172 409.147C165.241 409.243 165.329 409.324 165.431 409.383C165.533 409.443 165.646 409.48 165.762 409.493C165.879 409.506 165.997 409.495 166.109 409.459C166.221 409.423 166.325 409.364 166.413 409.285C171.599 405.06 182.308 403.179 192.011 407.931C198.047 416.932 201.578 427.407 202.235 438.26C202.248 438.477 202.342 438.681 202.499 438.83C202.656 438.979 202.863 439.062 203.079 439.062C203.191 439.057 203.301 439.03 203.402 438.982C203.503 438.934 203.594 438.866 203.669 438.782C203.744 438.697 203.802 438.599 203.839 438.492C203.876 438.386 203.892 438.272 203.885 438.159C203.197 426.888 199.496 416.017 193.177 406.702Z" fill="white"/>
<path d="M348.713 54.3707C347.77 50.7598 341.082 43.8767 334.431 44.0146C333.787 44.0384 333.152 44.1785 332.557 44.4284L203.303 125.183C201.109 126.587 199.381 128.622 198.34 131.026C197.512 132.904 197.089 134.938 197.099 136.993V444.09C197.099 451.913 205.313 459.373 213.031 455.787C213.201 455.722 213.366 455.647 213.527 455.561L342.794 374.656C344.733 373.382 346.319 371.631 347.404 369.567C348.489 367.503 349.038 365.195 348.998 362.858V55.8627C349.012 55.3502 348.914 54.841 348.713 54.3707Z" fill="#37474F"/>
<path d="M215.09 169.453C215.073 168.282 215.351 167.125 215.898 166.092C216.445 165.059 217.243 164.184 218.217 163.548L338.24 88.5482C338.728 88.2709 339.281 88.1321 339.84 88.1465C340.4 88.1609 340.945 88.328 341.418 88.63C341.891 88.932 342.274 89.3577 342.528 89.862C342.781 90.3663 342.894 90.9304 342.856 91.4945V339.137C342.872 340.307 342.594 341.461 342.047 342.492C341.5 343.523 340.702 344.396 339.729 345.03L219.706 420.155C219.218 420.433 218.665 420.571 218.106 420.557C217.547 420.543 217.001 420.375 216.528 420.073C216.055 419.771 215.672 419.346 215.419 418.841C215.165 418.337 215.052 417.773 215.09 417.209V169.453Z" fill="#BA68C8"/>
<path d="M197.049 136.993V444.089C197.049 451.913 205.263 459.373 212.981 455.787C212.496 455.954 211.977 455.999 211.471 455.916C210.965 455.833 210.487 455.626 210.079 455.313C209.671 454.999 209.345 454.59 209.131 454.119C208.916 453.649 208.819 453.132 208.849 452.615V145.481C208.849 142.827 209.575 140.224 210.946 137.959L198.339 131.088C197.503 132.943 197.064 134.955 197.049 136.993Z" fill="#263238"/>
<path d="M334.443 44.002C333.799 44.0258 333.164 44.166 332.569 44.4158L203.302 125.183C201.108 126.587 199.38 128.622 198.339 131.026L210.995 137.971C212.025 136.227 213.45 134.753 215.152 133.671L344.419 52.9037C344.788 52.6782 345.202 52.5369 345.631 52.4895C346.06 52.4422 346.494 52.49 346.902 52.6297C347.311 52.7694 347.685 52.9975 347.998 53.2982C348.31 53.5989 348.554 53.9649 348.712 54.3706C347.781 50.7473 341.093 43.8641 334.443 44.002Z" fill="#455A64"/>
<path d="M294.9 103.606C295.818 103.029 296.562 103.48 296.562 104.621C296.54 105.238 296.38 105.841 296.094 106.386C295.808 106.931 295.404 107.404 294.912 107.768L269.55 123.854C268.644 124.431 267.912 123.942 267.912 122.801C267.933 122.192 268.089 121.596 268.371 121.057C268.653 120.519 269.051 120.052 269.538 119.692L294.9 103.606Z" fill="#263238"/>
<path d="M263.035 123.816C263.941 123.24 264.673 123.704 264.673 124.845C264.653 125.458 264.495 126.059 264.211 126.602C263.927 127.145 263.525 127.616 263.035 127.979C262.129 128.556 261.384 128.092 261.372 126.938C261.398 126.325 261.561 125.725 261.849 125.184C262.137 124.644 262.542 124.176 263.035 123.816Z" fill="#263238"/>
<path d="M279.263 101.274C281.075 100.12 282.539 101.036 282.539 103.33C282.5 104.555 282.188 105.755 281.625 106.841C281.062 107.926 280.263 108.869 279.288 109.599C277.464 110.74 275.963 109.799 275.963 107.517C276.008 106.292 276.329 105.093 276.901 104.011C277.473 102.93 278.281 101.993 279.263 101.274Z" fill="#263238"/>
<path d="M279.276 390.378C282.998 388.034 285.951 389.902 285.964 394.566C285.976 399.23 283.011 404.96 279.313 407.304C275.616 409.649 272.563 407.731 272.551 403.067C272.651 400.576 273.308 398.141 274.473 395.943C275.638 393.746 277.28 391.843 279.276 390.378Z" fill="#263238"/>
<path d="M291.473 217.422C291.151 217.611 290.862 217.852 290.617 218.137C290.424 218.379 290.277 218.655 290.183 218.952C289.368 220.669 288.671 222.441 288.098 224.255C287.478 225.847 286.858 227.452 286.374 229.057C286.228 229.347 286.119 229.654 286.051 229.972C285.868 230.374 285.727 230.794 285.629 231.226L284.624 233.909C284.513 234.172 284.388 234.423 284.277 234.674C283.942 235.428 283.668 236.207 283.458 237.006C283.318 237.347 283.264 237.718 283.3 238.086C283.337 238.454 283.464 238.806 283.669 239.112C284.481 239.908 285.48 240.481 286.572 240.78L286.87 240.867C287.168 240.968 287.466 241.043 287.763 241.131L289.327 241.933L289.625 242.146C289.735 242.266 289.838 242.392 289.935 242.522C290.042 242.656 290.122 242.809 290.171 242.974C290.234 243.242 290.234 243.521 290.171 243.789L289.91 245.043C289.687 245.72 289.451 246.397 289.215 247.061L288.88 247.939C288.533 248.879 288.173 249.832 287.813 250.772C287.453 251.713 287.131 252.477 286.845 253.28C286.575 253.826 286.335 254.387 286.126 254.96C286.002 255.248 285.865 255.536 285.741 255.812C285.406 256.527 285.083 257.242 284.761 257.956L284.463 258.596L283.421 260.677C283.297 260.94 283.16 261.203 283.024 261.467L281.783 263.724C281.684 263.912 281.572 264.1 281.46 264.288C281.014 265.053 280.567 265.83 280.108 266.595L279.735 267.184C278.792 268.626 277.849 270.068 276.894 271.509L275.777 273.102L275.467 273.54L272.005 278.117L270.839 279.458C270.589 279.767 270.291 280.034 269.958 280.248C269.754 280.395 269.513 280.481 269.263 280.496C269.013 280.512 268.764 280.456 268.543 280.336L267.687 279.859C267.687 279.734 267.576 279.709 267.489 279.696C266.302 278.617 265.019 277.651 263.655 276.813C263.405 276.649 263.114 276.562 262.817 276.562C262.52 276.562 262.229 276.649 261.98 276.813C261.825 276.908 261.68 277.017 261.545 277.139C260.985 277.644 260.493 278.221 260.081 278.856C259.943 278.971 259.839 279.123 259.783 279.295C258.741 280.812 257.6 282.166 256.52 283.621C255.515 284.812 254.522 286.04 253.567 287.319C253.021 287.971 252.5 288.636 252.003 289.363C251.397 290.088 250.829 290.845 250.304 291.632C250.077 291.897 249.881 292.187 249.72 292.497C249.44 292.829 249.233 293.218 249.115 293.638C248.998 294.058 248.971 294.498 249.038 294.93C249.027 295.455 249.069 295.98 249.162 296.497C249.21 297.135 249.343 297.763 249.559 298.365C249.61 298.799 249.727 299.222 249.907 299.619C249.957 299.739 250.015 299.857 250.08 299.97C250.086 300.064 250.107 300.158 250.142 300.246C250.198 300.363 250.269 300.473 250.353 300.572C250.442 300.853 250.639 301.088 250.899 301.224C251.07 301.468 251.301 301.662 251.569 301.788C251.726 301.865 251.888 301.932 252.053 301.988L252.376 302.076C252.503 302.143 252.636 302.198 252.773 302.239H252.959C253.177 302.277 253.399 302.277 253.617 302.239C253.663 302.268 253.717 302.283 253.772 302.283C253.826 302.283 253.88 302.268 253.927 302.239C254.2 302.309 254.485 302.309 254.758 302.239C255.057 302.295 255.364 302.295 255.664 302.239C255.973 302.259 256.282 302.229 256.582 302.151H257.128C257.549 302.093 257.965 301.996 258.369 301.863H258.555C258.715 301.838 258.873 301.801 259.026 301.75C259.132 301.72 259.233 301.673 259.324 301.612C259.684 301.499 259.746 301.462 259.821 301.437C260.284 301.285 260.736 301.101 261.173 300.885L261.57 300.684L261.855 300.509C262.125 300.354 262.382 300.178 262.625 299.982L263.531 299.38C263.869 299.143 264.189 298.879 264.486 298.591C264.789 298.397 265.079 298.183 265.355 297.951C265.466 297.863 265.578 297.751 265.69 297.65L265.851 297.475L266.322 297.061C266.794 296.622 267.265 296.171 267.712 295.669C268.086 295.355 268.43 295.006 268.742 294.629C268.861 294.547 268.955 294.435 269.015 294.303C269.661 293.706 270.27 293.07 270.839 292.397C271.339 291.924 271.816 291.426 272.266 290.905C272.648 290.555 273.001 290.174 273.321 289.764L273.891 289.125C274.068 288.985 274.219 288.815 274.338 288.623C274.423 288.562 274.492 288.48 274.537 288.385C274.65 288.278 274.758 288.165 274.859 288.046C275.041 287.856 275.207 287.65 275.355 287.432C275.697 287.073 276.02 286.697 276.323 286.304L276.621 285.903L276.931 285.526C277.502 284.812 278.073 284.122 278.594 283.332C278.873 283.047 279.115 282.727 279.314 282.379C279.667 281.963 279.986 281.519 280.269 281.051C280.751 280.432 281.198 279.788 281.609 279.12C281.87 278.756 281.994 278.593 282.105 278.418C282.217 278.242 282.354 278.079 282.465 277.904C282.577 277.728 282.912 277.201 283.123 276.838L283.557 276.224C283.701 276.009 283.834 275.788 283.954 275.559C284.234 275.19 284.479 274.795 284.686 274.38C285.042 273.871 285.365 273.339 285.654 272.788C285.776 272.647 285.88 272.491 285.964 272.324L286.101 272.086C286.147 272.001 286.189 271.913 286.225 271.823C286.337 271.672 286.436 271.509 286.535 271.346C286.849 270.862 287.135 270.36 287.391 269.842L287.776 269.19L289.017 267.033C289.176 266.818 289.305 266.582 289.401 266.331C289.712 265.83 289.997 265.303 290.27 264.764L290.53 264.225C290.684 263.982 290.816 263.726 290.928 263.46L291.945 261.504C292.119 261.128 292.305 260.765 292.479 260.401C292.766 259.903 293.015 259.383 293.223 258.846C294.03 257.279 294.737 255.687 295.394 254.082L295.692 253.355C295.975 252.779 296.22 252.184 296.424 251.575C297.194 249.744 297.888 247.889 298.472 246.033C298.472 245.87 298.583 245.72 298.645 245.569C299.04 244.5 299.367 243.407 299.626 242.297C300.06 240.955 300.395 239.626 300.717 238.31C300.817 237.858 300.928 237.42 301.04 236.981C301.116 236.843 301.155 236.687 301.152 236.529C301.152 236.429 301.214 236.329 301.239 236.229L301.388 235.639C301.857 234.027 302.221 232.385 302.479 230.725V230.474C302.519 230.335 302.519 230.187 302.479 230.048V229.784C302.479 229.634 302.479 229.483 302.541 229.32V228.844C302.664 228.149 302.723 227.444 302.715 226.738C302.715 226.449 302.715 226.148 302.715 225.86C302.754 225.657 302.754 225.449 302.715 225.246C302.709 225.133 302.709 225.02 302.715 224.907C302.702 224.289 302.598 223.676 302.405 223.089C302.261 222.219 301.994 221.374 301.611 220.582C301.18 219.292 300.492 218.106 299.588 217.096C299.353 216.734 299.016 216.45 298.621 216.281C298.621 216.206 298.534 216.106 298.41 216.143C298.101 215.894 297.713 215.765 297.318 215.78C296.131 215.729 294.948 215.947 293.856 216.419L293.459 216.582C293.119 216.682 292.791 216.816 292.479 216.983L292.292 217.109C292.069 217.109 291.771 217.247 291.473 217.422Z" fill="white"/>
</svg>
