<svg width="397" height="393" viewBox="0 0 397 393" fill="none" xmlns="http://www.w3.org/2000/svg">
<path d="M359.237 233.5C379.857 145.41 324.513 57.4338 235.622 36.9995C146.732 16.5652 57.956 71.4108 37.3359 159.5C16.7159 247.59 72.06 335.566 160.95 356C249.841 376.435 338.617 321.589 359.237 233.5Z" fill="#BA68C8"/>
<path opacity="0.2" d="M363.568 195.355V196.806C363.6 222.14 357.699 247.135 346.33 269.826C334.961 292.517 318.433 312.284 298.048 327.572C277.663 342.86 253.977 353.251 228.852 357.929C203.727 362.607 177.85 361.443 153.256 354.529C128.661 347.616 106.022 335.141 87.1175 318.086C68.2134 301.032 53.5605 279.863 44.3118 256.245C35.0631 232.627 31.471 207.204 33.8179 181.977C36.1648 156.75 44.3868 132.407 57.8369 110.862C50.4637 149.691 58.0488 189.849 79.0947 223.406C100.141 256.963 133.118 281.482 171.515 292.12C209.912 302.758 250.939 298.743 286.495 280.868C322.051 262.993 349.552 232.556 363.568 195.568V195.355Z" fill="black"/>
<path d="M195.927 108.856C218.373 108.856 221.218 108.856 229.881 109.357C235.214 109.437 240.494 110.412 245.498 112.239C249.115 113.631 252.399 115.754 255.142 118.473C257.885 121.191 260.028 124.446 261.432 128.03C263.248 132.973 264.21 138.184 264.277 143.444C264.72 152.216 264.783 154.848 264.783 177.092C264.783 199.336 264.783 202.156 264.277 210.74C264.21 216 263.248 221.211 261.432 226.155C260.028 229.738 257.885 232.993 255.142 235.712C252.399 238.43 249.115 240.553 245.498 241.945C240.494 243.773 235.214 244.747 229.881 244.827C221.029 245.203 218.373 245.329 195.927 245.329C173.48 245.329 170.635 245.329 162.036 244.827C156.702 244.754 151.42 243.78 146.418 241.945C142.788 240.577 139.491 238.463 136.745 235.741C133.998 233.019 131.865 229.752 130.484 226.155C128.639 221.217 127.655 216.005 127.576 210.74C127.196 201.968 127.133 199.336 127.133 177.092C127.133 154.848 127.133 152.028 127.576 143.444C127.655 138.179 128.639 132.967 130.484 128.03C131.865 124.432 133.998 121.165 136.745 118.443C139.491 115.722 142.788 113.607 146.418 112.239C151.42 110.405 156.702 109.43 162.036 109.357C170.888 108.981 173.543 108.856 195.927 108.856ZM195.927 93.8801C173.164 93.8801 170.635 93.8801 161.34 94.3814C154.358 94.505 147.449 95.8192 140.917 98.2663C135.344 100.401 130.283 103.666 126.058 107.853C121.833 112.04 118.538 117.055 116.384 122.578C113.95 129.04 112.625 135.859 112.464 142.755C112.085 151.652 111.958 154.472 111.958 177.092C111.958 199.712 111.958 202.532 112.464 211.43C112.625 218.325 113.95 225.145 116.384 231.606C118.538 237.129 121.833 242.145 126.058 246.331C130.283 250.518 135.344 253.783 140.917 255.918C147.449 258.365 154.358 259.679 161.34 259.803C170.319 260.179 173.164 260.304 195.927 260.304C218.689 260.304 221.598 260.304 230.576 259.803C237.538 259.681 244.426 258.367 250.936 255.918C256.558 253.843 261.652 250.571 265.858 246.331C270.101 242.159 273.399 237.139 275.532 231.606C277.972 225.148 279.276 218.324 279.389 211.43C279.832 202.532 279.895 199.712 279.895 177.092C279.895 154.472 279.895 151.652 279.389 142.755C279.276 135.86 277.972 129.036 275.532 122.578C273.375 117.112 270.078 112.159 265.858 108.041C261.652 103.801 256.558 100.529 250.936 98.4543C244.426 96.0057 237.538 94.6914 230.576 94.5694C221.598 94.1934 218.752 94.0681 195.927 94.0681" fill="white"/>
<path d="M195.926 132.411C186.978 132.411 178.232 134.913 170.793 139.601C163.355 144.288 157.56 150.951 154.142 158.744C150.724 166.537 149.836 175.111 151.591 183.38C153.347 191.649 157.666 199.241 164.003 205.195C170.339 211.15 178.408 215.198 187.187 216.828C195.967 218.458 205.062 217.596 213.321 214.352C221.581 211.108 228.633 205.627 233.585 198.603C238.537 191.58 241.167 183.329 241.14 174.896C241.14 163.595 236.377 152.757 227.898 144.766C219.418 136.775 207.918 132.286 195.926 132.286M195.926 202.574C190.118 202.574 184.44 200.951 179.61 197.91C174.78 194.868 171.016 190.546 168.793 185.488C166.57 180.431 165.988 174.866 167.122 169.497C168.255 164.128 171.052 159.196 175.159 155.325C179.267 151.454 184.5 148.818 190.197 147.75C195.894 146.682 201.799 147.23 207.166 149.325C212.532 151.42 217.119 154.968 220.346 159.519C223.573 164.071 225.296 169.422 225.296 174.896C225.296 182.237 222.201 189.277 216.694 194.468C211.186 199.658 203.716 202.574 195.926 202.574Z" fill="white"/>
<path d="M249.752 132.232C249.763 133.923 249.267 135.578 248.327 136.988C247.387 138.399 246.046 139.501 244.474 140.155C242.901 140.809 241.167 140.986 239.493 140.663C237.819 140.34 236.28 139.531 235.07 138.34C233.86 137.148 233.034 135.628 232.698 133.971C232.361 132.314 232.529 130.595 233.179 129.032C233.829 127.47 234.933 126.134 236.35 125.193C237.768 124.253 239.435 123.751 241.14 123.751C243.415 123.751 245.598 124.643 247.211 126.232C248.825 127.821 249.738 129.978 249.752 132.232Z" fill="white"/>
</svg>
