<svg width="391" height="391" viewBox="0 0 391 391" fill="none" xmlns="http://www.w3.org/2000/svg">
<g clip-path="url(#clip0_516_610)">
<path d="M350.954 237.9C374.49 151.927 323.874 63.1514 237.901 39.6155C151.927 16.0796 63.1515 66.6955 39.6156 152.669C16.0796 238.643 66.6956 327.419 152.669 350.954C238.643 374.49 327.419 323.874 350.954 237.9Z" fill="#BA68C8"/>
<path opacity="0.2" d="M356.595 194.006V195.245C356.558 220.178 350.745 244.765 339.611 267.075C328.477 289.384 312.326 308.811 292.424 323.832C272.522 338.852 249.411 349.057 224.903 353.646C200.395 358.235 175.157 357.083 151.169 350.281C127.181 343.479 105.095 331.212 86.6437 314.442C68.1923 297.671 53.8774 276.854 44.8217 253.623C35.7661 230.392 32.2159 205.378 34.4499 180.545C36.6839 155.711 44.6412 131.733 57.6976 110.491C49.4858 149.157 56.3119 189.498 76.7873 223.31C97.2626 257.122 129.849 281.864 167.919 292.503C205.988 303.142 246.681 298.88 281.719 280.582C316.757 262.285 343.509 231.327 356.533 194.006H356.595Z" fill="black"/>
<path d="M195.743 80.0196C161.548 80.8367 133.655 109.453 132.841 144.558C132.481 158.968 136.738 173.102 144.957 184.789L145.588 185.667L145.676 185.794L191.309 249.515C192.241 250.815 193.462 251.866 194.872 252.579C196.282 253.292 197.838 253.647 199.409 253.613C200.98 253.579 202.52 253.158 203.9 252.384C205.279 251.611 206.457 250.509 207.334 249.17L248.604 186.224C256.41 173.997 261.764 161.227 261.764 146.168C261.764 137.343 260.044 128.608 256.707 120.475C253.369 112.343 248.48 104.978 242.329 98.8144C236.177 92.6507 228.886 87.8126 220.886 84.5848C212.885 81.3571 204.337 79.8049 195.743 80.0196ZM197.276 194.286C187.692 194.287 178.323 191.37 170.353 185.905C162.384 180.439 156.172 172.671 152.503 163.581C148.835 154.491 147.874 144.489 149.743 134.839C151.612 125.188 156.227 116.324 163.004 109.366C169.78 102.409 178.414 97.6701 187.814 95.7502C197.214 93.8302 206.958 94.815 215.812 98.58C224.667 102.345 232.235 108.721 237.56 116.902C242.885 125.083 245.727 134.701 245.727 144.54C245.727 157.732 240.623 170.384 231.536 179.713C222.45 189.042 210.127 194.284 197.276 194.286Z" fill="#CCCCCC"/>
<g opacity="0.3">
<path d="M195.742 80.0196C161.547 80.8367 133.654 109.453 132.84 144.558C132.48 158.968 136.737 173.102 144.956 184.789L145.587 185.667L145.675 185.794L191.309 249.515C192.24 250.815 193.461 251.866 194.871 252.579C196.281 253.292 197.837 253.647 199.408 253.613C200.979 253.579 202.519 253.158 203.899 252.384C205.278 251.611 206.456 250.509 207.333 249.17L248.603 186.224C256.409 173.997 261.763 161.227 261.763 146.168C261.763 137.343 260.043 128.608 256.706 120.475C253.368 112.343 248.479 104.978 242.328 98.8144C236.176 92.6507 228.885 87.8126 220.885 84.5848C212.884 81.3571 204.336 79.8049 195.742 80.0196ZM197.275 194.286C187.691 194.287 178.322 191.37 170.352 185.905C162.383 180.439 156.171 172.671 152.502 163.581C148.834 154.491 147.873 144.489 149.742 134.839C151.611 125.188 156.226 116.324 163.003 109.366C169.779 102.409 178.413 97.6701 187.813 95.7502C197.213 93.8302 206.957 94.815 215.811 98.58C224.666 102.345 232.235 108.721 237.559 116.902C242.884 125.083 245.726 134.701 245.726 144.54C245.726 157.732 240.622 170.384 231.536 179.713C222.449 189.042 210.126 194.284 197.275 194.286Z" fill="black"/>
</g>
<path d="M191.923 80.0196C157.727 80.8367 129.835 109.453 129.021 144.558C128.661 158.968 132.917 173.102 141.137 184.789L141.768 185.667L141.856 185.794L187.489 249.515C188.42 250.815 189.642 251.866 191.052 252.579C192.461 253.292 194.018 253.647 195.589 253.613C197.16 253.579 198.7 253.158 200.079 252.384C201.459 251.611 202.637 250.509 203.514 249.17L244.784 186.224C252.59 173.997 257.943 161.227 257.943 146.168C257.943 137.343 256.224 128.608 252.886 120.475C249.549 112.343 244.66 104.978 238.508 98.8144C232.356 92.6507 225.066 87.8126 217.065 84.5848C209.065 81.3571 200.516 79.8049 191.923 80.0196ZM193.456 194.286C183.872 194.287 174.502 191.37 166.533 185.905C158.563 180.439 152.351 172.671 148.683 163.581C145.014 154.491 144.054 144.489 145.923 134.839C147.792 125.188 152.407 116.324 159.183 109.366C165.96 102.409 174.594 97.6701 183.994 95.7502C193.394 93.8302 203.137 94.815 211.992 98.58C220.847 102.345 228.415 108.721 233.74 116.902C239.065 125.083 241.907 134.701 241.907 144.54C241.907 157.732 236.802 170.384 227.716 179.713C218.63 189.042 206.306 194.284 193.456 194.286Z" fill="white"/>
</g>
<defs>
<clipPath id="clip0_516_610">
<rect width="390.57" height="390.57" fill="white"/>
</clipPath>
</defs>
</svg>
