<svg width="397" height="397" viewBox="0 0 397 397" fill="none" xmlns="http://www.w3.org/2000/svg">
<path d="M353.954 240.9C377.49 154.927 326.874 66.1514 240.901 42.6155C154.927 19.0796 66.1515 69.6955 42.6156 155.669C19.0796 241.643 69.6956 330.418 155.669 353.954C241.643 377.49 330.419 326.874 353.954 240.9Z" fill="#BA68C8"/>
<path opacity="0.5" d="M359.595 197.006V198.245C359.558 223.178 353.745 247.765 342.611 270.075C331.477 292.384 315.326 311.811 295.424 326.832C275.522 341.852 252.411 352.057 227.903 356.646C203.395 361.235 178.157 360.083 154.169 353.281C130.181 346.479 108.095 334.212 89.6437 317.442C71.1923 300.671 56.8774 279.854 47.8217 256.623C38.7661 233.392 35.2159 208.378 37.4499 183.545C39.6839 158.711 47.6412 134.733 60.6976 113.491C52.4858 152.157 59.3119 192.498 79.7873 226.31C100.263 260.122 132.849 284.864 170.919 295.503C208.988 306.142 249.681 301.88 284.719 283.582C319.757 265.285 346.509 234.327 359.533 197.006H359.595Z" fill="#BA68C8"/>
<path opacity="0.1" d="M359.595 197.006V198.245C359.558 223.178 353.745 247.765 342.611 270.075C331.477 292.384 315.326 311.811 295.424 326.832C275.522 341.852 252.411 352.057 227.903 356.646C203.395 361.235 178.157 360.083 154.169 353.281C130.181 346.479 108.095 334.212 89.6437 317.442C71.1923 300.671 56.8774 279.854 47.8217 256.623C38.7661 233.392 35.2159 208.378 37.4499 183.545C39.6839 158.711 47.6412 134.733 60.6976 113.491C52.4858 152.157 59.3119 192.498 79.7873 226.31C100.263 260.122 132.849 284.864 170.919 295.503C208.988 306.142 249.681 301.88 284.719 283.582C319.757 265.285 346.509 234.327 359.533 197.006H359.595Z" fill="#BA68C8"/>
<path opacity="0.2" d="M359.595 197.006V198.245C359.558 223.178 353.745 247.765 342.611 270.075C331.477 292.384 315.326 311.811 295.424 326.832C275.522 341.852 252.411 352.057 227.903 356.646C203.395 361.235 178.157 360.083 154.169 353.281C130.181 346.479 108.095 334.212 89.6437 317.442C71.1923 300.671 56.8774 279.854 47.8217 256.623C38.7661 233.392 35.2159 208.378 37.4499 183.545C39.6839 158.711 47.6412 134.733 60.6976 113.491C52.4858 152.157 59.3119 192.498 79.7873 226.31C100.263 260.122 132.849 284.864 170.919 295.503C208.988 306.142 249.681 301.88 284.719 283.582C319.757 265.285 346.509 234.327 359.533 197.006H359.595Z" fill="black"/>
<path fill-rule="evenodd" clip-rule="evenodd" d="M281.848 172.404C281.053 151.203 272.12 131.123 256.906 116.336C241.691 101.55 221.364 93.1932 200.149 93.0033C178.933 92.8135 158.46 100.805 142.983 115.317C127.507 129.829 118.216 149.746 117.042 170.93C117.042 172.128 117.042 173.326 117.042 174.524C117.03 189.412 121.112 204.016 128.84 216.74L114 260.707L159.626 246.143C171.858 252.856 185.585 256.375 199.537 256.374C210.322 256.411 221.009 254.323 230.987 250.229C240.965 246.135 250.039 240.116 257.69 232.516C265.342 224.915 271.422 215.882 275.583 205.932C279.744 195.982 281.904 185.309 281.94 174.524L281.848 172.404ZM199.445 243.286C185.875 243.33 172.596 239.353 161.285 231.856L134.647 240.428L143.311 214.804C134.708 203.135 130.057 189.022 130.038 174.524C130.038 172.22 130.038 170.008 130.038 167.796C131.737 150.537 139.836 134.54 152.74 122.953C165.644 111.367 182.417 105.031 199.759 105.193C217.1 105.355 233.753 112.003 246.438 123.828C259.123 135.653 266.921 151.799 268.298 169.086C268.298 170.93 268.298 172.681 268.298 174.524C268.177 192.74 260.881 210.173 247.992 223.045C235.103 235.917 217.66 243.189 199.445 243.286Z" fill="white"/>
<path fill-rule="evenodd" clip-rule="evenodd" d="M237.229 191.023C235.201 190.009 225.246 185.124 223.403 184.479C221.559 183.834 220.177 183.465 218.794 185.493C217.411 187.521 213.54 192.037 212.434 193.327C211.328 194.618 210.038 194.802 208.01 193.788C202.034 191.501 196.533 188.125 191.787 183.834C187.342 179.838 183.548 175.173 180.542 170.008C180.321 169.69 180.166 169.331 180.088 168.951C180.01 168.572 180.01 168.181 180.087 167.802C180.165 167.423 180.319 167.063 180.539 166.745C180.76 166.427 181.043 166.157 181.372 165.952C182.385 165.03 183.399 163.555 184.506 162.357L185.243 161.435C185.704 160.698 185.98 159.961 186.441 159.039C186.74 158.504 186.897 157.901 186.897 157.288C186.897 156.675 186.74 156.072 186.441 155.536C185.888 154.522 181.833 144.66 180.173 140.604C178.514 136.549 176.763 137.286 175.565 137.286H171.786C170.759 137.32 169.75 137.557 168.816 137.984C167.883 138.411 167.044 139.02 166.347 139.775C164.069 141.928 162.262 144.531 161.04 147.419C159.819 150.306 159.209 153.415 159.25 156.55C159.295 158.865 159.667 161.161 160.356 163.371C161.898 168.404 164.333 173.119 167.546 177.289C175.955 190.44 187.903 200.951 202.018 207.614C222.665 215.633 222.665 212.96 226.352 212.592C229.152 212.117 231.818 211.049 234.17 209.459C236.523 207.869 238.509 205.795 239.994 203.374C241.23 200.47 241.644 197.281 241.192 194.157C240.547 192.498 239.625 192.037 237.229 191.023Z" fill="white"/>
</svg>
